<svg width="64" height="24" viewBox="0 0 64 24" fill="none" xmlns="http://www.w3.org/2000/svg">
<g clip-path="url(#clip0_834_12544)">
<rect x="0.5" y="0.5" width="63" height="23" rx="11.5" fill="#F5F5F7" stroke="#D0D0D0"/>
<circle cx="13" cy="12" r="10" fill="#006A4E"/>
<path d="M45.696 8.048V9.184H44.016V18H42.784C42.464 17.36 42.0213 16.7733 41.456 16.24C40.9013 15.696 40.2613 15.2373 39.536 14.864C38.8107 14.4907 38.0373 14.24 37.216 14.112L36.592 12.576C37.616 11.9573 38.672 11.3973 39.76 10.896C40.8587 10.3947 41.9893 9.968 43.152 9.616L42.784 10.288V9.184H35.84V8.048H45.696ZM42.784 10.416L43.12 10.864C42.3093 11.1307 41.456 11.4613 40.56 11.856C39.664 12.24 38.8373 12.6667 38.08 13.136C38.656 13.264 39.2693 13.4827 39.92 13.792C40.5707 14.1013 41.1733 14.4907 41.728 14.96C42.2827 15.4293 42.7093 15.9733 43.008 16.592H42.864C42.8427 16.3467 42.8213 16.1013 42.8 15.856C42.7893 15.6107 42.784 15.3173 42.784 14.976V10.416ZM49.9473 8.048V9.184H48.2673V18H47.0353V10.496C46.9073 10.1333 46.7153 9.824 46.4593 9.568C46.2139 9.312 45.8939 9.184 45.4992 9.184H45.3712V8.048H45.6113C45.8673 8.048 46.1339 8.13333 46.4113 8.304C46.6886 8.464 46.9126 8.71467 47.0833 9.056C47.0726 9.00267 47.0619 8.88 47.0513 8.688C47.0406 8.496 47.0353 8.33067 47.0353 8.192V6.992H47.8993L48.2513 8.048H49.9473ZM51.7493 12.976C52.4213 13.3813 53.0559 13.8667 53.6533 14.432C54.2613 14.9867 54.8106 15.584 55.3013 16.224C55.8026 16.864 56.2239 17.4987 56.5653 18.128L55.5253 18.656C55.0879 17.984 54.6506 17.3813 54.2133 16.848C53.7866 16.304 53.3119 15.8027 52.7893 15.344C52.2773 14.8853 51.6639 14.4373 50.9493 14L51.7493 12.976ZM51.0293 10.224C51.0293 9.78667 51.1253 9.408 51.3173 9.088C51.5199 8.75733 51.7919 8.50133 52.1332 8.32C52.4746 8.13867 52.8586 8.048 53.2853 8.048C53.7119 8.048 54.0959 8.13867 54.4373 8.32C54.7786 8.50133 55.0453 8.75733 55.2373 9.088C55.4399 9.408 55.5413 9.78667 55.5413 10.224C55.5413 10.6613 55.4399 11.0453 55.2373 11.376C55.0453 11.7067 54.7786 11.9627 54.4373 12.144C54.0959 12.3253 53.7119 12.416 53.2853 12.416C52.8586 12.416 52.4746 12.3253 52.1332 12.144C51.7919 11.9627 51.5199 11.712 51.3173 11.392C51.1253 11.0613 51.0293 10.672 51.0293 10.224ZM52.1332 10.224C52.1332 10.5867 52.2399 10.8693 52.4533 11.072C52.6773 11.2747 52.9546 11.376 53.2853 11.376C53.6266 11.376 53.9039 11.2747 54.1173 11.072C54.3306 10.8587 54.4373 10.576 54.4373 10.224C54.4373 9.86133 54.3306 9.584 54.1173 9.392C53.9039 9.18933 53.6266 9.088 53.2853 9.088C52.9546 9.088 52.6773 9.19467 52.4533 9.408C52.2399 9.61067 52.1332 9.88267 52.1332 10.224Z" fill="#006A4E"/>
</g>
<defs>
<clipPath id="clip0_834_12544">
<rect width="64" height="24" fill="white"/>
</clipPath>
</defs>
</svg>
