<?xml version="1.0" encoding="UTF-8"?>
<!DOCTYPE svg PUBLIC "-//W3C//DTD SVG 1.1//EN" "http://www.w3.org/Graphics/SVG/1.1/DTD/svg11.dtd">
<svg xmlns="http://www.w3.org/2000/svg" version="1.1" width="199px" height="193px" style="shape-rendering:geometricPrecision; text-rendering:geometricPrecision; image-rendering:optimizeQuality; fill-rule:evenodd; clip-rule:evenodd" xmlns:xlink="http://www.w3.org/1999/xlink">
<g><path style="opacity:0.613" fill="#00694c" d="M 109.5,1.5 C 111.113,1.94425 112.28,2.94425 113,4.5C 116.199,3.76361 116.365,4.59694 113.5,7C 118.368,8.44285 118.702,10.6095 114.5,13.5C 113.029,12.6195 112.196,11.2861 112,9.5C 111.361,12.2277 110.194,12.7277 108.5,11C 109.357,10.3109 110.023,9.47758 110.5,8.5C 107.075,6.49513 106.742,4.1618 109.5,1.5 Z"/></g>
<g><path style="opacity:0.623" fill="#00694c" d="M 92.5,3.5 C 94.4672,3.26057 96.3005,3.59391 98,4.5C 97.9858,6.99199 97.8191,9.49199 97.5,12C 95.2305,12.7581 93.0639,12.5914 91,11.5C 92.1794,9.06431 92.6794,6.39764 92.5,3.5 Z M 94.5,8.5 C 96.7602,9.23764 96.9269,10.2376 95,11.5C 94.2496,10.8742 93.4162,10.3742 92.5,10C 93.4158,9.72158 94.0825,9.22158 94.5,8.5 Z"/></g>
<g><path style="opacity:0.532" fill="#00694c" d="M 100.5,4.5 C 106.158,3.67937 107.825,5.84604 105.5,11C 99.741,12.1387 98.0744,9.972 100.5,4.5 Z M 101.5,6.5 C 102.5,6.5 103.5,6.5 104.5,6.5C 104.5,7.5 104.5,8.5 104.5,9.5C 103.5,9.5 102.5,9.5 101.5,9.5C 101.5,8.5 101.5,7.5 101.5,6.5 Z"/></g>
<g><path style="opacity:0.673" fill="#1c8738" d="M 97.5,16.5 C 98.5862,16.62 99.2528,17.2867 99.5,18.5C 98.9773,24.5958 97.9773,30.5958 96.5,36.5C 96.1667,35.8333 95.8333,35.1667 95.5,34.5C 96.3468,28.5181 97.0135,22.5181 97.5,16.5 Z"/></g>
<g><path style="opacity:1" fill="#036a4f" d="M 156.5,93.5 C 156.5,94.8333 156.5,96.1667 156.5,97.5C 156.5,100.167 156.5,102.833 156.5,105.5C 133.833,105.5 111.167,105.5 88.5,105.5C 86.5,105.5 84.5,105.5 82.5,105.5C 77.4281,103.754 72.0947,102.754 66.5,102.5C 62.7329,101.205 58.7329,100.539 54.5,100.5C 45.2201,99.1286 35.8868,97.462 26.5,95.5C 25.791,94.596 24.791,94.2627 23.5,94.5C 31.6008,59.86 53.4342,41.5267 89,39.5C 124.74,41.0836 147.24,59.0836 156.5,93.5 Z"/></g>
<g><path style="opacity:0.461" fill="#eef3f3" d="M 156.5,90.5 C 156.5,91.5 156.5,92.5 156.5,93.5C 147.24,59.0836 124.74,41.0836 89,39.5C 53.4342,41.5267 31.6008,59.86 23.5,94.5C 24.791,94.2627 25.791,94.596 26.5,95.5C 25.1667,95.5 23.8333,95.5 22.5,95.5C 22.5,102.5 22.5,109.5 22.5,116.5C 22.5,117.833 22.5,119.167 22.5,120.5C 17.1182,85.0988 30.4515,59.2654 62.5,43C 96.5313,31.1232 124.698,39.2899 147,67.5C 151.832,74.4999 154.999,82.1666 156.5,90.5 Z"/></g>
<g><path style="opacity:1" fill="#9866bd" d="M 26.5,95.5 C 35.8868,97.462 45.2201,99.1286 54.5,100.5C 58.2095,102.136 62.2095,102.802 66.5,102.5C 71.542,104.42 76.8754,105.42 82.5,105.5C 84.663,106.469 86.9963,107.302 89.5,108C 90.0659,108.995 90.7326,109.828 91.5,110.5C 92.7105,115.251 94.7105,119.584 97.5,123.5C 99.0193,128.872 101.353,133.872 104.5,138.5C 105.71,143.251 107.71,147.584 110.5,151.5C 110.328,152.492 110.662,153.158 111.5,153.5C 112.71,158.251 114.71,162.584 117.5,166.5C 116.878,168.335 115.544,169.502 113.5,170C 81.3023,179.932 54.8023,171.765 34,145.5C 28.4327,136.389 24.5994,126.722 22.5,116.5C 22.5,109.5 22.5,102.5 22.5,95.5C 23.8333,95.5 25.1667,95.5 26.5,95.5 Z"/></g>
<g><path style="opacity:1" fill="#d2cde1" d="M 54.5,100.5 C 58.7329,100.539 62.7329,101.205 66.5,102.5C 62.2095,102.802 58.2095,102.136 54.5,100.5 Z"/></g>
<g><path style="opacity:1" fill="#d0d6df" d="M 66.5,102.5 C 72.0947,102.754 77.4281,103.754 82.5,105.5C 76.8754,105.42 71.542,104.42 66.5,102.5 Z"/></g>
<g><path style="opacity:1" fill="#418f7a" d="M 156.5,97.5 C 157.477,100.287 157.81,103.287 157.5,106.5C 134.327,106.831 111.327,106.498 88.5,105.5C 111.167,105.5 133.833,105.5 156.5,105.5C 156.5,102.833 156.5,100.167 156.5,97.5 Z"/></g>
<g><path style="opacity:1" fill="#f7d9de" d="M 82.5,105.5 C 84.5,105.5 86.5,105.5 88.5,105.5C 111.327,106.498 134.327,106.831 157.5,106.5C 157.5,106.833 157.5,107.167 157.5,107.5C 135.5,107.5 113.5,107.5 91.5,107.5C 91.5,108.5 91.5,109.5 91.5,110.5C 90.7326,109.828 90.0659,108.995 89.5,108C 86.9963,107.302 84.663,106.469 82.5,105.5 Z"/></g>
<g><path style="opacity:1" fill="#ee6a76" d="M 157.5,107.5 C 155.953,134.604 143.286,154.604 119.5,167.5C 118.817,167.137 118.15,166.804 117.5,166.5C 116.29,161.749 114.29,157.416 111.5,153.5C 110.662,153.158 110.328,152.492 110.5,151.5C 109.29,146.749 107.29,142.416 104.5,138.5C 102.956,133.081 100.622,128.081 97.5,123.5C 96.2895,118.749 94.2895,114.416 91.5,110.5C 91.5,109.5 91.5,108.5 91.5,107.5C 113.5,107.5 135.5,107.5 157.5,107.5 Z"/></g>
<g><path style="opacity:1" fill="#eed1e0" d="M 91.5,110.5 C 94.2895,114.416 96.2895,118.749 97.5,123.5C 94.7105,119.584 92.7105,115.251 91.5,110.5 Z"/></g>
<g><path style="opacity:0.437" fill="#f9f3f8" d="M 156.5,90.5 C 162.88,121.519 153.213,146.353 127.5,165C 92.609,183.419 61.7757,178.253 35,149.5C 28.2123,140.972 24.0456,131.306 22.5,120.5C 22.5,119.167 22.5,117.833 22.5,116.5C 24.5994,126.722 28.4327,136.389 34,145.5C 54.8023,171.765 81.3023,179.932 113.5,170C 115.544,169.502 116.878,168.335 117.5,166.5C 118.15,166.804 118.817,167.137 119.5,167.5C 143.286,154.604 155.953,134.604 157.5,107.5C 157.5,107.167 157.5,106.833 157.5,106.5C 157.81,103.287 157.477,100.287 156.5,97.5C 156.5,96.1667 156.5,94.8333 156.5,93.5C 156.5,92.5 156.5,91.5 156.5,90.5 Z"/></g>
<g><path style="opacity:1" fill="#edd2e1" d="M 104.5,138.5 C 107.29,142.416 109.29,146.749 110.5,151.5C 107.71,147.584 105.71,143.251 104.5,138.5 Z"/></g>
<g><path style="opacity:1" fill="#edcfdf" d="M 97.5,123.5 C 100.622,128.081 102.956,133.081 104.5,138.5C 101.353,133.872 99.0193,128.872 97.5,123.5 Z"/></g>
<g><path style="opacity:0.376" fill="#ec6975" d="M 150.5,147.5 C 156.616,151.11 162.616,154.943 168.5,159C 167.5,159.667 166.5,159.667 165.5,159C 160.5,156 155.5,153 150.5,150C 149.402,149.23 149.402,148.397 150.5,147.5 Z"/></g>
<g><path style="opacity:0.662" fill="#ed6975" d="M 187.5,160.5 C 187.384,157.09 189.05,155.756 192.5,156.5C 192.351,157.552 192.517,158.552 193,159.5C 196.744,156.788 197.244,157.288 194.5,161C 197.473,162.224 198.14,164.224 196.5,167C 194.633,167.711 193.133,167.211 192,165.5C 191.107,166.711 190.274,166.711 189.5,165.5C 190.04,164.252 190.707,163.085 191.5,162C 190.099,161.59 188.766,161.09 187.5,160.5 Z"/></g>
<g><path style="opacity:1" fill="#f0d4e1" d="M 111.5,153.5 C 114.29,157.416 116.29,161.749 117.5,166.5C 114.71,162.584 112.71,158.251 111.5,153.5 Z"/></g>
<g><path style="opacity:0.408" fill="#ec6975" d="M 179.5,165.5 C 179.631,166.376 179.298,167.043 178.5,167.5C 176.358,166.399 174.192,165.399 172,164.5C 171.394,162.171 172.06,161.838 174,163.5C 175.059,163.37 175.892,162.87 176.5,162C 173.119,161.818 172.119,160.318 173.5,157.5C 174.807,158.816 176.307,159.816 178,160.5C 178.595,161.899 178.428,163.232 177.5,164.5C 177.957,165.298 178.624,165.631 179.5,165.5 Z"/></g>
<g><path style="opacity:0.791" fill="#ed6974" d="M 187.5,160.5 C 187.279,161.735 186.612,162.735 185.5,163.5C 187.335,164.428 187.668,165.594 186.5,167C 183.829,167.833 181.496,167.333 179.5,165.5C 179.502,161.651 181.335,158.985 185,157.5C 185.852,158.571 186.685,159.571 187.5,160.5 Z M 183.5,161.5 C 183.657,162.873 183.49,164.207 183,165.5C 180.981,163.876 181.148,162.543 183.5,161.5 Z"/></g>
<g><path style="opacity:0.492" fill="#4686f1" d="M 39.5,162.5 C 41.8586,163.389 42.0253,164.722 40,166.5C 36.643,170.356 33.4763,174.356 30.5,178.5C 29.635,179.583 28.635,179.749 27.5,179C 31.7429,173.603 35.7429,168.103 39.5,162.5 Z"/></g>
<g><path style="opacity:0.584" fill="#4686f2" d="M -0.5,183.5 C -0.5,182.833 -0.5,182.167 -0.5,181.5C 0.777652,181.782 1.77765,182.449 2.5,183.5C 2.56598,179.247 4.06598,178.58 7,181.5C 7.66667,183.5 7.66667,185.5 7,187.5C 3.02447,189.037 0.52447,187.703 -0.5,183.5 Z M 2.5,183.5 C 5.48483,182.222 6.15149,183.222 4.5,186.5C 3.08149,185.995 2.41483,184.995 2.5,183.5 Z"/></g>
<g><path style="opacity:0.522" fill="#4686f1" d="M 16.5,182.5 C 17.0715,177.283 18.9048,176.616 22,180.5C 25.1988,179.764 25.3655,180.597 22.5,183C 27.3684,184.443 27.7018,186.61 23.5,189.5C 22.2011,188.91 21.3678,187.91 21,186.5C 18.4503,188.839 17.9503,188.172 19.5,184.5C 18.6431,183.575 17.6431,182.908 16.5,182.5 Z"/></g>
<g><path style="opacity:0.719" fill="#4585f1" d="M 16.5,182.5 C 15.9423,183.79 14.9423,184.623 13.5,185C 14.5,185.833 15.5,186.667 16.5,187.5C 13.9659,188.777 11.4659,188.777 9,187.5C 7.67299,183.496 9.00632,180.829 13,179.5C 14.1739,180.544 15.3406,181.544 16.5,182.5 Z M 11.5,186.5 C 10.1328,184.907 10.4661,183.574 12.5,182.5C 12.8333,182.667 13.1667,182.833 13.5,183C 12.1772,183.816 11.5106,184.983 11.5,186.5 Z"/></g>
</svg>
