<svg width="64" height="24" viewBox="0 0 64 24" fill="none" xmlns="http://www.w3.org/2000/svg">
<g clip-path="url(#clip0_0_1)">
<rect x="0.5" y="0.5" width="63" height="23" rx="11.5" fill="#F5F5F7" stroke="#D0D0D0"/>
</g>
<path d="M16.024 8.352V11.616H19.864V13.104H16.024V16.512H20.344V18H14.2V6.864H20.344V8.352H16.024ZM27.0386 9.04C27.732 9.04 28.3506 9.184 28.8946 9.472C29.4493 9.76 29.8813 10.1867 30.1906 10.752C30.5 11.3173 30.6546 12 30.6546 12.8V18H28.8466V13.072C28.8466 12.2827 28.6493 11.68 28.2546 11.264C27.86 10.8373 27.3213 10.624 26.6386 10.624C25.956 10.624 25.412 10.8373 25.0066 11.264C24.612 11.68 24.4146 12.2827 24.4146 13.072V18H22.5906V9.184H24.4146V10.192C24.7133 9.82933 25.092 9.54667 25.5506 9.344C26.02 9.14133 26.516 9.04 27.0386 9.04Z" fill="#F42A41"/>
<circle cx="52" cy="12" r="10" fill="#F42A41"/>
<defs>
<clipPath id="clip0_0_1">
<rect width="64" height="24" fill="white"/>
</clipPath>
</defs>
</svg>
