<?xml version="1.0" encoding="UTF-8"?>
<!DOCTYPE svg PUBLIC "-//W3C//DTD SVG 1.1//EN" "http://www.w3.org/Graphics/SVG/1.1/DTD/svg11.dtd">
<svg xmlns="http://www.w3.org/2000/svg" version="1.1" width="927px" height="328px" style="shape-rendering:geometricPrecision; text-rendering:geometricPrecision; image-rendering:optimizeQuality; fill-rule:evenodd; clip-rule:evenodd" xmlns:xlink="http://www.w3.org/1999/xlink">
<g><path style="opacity:1" fill="#ecf3f1" d="M 3.5,-0.5 C 309.833,-0.5 616.167,-0.5 922.5,-0.5C 924.167,0.5 925.5,1.83333 926.5,3.5C 926.5,110.167 926.5,216.833 926.5,323.5C 925.5,325.167 924.167,326.5 922.5,327.5C 616.167,327.5 309.833,327.5 3.5,327.5C 1.83333,326.5 0.5,325.167 -0.5,323.5C -0.5,216.833 -0.5,110.167 -0.5,3.5C 0.5,1.83333 1.83333,0.5 3.5,-0.5 Z"/></g>
<g><path style="opacity:1" fill="#225b20" d="M 265.5,20.5 C 265.167,20.5 264.833,20.5 264.5,20.5C 261.404,21.0934 259.071,20.0934 257.5,17.5C 257.833,17.1667 258.167,16.8333 258.5,16.5C 259.287,17.2421 259.953,18.0754 260.5,19C 262.382,19.1981 264.048,19.6981 265.5,20.5 Z"/></g>
<g><path style="opacity:1" fill="#346831" d="M 320.5,20.5 C 322.223,21.8001 324.39,22.4668 327,22.5C 329.167,22.1667 331.333,21.8333 333.5,21.5C 333.376,20.8933 333.043,20.56 332.5,20.5C 329.092,21.172 326.425,20.172 324.5,17.5C 324.833,17.1667 325.167,16.8333 325.5,16.5C 326.287,17.2421 326.953,18.0754 327.5,19C 335.717,21.1353 344.05,21.8019 352.5,21C 350.5,20.6667 348.5,20.3333 346.5,20C 345.483,18.9505 345.316,17.7839 346,16.5C 346.374,17.4162 346.874,18.2496 347.5,19C 354.302,20.8273 361.302,21.994 368.5,22.5C 366.986,26.303 365.986,30.303 365.5,34.5C 364.893,34.3764 364.56,34.0431 364.5,33.5C 365.729,30.8654 365.729,28.1987 364.5,25.5C 363.893,25.6236 363.56,25.9569 363.5,26.5C 360.805,26.5627 359.805,27.5627 360.5,29.5C 359.833,29.5 359.167,29.5 358.5,29.5C 357.226,28.8106 357.226,27.9772 358.5,27C 360.5,26 362.5,25 364.5,24C 359.177,23.5006 353.844,23.334 348.5,23.5C 348.5,26.5 348.5,29.5 348.5,32.5C 353.27,32.1075 354.27,30.1075 351.5,26.5C 353.495,25.1101 354.828,25.6101 355.5,28C 354.592,32.5858 351.926,34.2524 347.5,33C 346.549,29.9433 346.216,26.7766 346.5,23.5C 341.712,24.123 339.879,26.7897 341,31.5C 342.509,32.0897 344.009,32.7564 345.5,33.5C 341.011,35.5249 338.678,34.0249 338.5,29C 338.643,26.849 339.643,25.1824 341.5,24C 337.848,23.5014 334.182,23.3347 330.5,23.5C 330.5,24.8333 330.5,26.1667 330.5,27.5C 332.143,27.5198 333.476,26.8532 334.5,25.5C 337.712,31.8044 335.712,34.3044 328.5,33C 325.509,30.8586 324.342,28.0252 325,24.5C 325.763,27.4695 327.263,29.9695 329.5,32C 333.111,33.2542 334.611,32.0876 334,28.5C 332.644,29.3802 331.144,29.7135 329.5,29.5C 329.5,27.5 329.5,25.5 329.5,23.5C 324.833,23.5 320.167,23.5 315.5,23.5C 315.5,26.5 315.5,29.5 315.5,32.5C 320.27,32.1075 321.27,30.1075 318.5,26.5C 320.438,25.4655 321.772,26.1322 322.5,28.5C 321.398,32.7673 318.731,34.2673 314.5,33C 313.549,29.9433 313.216,26.7766 313.5,23.5C 312.167,23.5 310.833,23.5 309.5,23.5C 309.167,38.1667 308.833,38.1667 308.5,23.5C 305.167,23.5 301.833,23.5 298.5,23.5C 298.5,26.5 298.5,29.5 298.5,32.5C 303.27,32.1075 304.27,30.1075 301.5,26.5C 305.083,25.2704 306.249,26.6038 305,30.5C 299.951,35.1937 296.785,34.1937 295.5,27.5C 294.155,28.3467 293.155,29.5134 292.5,31C 290.597,31.7737 288.93,31.4404 287.5,30C 288.549,29.5078 289.549,29.6744 290.5,30.5C 291.776,25.7361 289.776,23.4028 284.5,23.5C 283.833,38.1667 283.167,38.1667 282.5,23.5C 281.5,23.5 280.5,23.5 279.5,23.5C 279.823,27.226 279.489,30.8927 278.5,34.5C 278.479,29.8121 276.145,27.4787 271.5,27.5C 271.33,28.8221 271.663,29.9887 272.5,31C 269.909,31.3008 269.075,30.1341 270,27.5C 272.132,26.2203 274.298,26.2203 276.5,27.5C 277.429,26.3112 277.762,24.9778 277.5,23.5C 272.489,23.3341 267.489,23.5007 262.5,24C 268.123,25.5267 268.79,28.1933 264.5,32C 266.002,32.5831 267.335,33.4164 268.5,34.5C 268.167,34.8333 267.833,35.1667 267.5,35.5C 264.963,33.7326 262.297,32.2326 259.5,31C 261.167,30.6667 262.833,30.3333 264.5,30C 265.337,28.9887 265.67,27.8221 265.5,26.5C 263.533,26.2606 261.699,26.5939 260,27.5C 259.508,26.451 259.674,25.451 260.5,24.5C 260.043,23.7025 259.376,23.3691 258.5,23.5C 261.159,23.0826 263.492,22.0826 265.5,20.5C 266.167,20.5 266.5,20.8333 266.5,21.5C 271.64,22.4881 276.974,22.8214 282.5,22.5C 282.5,21.5 282.5,20.5 282.5,19.5C 285.828,15.6958 289.494,15.5291 293.5,19C 291.51,18.8621 289.51,18.3621 287.5,17.5C 285.603,17.7282 284.27,18.7282 283.5,20.5C 289.807,21.6639 296.141,21.8306 302.5,21C 300.5,20.6667 298.5,20.3333 296.5,20C 295.483,18.9505 295.316,17.7839 296,16.5C 296.374,17.4162 296.874,18.2496 297.5,19C 299.5,19.3333 301.5,19.6667 303.5,20C 304.308,21.7058 305.641,22.5391 307.5,22.5C 307.867,16.8442 310.867,15.0109 316.5,17C 318.324,17.66 319.657,18.8267 320.5,20.5 Z"/></g>
<g><path style="opacity:1" fill="#bdd0c0" d="M 309.5,18.5 C 312.694,19.7084 316.027,20.7084 319.5,21.5C 316.216,22.657 312.882,22.8236 309.5,22C 308.316,20.8545 308.316,19.6879 309.5,18.5 Z"/></g>
<g><path style="opacity:1" fill="#7ea07f" d="M 26.5,20.5 C 33.5999,21.134 40.5999,21.8007 47.5,22.5C 40.0869,23.1279 33.0869,22.4612 26.5,20.5 Z"/></g>
<g><path style="opacity:1" fill="#86a687" d="M 68.5,21.5 C 63.2599,22.4491 57.9265,22.7825 52.5,22.5C 57.368,21.7875 62.368,21.1208 67.5,20.5C 68.1067,20.6236 68.44,20.9569 68.5,21.5 Z"/></g>
<g><path style="opacity:1" fill="#7ea17f" d="M 89.5,19.5 C 89.5,20.5 89.5,21.5 89.5,22.5C 86.1667,22.5 82.8333,22.5 79.5,22.5C 82.963,21.9885 86.2963,20.9885 89.5,19.5 Z"/></g>
<g><path style="opacity:1" fill="#396c36" d="M 152.5,26.5 C 150.876,26.3601 149.71,27.0267 149,28.5C 148.405,27.1011 148.572,25.7678 149.5,24.5C 148.311,23.5713 146.978,23.238 145.5,23.5C 145.153,37.1913 144.32,37.5247 143,24.5C 141.989,23.6634 140.822,23.33 139.5,23.5C 139.48,25.143 140.147,26.4763 141.5,27.5C 140.132,28.5937 138.965,28.2603 138,26.5C 137.035,28.2603 135.868,28.5937 134.5,27.5C 135.853,26.4763 136.52,25.143 136.5,23.5C 134.833,23.5 133.167,23.5 131.5,23.5C 131.823,27.226 131.489,30.8927 130.5,34.5C 130.014,30.303 129.014,26.303 127.5,22.5C 131.002,15.5269 135.669,14.6936 141.5,20C 139.721,19.956 138.055,19.2893 136.5,18C 132.652,17.0134 130.652,18.5134 130.5,22.5C 133.119,22.2317 135.619,22.565 138,23.5C 139.194,21.4746 140.694,21.1413 142.5,22.5C 143.192,21.9747 143.692,21.3081 144,20.5C 156.438,21.1576 168.938,21.8243 181.5,22.5C 179.577,23.3078 177.577,23.8078 175.5,24C 179.461,24.6078 180.961,26.7744 180,30.5C 179.107,31.7112 178.274,31.7112 177.5,30.5C 180.18,27.853 179.513,26.5196 175.5,26.5C 175.813,29.2469 175.48,31.9135 174.5,34.5C 172.116,32.1153 169.45,30.1153 166.5,28.5C 168.457,26.5152 170.79,25.0152 173.5,24C 168.798,23.1717 164.131,23.3384 159.5,24.5C 160.914,25.624 162.414,26.624 164,27.5C 164.757,30.9143 163.59,31.9143 160.5,30.5C 163.229,28.6329 162.896,27.6329 159.5,27.5C 159.808,29.924 159.474,32.2573 158.5,34.5C 157.5,32.8333 156.167,31.5 154.5,30.5C 153.833,31.1667 153.167,31.8333 152.5,32.5C 152.167,32.1667 151.833,31.8333 151.5,31.5C 152.309,29.9291 152.643,28.2624 152.5,26.5 Z"/></g>
<g><path style="opacity:1" fill="#2c6228" d="M 249.5,20.5 C 250.643,20.9081 251.643,21.5748 252.5,22.5C 250.83,26.2581 249.997,30.2581 250,34.5C 249.667,31.8333 249.333,29.1667 249,26.5C 247.041,23.2108 244.875,22.8775 242.5,25.5C 243.09,26.7989 244.09,27.6322 245.5,28C 242.77,28.9415 241.437,27.9415 241.5,25C 243.556,20.553 246.056,20.3864 249,24.5C 249.49,23.2068 249.657,21.8734 249.5,20.5 Z"/></g>
<g><path style="opacity:1" fill="#7ca07d" d="M 264.5,20.5 C 264.833,20.5 265.167,20.5 265.5,20.5C 263.492,22.0826 261.159,23.0826 258.5,23.5C 257.957,23.44 257.624,23.1067 257.5,22.5C 259.969,21.8319 262.302,21.1653 264.5,20.5 Z"/></g>
<g><path style="opacity:1" fill="#7ea07e" d="M 282.5,19.5 C 282.5,20.5 282.5,21.5 282.5,22.5C 276.974,22.8214 271.64,22.4881 266.5,21.5C 272.135,22.0366 277.468,21.3699 282.5,19.5 Z"/></g>
<g><path style="opacity:1" fill="#7c9f7d" d="M 320.5,20.5 C 324.601,21.7908 328.601,21.7908 332.5,20.5C 333.043,20.56 333.376,20.8933 333.5,21.5C 331.333,21.8333 329.167,22.1667 327,22.5C 324.39,22.4668 322.223,21.8001 320.5,20.5 Z"/></g>
<g><path style="opacity:1" fill="#85a686" d="M 423.5,21.5 C 418.595,22.4454 413.595,22.7787 408.5,22.5C 413.034,21.7841 417.701,21.1175 422.5,20.5C 423.107,20.6236 423.44,20.9569 423.5,21.5 Z"/></g>
<g><path style="opacity:1" fill="#2d632a" d="M 408.5,22.5 C 413.595,22.7787 418.595,22.4454 423.5,21.5C 426.518,21.6646 429.518,21.498 432.5,21C 429.443,21.1069 427.109,19.9402 425.5,17.5C 425.833,17.1667 426.167,16.8333 426.5,16.5C 427.412,18.7431 429.078,19.7431 431.5,19.5C 434.012,19.0058 436.345,18.0058 438.5,16.5C 438.833,16.6667 439.167,16.8333 439.5,17C 437.673,17.8993 436.34,19.2326 435.5,21C 435.905,21.9454 436.572,22.6121 437.5,23C 434.854,23.4974 432.187,23.6641 429.5,23.5C 429.5,26.5 429.5,29.5 429.5,32.5C 434.27,32.1075 435.27,30.1075 432.5,26.5C 433.274,25.2888 434.107,25.2888 435,26.5C 436.167,32 434,34.1667 428.5,33C 427.549,29.9433 427.216,26.7766 427.5,23.5C 426.167,23.5 424.833,23.5 423.5,23.5C 423.665,27.1817 423.499,30.8484 423,34.5C 422.793,30.9106 422.293,27.4106 421.5,24C 418.5,23.3333 415.5,23.3333 412.5,24C 413.949,25.117 415.616,25.7837 417.5,26C 419.333,32.1667 417.167,34.3333 411,32.5C 410.95,28.8433 410.117,25.51 408.5,22.5 Z"/></g>
<g><path style="opacity:1" fill="#2b6127" d="M 68.5,21.5 C 68.9175,22.2216 69.5842,22.7216 70.5,23C 68.7815,26.5103 67.9481,30.3436 68,34.5C 67.6667,31.1667 67.3333,27.8333 67,24.5C 65.9887,23.6634 64.8221,23.33 63.5,23.5C 63.8226,27.226 63.4892,30.8927 62.5,34.5C 61.5017,30.4577 59.1684,29.1244 55.5,30.5C 56.1667,31.1667 56.8333,31.8333 57.5,32.5C 55.4609,33.3589 54.1275,32.5256 53.5,30C 54.5089,28.8319 55.5089,27.6652 56.5,26.5C 55.1335,25.16 53.8001,23.8267 52.5,22.5C 57.9265,22.7825 63.2599,22.4491 68.5,21.5 Z"/></g>
<g><path style="opacity:1" fill="#3a6c36" d="M 79.5,22.5 C 82.8333,22.5 86.1667,22.5 89.5,22.5C 89.5,21.5 89.5,20.5 89.5,19.5C 90.3915,17.2858 92.0582,16.2858 94.5,16.5C 97.5277,16.8473 100.194,18.014 102.5,20C 99.8355,19.5203 97.1688,18.687 94.5,17.5C 92.6031,17.7282 91.2697,18.7282 90.5,20.5C 101.167,21.1667 111.833,21.8333 122.5,22.5C 120.577,23.3078 118.577,23.8078 116.5,24C 119.093,24.6063 120.76,26.1063 121.5,28.5C 121.141,31.2817 119.808,31.9483 117.5,30.5C 120.133,29.1156 120.133,27.7822 117.5,26.5C 116.833,29.1667 116.167,31.8333 115.5,34.5C 113.116,32.1153 110.45,30.1153 107.5,28.5C 109.457,26.5152 111.79,25.0152 114.5,24C 111.183,23.5017 107.85,23.335 104.5,23.5C 104.823,27.226 104.489,30.8927 103.5,34.5C 102.502,30.4577 100.168,29.1244 96.5,30.5C 96.9767,31.4776 97.6433,32.3109 98.5,33C 96.5269,33.5378 95.5269,32.7044 95.5,30.5C 98.6373,25.9305 97.304,23.5972 91.5,23.5C 90.8333,38.1667 90.1667,38.1667 89.5,23.5C 88.5,23.5 87.5,23.5 86.5,23.5C 86.665,26.8499 86.4983,30.1832 86,33.5C 85.0347,35.2603 83.868,35.5937 82.5,34.5C 84.0555,31.17 85.0555,27.67 85.5,24C 83.8659,23.5065 82.1992,23.3398 80.5,23.5C 80.8226,27.226 80.4892,30.8927 79.5,34.5C 77.2297,32.0252 74.563,30.0252 71.5,28.5C 71.9767,27.5224 72.6433,26.6891 73.5,26C 72.269,24.8173 72.269,23.6507 73.5,22.5C 76.7876,21.4616 77.1209,22.1282 74.5,24.5C 76.9305,25.7856 78.5972,25.119 79.5,22.5 Z"/></g>
<g><path style="opacity:1" fill="#386a34" d="M 387.5,22.5 C 387.5,22.8333 387.5,23.1667 387.5,23.5C 386.167,23.5 384.833,23.5 383.5,23.5C 383.823,27.226 383.489,30.8927 382.5,34.5C 380.23,32.0252 377.563,30.0252 374.5,28.5C 376.677,26.242 379.343,24.742 382.5,24C 379.447,23.8214 376.447,23.3214 373.5,22.5C 378.216,21.2254 382.883,21.2254 387.5,22.5 Z"/></g>
<g><path style="opacity:1" fill="#e5eee9" d="M 56.5,24.5 C 57.9187,23.5489 59.5853,23.2155 61.5,23.5C 61.6621,25.5273 61.4955,27.5273 61,29.5C 59.483,27.7605 57.983,26.0938 56.5,24.5 Z"/></g>
<g><path style="opacity:1" fill="#e2ece6" d="M 97.5,24.5 C 98.9187,23.5489 100.585,23.2155 102.5,23.5C 102.662,25.5273 102.495,27.5273 102,29.5C 100.483,27.7605 98.983,26.0938 97.5,24.5 Z"/></g>
<g><path style="opacity:1" fill="#e6eeea" d="M 155.5,24.5 C 156.077,23.2267 156.743,23.2267 157.5,24.5C 157.03,25.463 156.363,25.463 155.5,24.5 Z"/></g>
<g><path style="opacity:1" fill="#3c6e38" d="M 230.5,30.5 C 228.876,30.3601 227.71,31.0267 227,32.5C 226.805,30.7928 226.805,29.1261 227,27.5C 225.594,26.3318 224.428,26.6652 223.5,28.5C 222.406,27.132 222.74,25.9653 224.5,25C 223.095,23.7308 221.429,23.2308 219.5,23.5C 219.153,37.1913 218.32,37.5247 217,24.5C 215.989,23.6634 214.822,23.33 213.5,23.5C 213.5,24.5 213.5,25.5 213.5,26.5C 214.675,26.281 215.675,26.6143 216.5,27.5C 216,27.8333 215.5,28.1667 215,28.5C 213.333,27.1667 211.667,27.1667 210,28.5C 209.5,28.1667 209,27.8333 208.5,27.5C 209.325,26.6143 210.325,26.281 211.5,26.5C 211.5,25.5 211.5,24.5 211.5,23.5C 209.5,23.5 207.5,23.5 205.5,23.5C 205.167,38.1667 204.833,38.1667 204.5,23.5C 203.167,23.5 201.833,23.5 200.5,23.5C 200.824,27.5546 200.491,31.5546 199.5,35.5C 196.422,33.8701 193.089,33.0368 189.5,33C 188.446,31.6124 188.28,30.1124 189,28.5C 189.309,29.7659 189.809,30.9326 190.5,32C 193.146,32.4974 195.813,32.6641 198.5,32.5C 198.799,30.396 198.466,28.396 197.5,26.5C 195.833,27.8333 194.167,29.1667 192.5,30.5C 191.571,29.3112 191.238,27.9778 191.5,26.5C 187.865,26.3444 187.532,25.1777 190.5,23C 192.861,20.8911 194.861,21.0578 196.5,23.5C 197.859,22.9935 198.859,21.9935 199.5,20.5C 200.167,20.8333 200.833,21.1667 201.5,21.5C 205.877,15.4239 210.877,14.9239 216.5,20C 213.911,19.6321 211.411,18.7987 209,17.5C 204.402,18.4495 203.902,19.7829 207.5,21.5C 211.421,23.0301 215.087,22.6967 218.5,20.5C 225.808,21.1349 233.141,21.8016 240.5,22.5C 238.167,23.1667 235.833,23.8333 233.5,24.5C 235.567,25.1341 237.4,26.1341 239,27.5C 239.757,30.9143 238.59,31.9143 235.5,30.5C 238.229,28.6329 237.896,27.6329 234.5,27.5C 235.081,34.4411 233.747,35.4411 230.5,30.5 Z"/></g>
<g><path style="opacity:1" fill="#c6d7c9" d="M 196.5,23.5 C 196.315,25.1958 195.481,26.5291 194,27.5C 193.228,26.1509 192.061,25.3176 190.5,25C 192.25,23.6814 194.25,23.1814 196.5,23.5 Z"/></g>
<g><path style="opacity:1" fill="#d4e1d8" d="M 230.5,30.5 C 229.581,27.9108 227.914,25.9108 225.5,24.5C 226,24.1667 226.5,23.8333 227,23.5C 228.244,25.5764 230.077,26.5764 232.5,26.5C 232.843,28.4832 232.176,29.8166 230.5,30.5 Z"/></g>
<g><path style="opacity:1" fill="#d7e3db" d="M 230.5,23.5 C 232.337,23.6395 232.67,24.3061 231.5,25.5C 230.702,25.0431 230.369,24.3764 230.5,23.5 Z"/></g>
<g><path style="opacity:1" fill="#e9f1ee" d="M 291.5,24.5 C 293.035,23.2121 294.701,23.2121 296.5,24.5C 294.389,26.5397 292.722,26.5397 291.5,24.5 Z"/></g>
<g><path style="opacity:1" fill="#336831" d="M 403.5,22.5 C 401.994,26.2347 400.994,30.2347 400.5,34.5C 398.116,32.1153 395.45,30.1153 392.5,28.5C 394.457,26.5152 396.79,25.0152 399.5,24C 396.183,23.5017 392.85,23.335 389.5,23.5C 393.396,22.4993 398.063,22.166 403.5,22.5 Z"/></g>
<g><path style="opacity:1" fill="#588457" d="M 403.5,22.5 C 398.063,22.166 393.396,22.4993 389.5,23.5C 388.833,38.1667 388.167,38.1667 387.5,23.5C 387.5,23.1667 387.5,22.8333 387.5,22.5C 387.369,21.6236 387.702,20.9569 388.5,20.5C 393.632,21.1208 398.632,21.7875 403.5,22.5 Z"/></g>
<g><path style="opacity:1" fill="#dbe7df" d="M 76.5,26.5 C 77.5,26.5 78.5,26.5 79.5,26.5C 79.6602,28.1992 79.4935,29.8659 79,31.5C 77.5905,30.2125 76.0905,29.0458 74.5,28C 75.4158,27.7216 76.0825,27.2216 76.5,26.5 Z"/></g>
<g><path style="opacity:1" fill="#dce7e0" d="M 111.5,26.5 C 112.5,26.5 113.5,26.5 114.5,26.5C 114.66,28.1992 114.494,29.8659 114,31.5C 112.59,30.2125 111.09,29.0458 109.5,28C 110.416,27.7216 111.082,27.2216 111.5,26.5 Z"/></g>
<g><path style="opacity:1" fill="#d9e5dd" d="M 152.5,26.5 C 149.693,23.9557 150.36,22.9557 154.5,23.5C 154.461,25.3588 155.294,26.6921 157,27.5C 157.667,28.5 157.667,29.5 157,30.5C 155.306,29.3012 153.806,27.9678 152.5,26.5 Z"/></g>
<g><path style="opacity:1" fill="#dee9e2" d="M 171.5,26.5 C 172.586,26.62 173.253,27.2867 173.5,28.5C 172.515,30.7515 171.182,30.7515 169.5,28.5C 170.243,27.8182 170.909,27.1515 171.5,26.5 Z"/></g>
<g><path style="opacity:1" fill="#d8e4dc" d="M 363.5,26.5 C 364.782,27.7082 364.782,29.0416 363.5,30.5C 362.583,29.8728 361.583,29.5394 360.5,29.5C 359.805,27.5627 360.805,26.5627 363.5,26.5 Z"/></g>
<g><path style="opacity:1" fill="#d8e4dc" d="M 381.5,25.5 C 383.602,32.1252 382.269,32.9586 377.5,28C 379.066,27.3918 380.4,26.5585 381.5,25.5 Z"/></g>
<g><path style="opacity:1" fill="#dbe7df" d="M 396.5,26.5 C 397.5,26.5 398.5,26.5 399.5,26.5C 399.443,31.1989 397.776,31.6989 394.5,28C 395.416,27.7216 396.082,27.2216 396.5,26.5 Z"/></g>
<g><path style="opacity:1" fill="#e1ebe5" d="M 412.5,26.5 C 414.042,27.3007 415.708,27.634 417.5,27.5C 417.5,30.8333 415.833,32.5 412.5,32.5C 412.5,30.5 412.5,28.5 412.5,26.5 Z"/></g>
<g><path style="opacity:1" fill="#578255" d="M 363.5,26.5 C 363.56,25.9569 363.893,25.6236 364.5,25.5C 365.729,28.1987 365.729,30.8654 364.5,33.5C 362.728,31.7104 360.728,30.3771 358.5,29.5C 359.167,29.5 359.833,29.5 360.5,29.5C 361.583,29.5394 362.583,29.8728 363.5,30.5C 364.782,29.0416 364.782,27.7082 363.5,26.5 Z"/></g>
<g><path style="opacity:1" fill="#346831" d="M 26.5,20.5 C 33.0869,22.4612 40.0869,23.1279 47.5,22.5C 45.0314,23.3171 42.3647,23.8171 39.5,24C 40.9494,25.117 42.6161,25.7837 44.5,26C 47.2341,30.001 46.0675,32.501 41,33.5C 38.1071,32.2518 35.1071,31.2518 32,30.5C 31.5034,28.1902 31.3367,25.8568 31.5,23.5C 28.5,23.5 25.5,23.5 22.5,23.5C 22.5,24.8333 22.5,26.1667 22.5,27.5C 27.8975,24.3798 29.7308,26.0464 28,32.5C 21.1624,34.9812 17.4957,32.6478 17,25.5C 18.2515,27.0009 19.2515,28.6675 20,30.5C 21.7328,32.6015 23.7328,32.9348 26,31.5C 26.6667,30.5 26.6667,29.5 26,28.5C 24.6439,29.3802 23.1439,29.7135 21.5,29.5C 21.5,27.5 21.5,25.5 21.5,23.5C 19.396,23.7989 17.396,23.4656 15.5,22.5C 18.7848,21.6764 22.1182,21.1764 25.5,21C 23.1667,20.6667 20.8333,20.3333 18.5,20C 17.4829,18.9505 17.3162,17.7839 18,16.5C 18.3742,17.4162 18.8742,18.2496 19.5,19C 22.0356,19.1862 24.369,19.6862 26.5,20.5 Z"/></g>
<g><path style="opacity:1" fill="#e4ede9" d="M 39.5,26.5 C 41.0418,27.3007 42.7085,27.634 44.5,27.5C 44.5,30.8333 42.8333,32.5 39.5,32.5C 39.5,30.5 39.5,28.5 39.5,26.5 Z"/></g>
<g><path style="opacity:1" fill="#e0eae4" d="M 33.5,26.5 C 34.8333,26.5 36.1667,26.5 37.5,26.5C 37.8333,29.5 36.5,30.8333 33.5,30.5C 33.5,29.1667 33.5,27.8333 33.5,26.5 Z"/></g>
<g><path style="opacity:1" fill="#d9e5dd" d="M 33.5,24.5 C 34.7082,23.218 36.0416,23.218 37.5,24.5C 36.1916,25.6256 34.8583,25.6256 33.5,24.5 Z"/></g>
<g><path style="opacity:1" fill="#40713e" d="M 359.5,32.5 C 361.337,32.6395 361.67,33.3061 360.5,34.5C 359.702,34.0431 359.369,33.3764 359.5,32.5 Z"/></g>
<g><path style="opacity:1" fill="#5e875c" d="M 393.5,32.5 C 394.675,32.281 395.675,32.6143 396.5,33.5C 394.948,34.7979 393.948,34.4646 393.5,32.5 Z"/></g>
<g><path style="opacity:1" fill="#838685" d="M 872.5,36.5 C 873.002,34.9153 874.002,34.4153 875.5,35C 874.756,36.0386 873.756,36.5386 872.5,36.5 Z"/></g>
<g><path style="opacity:1" fill="#888c8a" d="M 872.5,36.5 C 873.036,39.3852 872.87,42.3852 872,45.5C 870.414,44.624 868.914,43.624 867.5,42.5C 868.872,40.3802 868.205,39.3802 865.5,39.5C 865.167,47.5 864.833,47.5 864.5,39.5C 863.448,39.3505 862.448,39.5172 861.5,40C 862.731,41.1827 862.731,42.3493 861.5,43.5C 861.483,42.6063 861.149,41.6063 860.5,40.5C 859.762,38.2398 858.762,38.0731 857.5,40C 858.791,41.2917 858.791,42.4583 857.5,43.5C 854.269,42.9022 853.936,41.7356 856.5,40C 855.376,39.7508 854.376,39.2508 853.5,38.5C 859.853,37.755 866.186,37.0884 872.5,36.5 Z"/></g>
<g><path style="opacity:1" fill="#3c80b5" d="M 821.5,38.5 C 829.196,38.1692 836.862,38.5025 844.5,39.5C 845.747,41.0421 845.747,42.5421 844.5,44C 836.833,44.6667 829.167,44.6667 821.5,44C 820.248,42.1722 820.248,40.3388 821.5,38.5 Z"/></g>
<g><path style="opacity:1" fill="#828484" d="M 875.5,37.5 C 876.75,37.5774 877.583,38.244 878,39.5C 878.5,39 879,38.5 879.5,38C 884.201,37.6251 888.701,37.4584 893,37.5C 893.667,40.1667 893.667,42.8333 893,45.5C 892.129,37.5762 890.962,37.5762 889.5,45.5C 887.972,44.1387 886.305,42.972 884.5,42C 887.332,40.0924 886.999,39.259 883.5,39.5C 882.984,47.474 882.151,47.474 881,39.5C 880.808,41.5767 880.308,43.5767 879.5,45.5C 878.086,44.376 876.586,43.376 875,42.5C 875.019,40.8925 875.185,39.2259 875.5,37.5 Z"/></g>
<g><path style="opacity:1" fill="#474848" d="M 860.5,40.5 C 859.698,41.9516 859.198,43.6183 859,45.5C 858.283,44.9558 857.783,44.2891 857.5,43.5C 858.791,42.4583 858.791,41.2917 857.5,40C 858.762,38.0731 859.762,38.2398 860.5,40.5 Z"/></g>
<g><path style="opacity:1" fill="#949796" d="M 853.5,67.5 C 857.226,67.1774 860.893,67.5108 864.5,68.5C 863.94,70.8537 863.273,73.187 862.5,75.5C 861.522,75.0233 860.689,74.3567 860,73.5C 855.623,74.3028 853.457,72.3028 853.5,67.5 Z"/></g>
<g><path style="opacity:1" fill="#76a23a" d="M 822.5,68.5 C 829.863,68.1694 837.197,68.5027 844.5,69.5C 845.747,71.0421 845.747,72.5421 844.5,74C 836.833,74.6667 829.167,74.6667 821.5,74C 820.156,71.8564 820.49,70.0231 822.5,68.5 Z"/></g>
<g><path style="opacity:1" fill="#7a7d7c" d="M 886.5,73.5 C 885.034,72.653 884.2,71.3197 884,69.5C 883.129,77.4238 881.962,77.4238 880.5,69.5C 879.692,71.4233 879.192,73.4233 879,75.5C 878.667,73.8333 878.333,72.1667 878,70.5C 877.632,71.91 876.799,72.91 875.5,73.5C 876.017,71.9815 875.35,70.6482 873.5,69.5C 874.62,67.4038 876.12,67.0705 878,68.5C 879.771,67.6959 881.271,66.5292 882.5,65C 884.167,64.3333 885.833,64.3333 887.5,65C 888.851,66.6171 890.518,67.7838 892.5,68.5C 891.894,70.7094 891.227,72.876 890.5,75C 888.648,75.7726 887.314,75.2726 886.5,73.5 Z"/></g>
<g><path style="opacity:1" fill="#e5ecea" d="M 886.5,73.5 C 885.708,72.0331 885.708,70.6998 886.5,69.5C 887.197,71.3845 888.197,71.7178 889.5,70.5C 890.386,71.325 890.719,72.325 890.5,73.5C 889.167,73.5 887.833,73.5 886.5,73.5 Z"/></g>
<g><path style="opacity:1" fill="#eaf1ef" d="M 883.5,65.5 C 885.103,65.3118 886.437,65.8118 887.5,67C 885.833,67.6667 884.167,67.6667 882.5,67C 883.056,66.6174 883.389,66.1174 883.5,65.5 Z"/></g>
<g><path style="opacity:1" fill="#838685" d="M 867.5,67.5 C 869.225,68.278 870.891,68.6114 872.5,68.5C 871.626,70.7466 871.292,73.0799 871.5,75.5C 869.208,75.7564 867.041,75.4231 865,74.5C 864.386,72.6866 864.719,72.3533 866,73.5C 866.833,72.6667 867.667,71.8333 868.5,71C 865.046,70.3716 864.713,69.2049 867.5,67.5 Z"/></g>
<g><path style="opacity:1" fill="#7a7c7b" d="M 27.5,118.5 C 31.6518,118.631 32.3185,120.131 29.5,123C 30.3081,123.308 30.9747,123.808 31.5,124.5C 25.3445,125.946 24.0112,123.946 27.5,118.5 Z"/></g>
<g><path style="opacity:1" fill="#6d6f6e" d="M 22.5,124.5 C 21.3159,122.537 20.4826,120.537 20,118.5C 21,119.5 22,120.5 23,121.5C 23.7401,122.749 23.5735,123.749 22.5,124.5 Z"/></g>
<g><path style="opacity:1" fill="#e9f0ee" d="M 28.5,119.5 C 29.0431,119.56 29.3764,119.893 29.5,120.5C 28.9017,121.795 28.4017,123.128 28,124.5C 26.198,122.727 26.3647,121.06 28.5,119.5 Z"/></g>
<g><path style="opacity:1" fill="#5a5b5b" d="M 44.5,270.5 C 44.1667,271.833 43.8333,271.833 43.5,270.5C 43.5,258.5 43.5,246.5 43.5,234.5C 35.5,234.167 35.5,233.833 43.5,233.5C 43.5,221.167 43.5,208.833 43.5,196.5C 41.4727,196.662 39.4727,196.495 37.5,196C 39.1341,195.506 40.8008,195.34 42.5,195.5C 43.8333,170.833 43.8333,146.167 42.5,121.5C 40.712,121.785 39.0453,121.452 37.5,120.5C 39.6948,119.231 41.8615,119.231 44,120.5C 44.5,170.499 44.6667,220.499 44.5,270.5 Z"/></g>
<g><path style="opacity:1" fill="#5b5c5b" d="M 22.5,124.5 C 21.791,125.404 20.791,125.737 19.5,125.5C 19.3505,124.448 19.5172,123.448 20,122.5C 20.4169,123.756 21.2502,124.423 22.5,124.5 Z"/></g>
<g><path style="opacity:1" fill="#086dab" d="M 400.5,270.5 C 392.833,271.833 385.167,271.833 377.5,270.5C 377.5,225.167 377.5,179.833 377.5,134.5C 385.167,134.5 392.833,134.5 400.5,134.5C 400.5,179.833 400.5,225.167 400.5,270.5 Z"/></g>
<g><path style="opacity:1" fill="#086dab" d="M 73.5,270.5 C 65.8333,271.833 58.1667,271.833 50.5,270.5C 50.5,226.167 50.5,181.833 50.5,137.5C 58.1667,137.5 65.8333,137.5 73.5,137.5C 73.5,181.833 73.5,226.167 73.5,270.5 Z"/></g>
<g><path style="opacity:1" fill="#619516" d="M 820.5,270.5 C 812.833,271.833 805.167,271.833 797.5,270.5C 797.5,231.5 797.5,192.5 797.5,153.5C 805.167,153.5 812.833,153.5 820.5,153.5C 820.5,192.5 820.5,231.5 820.5,270.5 Z"/></g>
<g><path style="opacity:1" fill="#757877" d="M 22.5,157.5 C 19.9236,157.278 19.0902,155.945 20,153.5C 20.6622,154.984 21.4955,156.317 22.5,157.5 Z"/></g>
<g><path style="opacity:1" fill="#787a7a" d="M 29.5,158.5 C 28.0466,157.067 27.2133,155.4 27,153.5C 30.1013,154.362 30.9346,156.028 29.5,158.5 Z"/></g>
<g><path style="opacity:1" fill="#6c6e6d" d="M 29.5,158.5 C 30.463,159.363 30.463,160.03 29.5,160.5C 25.6607,159.279 25.6607,158.612 29.5,158.5 Z"/></g>
<g><path style="opacity:1" fill="#d3d9d7" d="M 42.5,121.5 C 43.8333,146.167 43.8333,170.833 42.5,195.5C 42.5,183.5 42.5,171.5 42.5,159.5C 35.8333,158.833 35.8333,158.167 42.5,157.5C 42.5,145.5 42.5,133.5 42.5,121.5 Z"/></g>
<g><path style="opacity:1" fill="#7e8180" d="M 22.5,157.5 C 24.0348,160.33 23.0348,161.663 19.5,161.5C 19.4125,158.402 19.9125,158.068 21,160.5C 22.0386,159.756 22.5386,158.756 22.5,157.5 Z"/></g>
<g><path style="opacity:1" fill="#619516" d="M 362.5,270.5 C 354.833,271.833 347.167,271.833 339.5,270.5C 339.5,234.167 339.5,197.833 339.5,161.5C 347.167,161.5 354.833,161.5 362.5,161.5C 362.5,197.833 362.5,234.167 362.5,270.5 Z"/></g>
<g><path style="opacity:1" fill="#5f9512" d="M 143.5,163.5 C 150.833,163.5 158.167,163.5 165.5,163.5C 165.5,199.5 165.5,235.5 165.5,271.5C 157.981,271.825 150.648,271.492 143.5,270.5C 143.5,234.833 143.5,199.167 143.5,163.5 Z"/></g>
<g><path style="opacity:1" fill="#95b866" d="M 143.5,163.5 C 150.982,162.508 158.648,162.175 166.5,162.5C 166.5,198.5 166.5,234.5 166.5,270.5C 166.5,271.167 166.167,271.5 165.5,271.5C 165.5,235.5 165.5,199.5 165.5,163.5C 158.167,163.5 150.833,163.5 143.5,163.5 Z"/></g>
<g><path style="opacity:1" fill="#086dab" d="M 596.5,270.5 C 588.833,271.833 581.167,271.833 573.5,270.5C 573.5,235.833 573.5,201.167 573.5,166.5C 581.167,166.5 588.833,166.5 596.5,166.5C 596.5,201.167 596.5,235.833 596.5,270.5 Z"/></g>
<g><path style="opacity:1" fill="#619516" d="M 754.5,270.5 C 746.833,271.833 739.167,271.833 731.5,270.5C 731.5,237.833 731.5,205.167 731.5,172.5C 739.167,172.5 746.833,172.5 754.5,172.5C 754.5,205.167 754.5,237.833 754.5,270.5 Z"/></g>
<g><path style="opacity:1" fill="#65981f" d="M 297.5,270.5 C 289.5,271.833 281.5,271.833 273.5,270.5C 273.5,239.5 273.5,208.5 273.5,177.5C 281.5,177.5 289.5,177.5 297.5,177.5C 297.5,208.5 297.5,239.5 297.5,270.5 Z"/></g>
<g><path style="opacity:1" fill="#076cab" d="M 181.5,182.5 C 188.833,182.5 196.167,182.5 203.5,182.5C 203.5,212.167 203.5,241.833 203.5,271.5C 195.981,271.825 188.648,271.492 181.5,270.5C 181.5,241.167 181.5,211.833 181.5,182.5 Z"/></g>
<g><path style="opacity:1" fill="#408fbc" d="M 181.5,182.5 C 188.982,181.508 196.648,181.175 204.5,181.5C 204.5,211.167 204.5,240.833 204.5,270.5C 204.5,271.167 204.167,271.5 203.5,271.5C 203.5,241.833 203.5,212.167 203.5,182.5C 196.167,182.5 188.833,182.5 181.5,182.5 Z"/></g>
<g><path style="opacity:1" fill="#78aecd" d="M 793.5,270.5 C 793.5,271.167 793.167,271.5 792.5,271.5C 792.5,241.833 792.5,212.167 792.5,182.5C 785.167,182.5 777.833,182.5 770.5,182.5C 770.5,212.167 770.5,241.833 770.5,271.5C 769.833,271.5 769.5,271.167 769.5,270.5C 769.5,240.833 769.5,211.167 769.5,181.5C 777.5,181.5 785.5,181.5 793.5,181.5C 793.5,211.167 793.5,240.833 793.5,270.5 Z"/></g>
<g><path style="opacity:1" fill="#076cab" d="M 792.5,271.5 C 785.167,271.5 777.833,271.5 770.5,271.5C 770.5,241.833 770.5,212.167 770.5,182.5C 777.833,182.5 785.167,182.5 792.5,182.5C 792.5,212.167 792.5,241.833 792.5,271.5 Z"/></g>
<g><path style="opacity:1" fill="#076cab" d="M 508.5,188.5 C 515.833,188.5 523.167,188.5 530.5,188.5C 530.5,216.167 530.5,243.833 530.5,271.5C 522.981,271.825 515.648,271.492 508.5,270.5C 508.5,243.167 508.5,215.833 508.5,188.5 Z"/></g>
<g><path style="opacity:1" fill="#5e9fc5" d="M 508.5,188.5 C 515.982,187.508 523.648,187.175 531.5,187.5C 531.5,215.167 531.5,242.833 531.5,270.5C 531.5,271.167 531.167,271.5 530.5,271.5C 530.5,243.833 530.5,216.167 530.5,188.5C 523.167,188.5 515.833,188.5 508.5,188.5 Z"/></g>
<g><path style="opacity:1" fill="#629618" d="M 689.5,270.5 C 682.018,271.492 674.352,271.825 666.5,271.5C 666.5,243.5 666.5,215.5 666.5,187.5C 674.167,187.5 681.833,187.5 689.5,187.5C 689.5,215.167 689.5,242.833 689.5,270.5 Z"/></g>
<g><path style="opacity:1" fill="#619516" d="M 100.5,270.5 C 92.8333,271.833 85.1667,271.833 77.5,270.5C 77.5,243.5 77.5,216.5 77.5,189.5C 85.1667,189.5 92.8333,189.5 100.5,189.5C 100.5,216.5 100.5,243.5 100.5,270.5 Z"/></g>
<g><path style="opacity:1" fill="#808282" d="M 26.5,197.5 C 25.2089,196.458 25.2089,195.292 26.5,194C 30.6615,192.826 31.9948,194.159 30.5,198C 28.9343,198.765 27.6009,198.598 26.5,197.5 Z"/></g>
<g><path style="opacity:1" fill="#e5ecea" d="M 26.5,197.5 C 27.7542,193.69 28.7542,193.69 29.5,197.5C 28.5,197.5 27.5,197.5 26.5,197.5 Z"/></g>
<g><path style="opacity:1" fill="#707271" d="M 20.5,195.5 C 21.1894,194.226 22.0228,194.226 23,195.5C 23.49,196.793 23.6567,198.127 23.5,199.5C 22.0222,199.762 20.6888,199.429 19.5,198.5C 20.3966,198.331 21.3966,197.998 22.5,197.5C 22.1445,196.478 21.4778,195.811 20.5,195.5 Z"/></g>
<g><path style="opacity:1" fill="#5096c0" d="M 465.5,222.5 C 458.167,222.5 450.833,222.5 443.5,222.5C 443.5,238.833 443.5,255.167 443.5,271.5C 442.833,271.5 442.5,271.167 442.5,270.5C 442.5,254.167 442.5,237.833 442.5,221.5C 450.352,221.175 458.018,221.508 465.5,222.5 Z"/></g>
<g><path style="opacity:1" fill="#076cab" d="M 465.5,222.5 C 465.5,238.5 465.5,254.5 465.5,270.5C 458.352,271.492 451.019,271.825 443.5,271.5C 443.5,255.167 443.5,238.833 443.5,222.5C 450.833,222.5 458.167,222.5 465.5,222.5 Z"/></g>
<g><path style="opacity:1" fill="#5f9512" d="M 558.5,270.5 C 550.833,271.833 543.167,271.833 535.5,270.5C 535.5,254.833 535.5,239.167 535.5,223.5C 543.167,223.5 550.833,223.5 558.5,223.5C 558.5,239.167 558.5,254.833 558.5,270.5 Z"/></g>
<g><path style="opacity:1" fill="#629618" d="M 493.5,270.5 C 486.018,271.492 478.352,271.825 470.5,271.5C 470.5,257.167 470.5,242.833 470.5,228.5C 478.167,228.5 485.833,228.5 493.5,228.5C 493.5,242.5 493.5,256.5 493.5,270.5 Z"/></g>
<g><path style="opacity:1" fill="#086dab" d="M 727.5,270.5 C 719.833,271.833 712.167,271.833 704.5,270.5C 704.5,256.5 704.5,242.5 704.5,228.5C 712.167,228.5 719.833,228.5 727.5,228.5C 727.5,242.5 727.5,256.5 727.5,270.5 Z"/></g>
<g><path style="opacity:1" fill="#70a9ca" d="M 335.5,270.5 C 335.5,271.167 335.167,271.5 334.5,271.5C 334.5,257.5 334.5,243.5 334.5,229.5C 327.167,229.5 319.833,229.5 312.5,229.5C 312.5,243.5 312.5,257.5 312.5,271.5C 311.833,271.5 311.5,271.167 311.5,270.5C 311.5,256.5 311.5,242.5 311.5,228.5C 319.5,228.5 327.5,228.5 335.5,228.5C 335.5,242.5 335.5,256.5 335.5,270.5 Z"/></g>
<g><path style="opacity:1" fill="#076cab" d="M 334.5,271.5 C 327.167,271.5 319.833,271.5 312.5,271.5C 312.5,257.5 312.5,243.5 312.5,229.5C 319.833,229.5 327.167,229.5 334.5,229.5C 334.5,243.5 334.5,257.5 334.5,271.5 Z"/></g>
<g><path style="opacity:1" fill="#106fac" d="M 269.5,270.5 C 261.833,271.833 254.167,271.833 246.5,270.5C 246.5,256.833 246.5,243.167 246.5,229.5C 254.167,229.5 261.833,229.5 269.5,229.5C 269.5,243.167 269.5,256.833 269.5,270.5 Z"/></g>
<g><path style="opacity:1" fill="#619516" d="M 427.5,270.5 C 419.833,271.833 412.167,271.833 404.5,270.5C 404.5,257.167 404.5,243.833 404.5,230.5C 412.167,230.5 419.833,230.5 427.5,230.5C 427.5,243.833 427.5,257.167 427.5,270.5 Z"/></g>
<g><path style="opacity:1" fill="#98ba6d" d="M 623.5,231.5 C 616.167,231.5 608.833,231.5 601.5,231.5C 601.5,244.833 601.5,258.167 601.5,271.5C 600.833,271.5 600.5,271.167 600.5,270.5C 600.5,257.167 600.5,243.833 600.5,230.5C 608.352,230.175 616.018,230.508 623.5,231.5 Z"/></g>
<g><path style="opacity:1" fill="#5f9512" d="M 623.5,231.5 C 623.5,244.833 623.5,258.167 623.5,271.5C 616.167,271.5 608.833,271.5 601.5,271.5C 601.5,258.167 601.5,244.833 601.5,231.5C 608.833,231.5 616.167,231.5 623.5,231.5 Z"/></g>
<g><path style="opacity:1" fill="#7d7f7f" d="M 27.5,230.5 C 28.8221,230.33 29.9887,230.663 31,231.5C 30.5031,233.198 30.6698,234.865 31.5,236.5C 25.3445,237.946 24.0112,235.946 27.5,230.5 Z"/></g>
<g><path style="opacity:1" fill="#e4eae8" d="M 28.5,231.5 C 28.7717,233.229 28.7717,234.895 28.5,236.5C 26.0698,234.963 26.0698,233.296 28.5,231.5 Z"/></g>
<g><path style="opacity:1" fill="#6da8c9" d="M 139.5,270.5 C 139.167,270.5 138.833,270.5 138.5,270.5C 138.5,260.833 138.5,251.167 138.5,241.5C 131.167,241.5 123.833,241.5 116.5,241.5C 116.5,251.5 116.5,261.5 116.5,271.5C 115.833,271.5 115.5,271.167 115.5,270.5C 115.5,260.5 115.5,250.5 115.5,240.5C 123.5,240.5 131.5,240.5 139.5,240.5C 139.5,250.5 139.5,260.5 139.5,270.5 Z"/></g>
<g><path style="opacity:1" fill="#076cab" d="M 138.5,270.5 C 131.352,271.492 124.019,271.825 116.5,271.5C 116.5,261.5 116.5,251.5 116.5,241.5C 123.833,241.5 131.167,241.5 138.5,241.5C 138.5,251.167 138.5,260.833 138.5,270.5 Z"/></g>
<g><path style="opacity:1" fill="#6ea8c9" d="M 662.5,270.5 C 662.5,271.167 662.167,271.5 661.5,271.5C 661.5,261.5 661.5,251.5 661.5,241.5C 654.167,241.5 646.833,241.5 639.5,241.5C 639.5,251.5 639.5,261.5 639.5,271.5C 638.833,271.5 638.5,271.167 638.5,270.5C 638.5,260.5 638.5,250.5 638.5,240.5C 646.5,240.5 654.5,240.5 662.5,240.5C 662.5,250.5 662.5,260.5 662.5,270.5 Z"/></g>
<g><path style="opacity:1" fill="#076cab" d="M 661.5,271.5 C 654.167,271.5 646.833,271.5 639.5,271.5C 639.5,261.5 639.5,251.5 639.5,241.5C 646.833,241.5 654.167,241.5 661.5,241.5C 661.5,251.5 661.5,261.5 661.5,271.5 Z"/></g>
<g><path style="opacity:1" fill="#609514" d="M 231.5,270.5 C 223.833,271.833 216.167,271.833 208.5,270.5C 208.5,263.833 208.5,257.167 208.5,250.5C 216.167,250.5 223.833,250.5 231.5,250.5C 231.5,257.167 231.5,263.833 231.5,270.5 Z"/></g>
<g><path style="opacity:1" fill="#adb1b0" d="M 26.5,267.5 C 31.0408,267.815 32.0408,269.649 29.5,273C 25.5369,273.118 24.5369,271.284 26.5,267.5 Z"/></g>
<g><path style="opacity:1" fill="#949796" d="M 43.5,270.5 C 43.8333,271.833 44.1667,271.833 44.5,270.5C 46.5,270.5 48.5,270.5 50.5,270.5C 58.1667,271.833 65.8333,271.833 73.5,270.5C 74.8333,270.5 76.1667,270.5 77.5,270.5C 85.1667,271.833 92.8333,271.833 100.5,270.5C 105.5,270.5 110.5,270.5 115.5,270.5C 115.5,271.167 115.833,271.5 116.5,271.5C 124.019,271.825 131.352,271.492 138.5,270.5C 138.833,270.5 139.167,270.5 139.5,270.5C 140.833,270.5 142.167,270.5 143.5,270.5C 150.648,271.492 157.981,271.825 165.5,271.5C 166.167,271.5 166.5,271.167 166.5,270.5C 171.5,270.5 176.5,270.5 181.5,270.5C 188.648,271.492 195.981,271.825 203.5,271.5C 204.167,271.5 204.5,271.167 204.5,270.5C 205.833,270.5 207.167,270.5 208.5,270.5C 216.167,271.833 223.833,271.833 231.5,270.5C 236.5,270.5 241.5,270.5 246.5,270.5C 254.167,271.833 261.833,271.833 269.5,270.5C 270.833,270.5 272.167,270.5 273.5,270.5C 281.5,271.833 289.5,271.833 297.5,270.5C 302.167,270.5 306.833,270.5 311.5,270.5C 311.5,271.167 311.833,271.5 312.5,271.5C 319.833,271.5 327.167,271.5 334.5,271.5C 335.167,271.5 335.5,271.167 335.5,270.5C 336.833,270.5 338.167,270.5 339.5,270.5C 347.167,271.833 354.833,271.833 362.5,270.5C 367.5,270.5 372.5,270.5 377.5,270.5C 385.167,271.833 392.833,271.833 400.5,270.5C 401.833,270.5 403.167,270.5 404.5,270.5C 412.167,271.833 419.833,271.833 427.5,270.5C 432.5,270.5 437.5,270.5 442.5,270.5C 442.5,271.167 442.833,271.5 443.5,271.5C 451.019,271.825 458.352,271.492 465.5,270.5C 467.292,270.366 468.958,270.699 470.5,271.5C 478.352,271.825 486.018,271.492 493.5,270.5C 498.5,270.5 503.5,270.5 508.5,270.5C 515.648,271.492 522.981,271.825 530.5,271.5C 531.167,271.5 531.5,271.167 531.5,270.5C 532.833,270.5 534.167,270.5 535.5,270.5C 543.167,271.833 550.833,271.833 558.5,270.5C 563.5,270.5 568.5,270.5 573.5,270.5C 581.167,271.833 588.833,271.833 596.5,270.5C 597.833,270.5 599.167,270.5 600.5,270.5C 600.5,271.167 600.833,271.5 601.5,271.5C 608.833,271.5 616.167,271.5 623.5,271.5C 628.405,270.555 633.405,270.221 638.5,270.5C 638.5,271.167 638.833,271.5 639.5,271.5C 646.833,271.5 654.167,271.5 661.5,271.5C 662.167,271.5 662.5,271.167 662.5,270.5C 663.959,270.433 665.292,270.766 666.5,271.5C 674.352,271.825 682.018,271.492 689.5,270.5C 694.5,270.5 699.5,270.5 704.5,270.5C 712.167,271.833 719.833,271.833 727.5,270.5C 728.833,270.5 730.167,270.5 731.5,270.5C 739.167,271.833 746.833,271.833 754.5,270.5C 759.5,270.5 764.5,270.5 769.5,270.5C 769.5,271.167 769.833,271.5 770.5,271.5C 777.833,271.5 785.167,271.5 792.5,271.5C 793.167,271.5 793.5,271.167 793.5,270.5C 794.833,270.5 796.167,270.5 797.5,270.5C 805.167,271.833 812.833,271.833 820.5,270.5C 824.884,270.174 829.217,270.508 833.5,271.5C 821.185,272.499 808.851,272.832 796.5,272.5C 796.167,277.833 795.833,277.833 795.5,272.5C 774.167,272.5 752.833,272.5 731.5,272.5C 730.833,279.167 730.167,279.167 729.5,272.5C 708.167,272.5 686.833,272.5 665.5,272.5C 665.167,279.167 664.833,279.167 664.5,272.5C 643.167,272.5 621.833,272.5 600.5,272.5C 600.167,279.167 599.833,279.167 599.5,272.5C 578.167,272.5 556.833,272.5 535.5,272.5C 534.833,279.167 534.167,279.167 533.5,272.5C 512.167,272.5 490.833,272.5 469.5,272.5C 469.167,279.167 468.833,279.167 468.5,272.5C 447.167,272.5 425.833,272.5 404.5,272.5C 403.833,279.167 403.167,279.167 402.5,272.5C 381.167,272.5 359.833,272.5 338.5,272.5C 338.167,279.167 337.833,279.167 337.5,272.5C 316.167,272.5 294.833,272.5 273.5,272.5C 273.167,279.167 272.833,279.167 272.5,272.5C 251.167,272.5 229.833,272.5 208.5,272.5C 207.833,279.167 207.167,279.167 206.5,272.5C 185.167,272.5 163.833,272.5 142.5,272.5C 142.167,279.167 141.833,279.167 141.5,272.5C 120.167,272.5 98.8333,272.5 77.5,272.5C 76.8333,279.167 76.1667,279.167 75.5,272.5C 62.8158,272.832 50.1492,272.499 37.5,271.5C 39.396,270.534 41.396,270.201 43.5,270.5 Z"/></g>
<g><path style="opacity:1" fill="#9da09f" d="M 96.5,287.5 C 94.3926,288.468 92.0593,288.802 89.5,288.5C 88.3285,285.964 89.3285,284.631 92.5,284.5C 94.6528,284.561 95.9862,285.561 96.5,287.5 Z"/></g>
<g><path style="opacity:1" fill="#9da09f" d="M 162.5,286.5 C 161.082,288.308 159.082,288.975 156.5,288.5C 154.94,286.871 155.273,285.704 157.5,285C 159.535,284.401 161.201,284.901 162.5,286.5 Z"/></g>
<g><path style="opacity:1" fill="#787a79" d="M 212.5,287.5 C 213.002,285.915 214.002,285.415 215.5,286C 214.756,287.039 213.756,287.539 212.5,287.5 Z"/></g>
<g><path style="opacity:1" fill="#c3c8c6" d="M 278.5,288.5 C 277.167,289.167 276.167,290.167 275.5,291.5C 273.014,290.538 273.014,289.705 275.5,289C 274.072,288.421 272.738,288.588 271.5,289.5C 271.167,289.5 270.833,289.5 270.5,289.5C 270.082,288.778 269.416,288.278 268.5,288C 269.056,287.617 269.389,287.117 269.5,286.5C 269.866,285.305 270.699,284.639 272,284.5C 274.634,285.226 276.801,286.559 278.5,288.5 Z"/></g>
<g><path style="opacity:1" fill="#7d7f7f" d="M 481.5,287.5 C 479.571,287.769 477.905,287.269 476.5,286C 478.391,285.797 480.057,286.297 481.5,287.5 Z"/></g>
<g><path style="opacity:1" fill="#838685" d="M 604.5,287.5 C 602.571,287.769 600.905,287.269 599.5,286C 601.391,285.797 603.057,286.297 604.5,287.5 Z"/></g>
<g><path style="opacity:1" fill="#707272" d="M 212.5,287.5 C 213.609,288.29 214.942,288.79 216.5,289C 214.833,289.333 213.167,289.667 211.5,290C 215.13,290.271 216.13,291.938 214.5,295C 213.207,295.49 211.873,295.657 210.5,295.5C 210.799,293.396 210.466,291.396 209.5,289.5C 208.686,291.766 208.186,294.1 208,296.5C 207.667,294.5 207.333,292.5 207,290.5C 206.617,289.944 206.117,289.611 205.5,289.5C 200.757,289.186 200.424,290.519 204.5,293.5C 204.376,294.107 204.043,294.44 203.5,294.5C 203.265,293.903 202.765,293.57 202,293.5C 200.989,293.892 200.489,294.559 200.5,295.5C 199.355,294.224 199.355,292.891 200.5,291.5C 200.023,290.522 199.357,289.689 198.5,289C 203.25,288.777 207.916,288.277 212.5,287.5 Z"/></g>
<g><path style="opacity:1" fill="#828484" d="M 96.5,287.5 C 97.2891,287.783 97.9558,288.283 98.5,289C 97.7256,291.405 97.2256,293.905 97,296.5C 96.1382,287.234 94.9715,287.234 93.5,296.5C 92.0158,294.926 90.3492,293.593 88.5,292.5C 89.6651,291.416 90.9984,290.583 92.5,290C 90.8659,289.506 89.1992,289.34 87.5,289.5C 87.1268,298.744 86.1268,298.744 84.5,289.5C 83.6858,291.766 83.1858,294.1 83,296.5C 81.6841,293.972 80.5174,293.972 79.5,296.5C 78.2404,294.647 78.2404,292.814 79.5,291C 78.9747,290.308 78.3081,289.808 77.5,289.5C 76.2175,292.372 76.2175,295.205 77.5,298C 75.9751,299.009 74.3084,299.509 72.5,299.5C 72.5,298.5 72.5,297.5 72.5,296.5C 73.5,296.5 74.5,296.5 75.5,296.5C 75.853,294.365 75.0197,293.032 73,292.5C 71.9895,292.892 71.4895,293.559 71.5,294.5C 70.6143,293.675 70.281,292.675 70.5,291.5C 72.288,291.785 73.9547,291.452 75.5,290.5C 73.604,289.534 71.604,289.201 69.5,289.5C 68.8333,298.833 68.1667,298.833 67.5,289.5C 66.1266,289.343 64.7932,289.51 63.5,290C 65.3632,291.418 65.8632,293.251 65,295.5C 64.5724,290.502 63.7391,290.335 62.5,295C 59.1861,296.165 57.1861,294.998 56.5,291.5C 57.5294,291.704 58.5294,291.204 59.5,290C 58.1667,289.667 56.8333,289.333 55.5,289C 66.8284,288.5 78.1618,288.333 89.5,288.5C 92.0593,288.802 94.3926,288.468 96.5,287.5 Z"/></g>
<g><path style="opacity:1" fill="#747675" d="M 162.5,286.5 C 163.267,287.172 163.934,288.005 164.5,289C 163.736,291.069 163.236,293.236 163,295.5C 161.749,287.803 160.749,288.137 160,296.5C 158.955,295.627 158.122,294.627 157.5,293.5C 155.024,292.185 155.358,291.018 158.5,290C 156.866,289.506 155.199,289.34 153.5,289.5C 153.663,291.857 153.497,294.19 153,296.5C 151.657,287.318 150.49,287.318 149.5,296.5C 148.145,295.812 147.145,294.812 146.5,293.5C 147.496,293.414 148.329,293.748 149,294.5C 149.494,292.866 149.66,291.199 149.5,289.5C 148.209,289.263 147.209,289.596 146.5,290.5C 144.565,289.85 142.565,289.517 140.5,289.5C 140.413,292.598 140.913,292.932 142,290.5C 143.23,291.275 143.563,292.275 143,293.5C 141.493,294.505 140.327,295.838 139.5,297.5C 137.929,296.691 136.262,296.357 134.5,296.5C 135.609,295.71 136.942,295.21 138.5,295C 138.167,294.667 137.833,294.333 137.5,294C 140.051,292.484 139.718,291.651 136.5,291.5C 136.918,290.778 137.584,290.278 138.5,290C 135.833,289.333 133.167,289.333 130.5,290C 132.497,291.153 132.83,292.653 131.5,294.5C 131.331,293.603 130.998,292.603 130.5,291.5C 129.702,293.078 129.202,294.744 129,296.5C 128.283,295.956 127.783,295.289 127.5,294.5C 124.827,294.316 124.16,293.149 125.5,291C 123.009,288.911 121.676,289.577 121.5,293C 121.755,294.326 122.422,295.326 123.5,296C 119.11,295.155 118.443,292.821 121.5,289C 133.162,288.5 144.829,288.333 156.5,288.5C 159.082,288.975 161.082,288.308 162.5,286.5 Z"/></g>
<g><path style="opacity:1" fill="#636564" d="M 269.5,286.5 C 269.389,287.117 269.056,287.617 268.5,288C 269.416,288.278 270.082,288.778 270.5,289.5C 269.686,291.631 269.186,293.964 269,296.5C 268.685,293.628 268.185,290.795 267.5,288C 267.836,286.97 268.503,286.47 269.5,286.5 Z"/></g>
<g><path style="opacity:1" fill="#878988" d="M 334.5,290.5 C 334.611,289.883 334.944,289.383 335.5,289C 338.5,288.333 341.5,288.333 344.5,289C 343.88,291.473 343.214,293.973 342.5,296.5C 341.614,295.675 341.281,294.675 341.5,293.5C 340.448,293.351 339.448,293.517 338.5,294C 339.696,294.654 339.696,295.154 338.5,295.5C 337.355,294.224 337.355,292.891 338.5,291.5C 337.311,290.571 335.978,290.238 334.5,290.5 Z"/></g>
<g><path style="opacity:1" fill="#797b7a" d="M 401.5,294.5 C 400.829,293.153 400.829,291.986 401.5,291C 400.256,290.544 399.423,291.044 399,292.5C 398.536,291.906 398.369,291.239 398.5,290.5C 397.391,289.71 396.058,289.21 394.5,289C 400.833,288.333 407.167,288.333 413.5,289C 412.88,291.473 412.214,293.973 411.5,296.5C 410.571,295.311 410.238,293.978 410.5,292.5C 409.448,292.351 408.448,292.517 407.5,293C 408.696,293.654 408.696,294.154 407.5,294.5C 406.614,293.675 406.281,292.675 406.5,291.5C 407.978,291.762 409.311,291.429 410.5,290.5C 407.894,289.348 405.227,289.182 402.5,290C 403.931,293.07 405.597,296.07 407.5,299C 405.615,298.77 403.615,298.77 401.5,299C 401.167,298.667 400.833,298.333 400.5,298C 403.006,296.484 403.84,294.318 403,291.5C 402.768,292.737 402.268,293.737 401.5,294.5 Z"/></g>
<g><path style="opacity:1" fill="#7d807f" d="M 481.5,287.5 C 484.132,288.867 483.798,289.701 480.5,290C 485.411,296.508 484.411,297.842 477.5,294C 478.938,293.781 480.271,293.281 481.5,292.5C 480.052,291.646 478.719,290.646 477.5,289.5C 476.686,291.766 476.186,294.1 476,296.5C 474.657,287.318 473.49,287.318 472.5,296.5C 471.702,294.922 471.202,293.256 471,291.5C 470,292.833 469,292.833 468,291.5C 468.077,292.738 467.911,293.738 467.5,294.5C 466.5,294.167 465.833,293.5 465.5,292.5C 467.059,290.869 469.059,290.036 471.5,290C 466.712,288.99 464.379,289.157 464.5,290.5C 464.232,293.119 464.565,295.619 465.5,298C 463.975,299.009 462.308,299.509 460.5,299.5C 460.5,298.5 460.5,297.5 460.5,296.5C 463.907,296.875 464.407,295.875 462,293.5C 459.992,296.139 458.159,296.139 456.5,293.5C 457.249,292.469 457.915,291.302 458.5,290C 457.167,289.667 455.833,289.333 454.5,289C 463.676,288.83 472.676,288.33 481.5,287.5 Z"/></g>
<g><path style="opacity:1" fill="#777978" d="M 523.5,291.5 C 522.504,291.414 521.671,291.748 521,292.5C 520.517,291.552 520.351,290.552 520.5,289.5C 518.767,288.16 521.1,287.993 527.5,289C 526.726,291.405 526.226,293.905 526,296.5C 525.333,295.833 524.667,295.167 524,294.5C 522.542,295.747 521.042,295.747 519.5,294.5C 518.479,293.998 518.312,293.332 519,292.5C 521.045,294.043 522.545,293.71 523.5,291.5 Z"/></g>
<g><path style="opacity:1" fill="#7b7e7d" d="M 533.5,291.5 C 533.167,290.833 532.833,290.167 532.5,289.5C 534.03,288.933 535.53,288.267 537,287.5C 539.737,288.61 542.571,288.777 545.5,288C 543.729,287.465 543.396,286.631 544.5,285.5C 546.9,286.018 548.9,287.185 550.5,289C 549.207,289.49 547.873,289.657 546.5,289.5C 546.215,291.288 546.548,292.955 547.5,294.5C 548.731,293.349 548.731,292.183 547.5,291C 548.965,290.399 549.965,290.899 550.5,292.5C 547.316,298.151 545.149,297.818 544,291.5C 543.282,294.234 541.782,294.9 539.5,293.5C 542.451,292.579 542.118,291.246 538.5,289.5C 537.686,291.766 537.186,294.1 537,296.5C 536,287.167 535,287.167 534,296.5C 533.506,294.866 533.34,293.199 533.5,291.5 Z"/></g>
<g><path style="opacity:1" fill="#6b6d6c" d="M 581.5,289.5 C 585.646,288.353 589.98,288.186 594.5,289C 593.956,289.717 593.289,290.217 592.5,290.5C 591.791,289.596 590.791,289.263 589.5,289.5C 589.663,291.857 589.497,294.19 589,296.5C 588.51,295.207 588.343,293.873 588.5,292.5C 588.5,291.5 588.5,290.5 588.5,289.5C 586.09,290.438 583.756,290.438 581.5,289.5 Z"/></g>
<g><path style="opacity:1" fill="#777978" d="M 681.5,293.5 C 679.024,292.185 679.358,291.018 682.5,290C 680.866,289.506 679.199,289.34 677.5,289.5C 677.663,291.857 677.497,294.19 677,296.5C 675.365,295.274 673.865,293.941 672.5,292.5C 673.09,291.201 674.09,290.368 675.5,290C 673.866,289.506 672.199,289.34 670.5,289.5C 670.663,291.857 670.497,294.19 670,296.5C 669.667,294.5 669.333,292.5 669,290.5C 667.951,289.483 666.784,289.316 665.5,290C 667.363,291.418 667.863,293.251 667,295.5C 665.708,296.791 664.542,296.791 663.5,295.5C 662.209,294.458 662.209,293.292 663.5,292C 662.262,292.077 661.262,291.911 660.5,291.5C 661.376,290.749 662.376,290.249 663.5,290C 661.402,289.322 659.402,289.489 657.5,290.5C 656.791,289.596 655.791,289.263 654.5,289.5C 654.663,291.857 654.497,294.19 654,296.5C 653.283,295.956 652.783,295.289 652.5,294.5C 649.463,296.265 647.13,295.598 645.5,292.5C 646.891,292.891 647.891,292.058 648.5,290C 647.167,289.667 645.833,289.333 644.5,289C 651.5,288.667 658.5,288.333 665.5,288C 663.744,287.798 662.078,287.298 660.5,286.5C 662.917,285.848 665.25,286.348 667.5,288C 673.5,288.333 679.5,288.667 685.5,289C 684.726,291.405 684.226,293.905 684,296.5C 682.955,295.627 682.122,294.627 681.5,293.5 Z"/></g>
<g><path style="opacity:1" fill="#7c7e7e" d="M 713.5,289.5 C 724.993,288.341 736.659,288.174 748.5,289C 747.726,291.405 747.226,293.905 747,296.5C 745.684,293.972 744.517,293.972 743.5,296.5C 743.167,296.167 742.833,295.833 742.5,295.5C 743.145,294.268 743.311,292.935 743,291.5C 743.75,290.874 744.584,290.374 745.5,290C 743.866,289.506 742.199,289.34 740.5,289.5C 740.808,291.924 740.474,294.257 739.5,296.5C 735.5,294.5 735.5,292.5 739.5,290.5C 739,290.167 738.5,289.833 738,289.5C 736.779,290.272 735.779,291.272 735,292.5C 734.383,291.551 734.549,290.718 735.5,290C 731.833,289.333 728.167,289.333 724.5,290C 722.968,292.33 723.302,294.33 725.5,296C 723.892,296.658 722.725,296.158 722,294.5C 722.046,292.687 721.88,291.021 721.5,289.5C 720.833,291.833 720.167,294.167 719.5,296.5C 718.571,295.311 718.238,293.978 718.5,292.5C 717.448,292.351 716.448,292.517 715.5,293C 716.696,293.654 716.696,294.154 715.5,294.5C 714.614,293.675 714.281,292.675 714.5,291.5C 715.978,291.762 717.311,291.429 718.5,290.5C 716.955,289.548 715.288,289.215 713.5,289.5 Z"/></g>
<g><path style="opacity:1" fill="#757877" d="M 815.5,289.5 C 814.533,290.806 813.199,291.473 811.5,291.5C 811.918,290.778 812.584,290.278 813.5,290C 810.299,289.733 807.299,289.733 804.5,290C 807.006,291.516 807.84,293.682 807,296.5C 805.075,295.12 803.241,293.62 801.5,292C 804.332,290.092 803.999,289.259 800.5,289.5C 800.167,298.833 799.833,298.833 799.5,289.5C 796.203,289.329 795.869,289.995 798.5,291.5C 798.192,292.308 797.692,292.975 797,293.5C 796.333,291.5 795,290.167 793,289.5C 790.852,291.879 791.018,294.045 793.5,296C 789.847,295.873 788.847,294.04 790.5,290.5C 788.833,289.167 787.167,289.167 785.5,290.5C 786.325,291.386 787.325,291.719 788.5,291.5C 788.773,293.958 787.773,295.625 785.5,296.5C 783.787,296.121 782.787,295.121 782.5,293.5C 784.166,294.666 785.833,294.666 787.5,293.5C 786.738,293.089 785.738,292.923 784.5,293C 783.663,291.989 783.33,290.822 783.5,289.5C 782.167,289.5 780.833,289.5 779.5,289.5C 779.663,291.857 779.497,294.19 779,296.5C 778.685,293.628 778.185,290.795 777.5,288C 777.645,287.228 777.978,286.561 778.5,286C 781.053,285.149 783.386,285.482 785.5,287C 783.473,286.502 781.473,286.669 779.5,287.5C 792.23,288.148 804.23,288.814 815.5,289.5 Z"/></g>
<g><path style="opacity:1" fill="#e4ebe9" d="M 127.5,294.5 C 126.768,292.548 126.768,290.881 127.5,289.5C 128.788,291.299 128.788,292.965 127.5,294.5 Z"/></g>
<g><path style="opacity:1" fill="#b5bab8" d="M 146.5,293.5 C 145.761,293.631 145.094,293.464 144.5,293C 145.381,292.292 146.047,291.458 146.5,290.5C 147.209,289.596 148.209,289.263 149.5,289.5C 149.66,291.199 149.494,292.866 149,294.5C 148.329,293.748 147.496,293.414 146.5,293.5 Z"/></g>
<g><path style="opacity:1" fill="#aeb2b1" d="M 205.5,289.5 C 205.808,291.924 205.474,294.257 204.5,296.5C 203.702,296.043 203.369,295.376 203.5,294.5C 204.043,294.44 204.376,294.107 204.5,293.5C 200.424,290.519 200.757,289.186 205.5,289.5 Z"/></g>
<g><path style="opacity:1" fill="#e4ebe9" d="M 523.5,291.5 C 522.34,289.797 523.007,289.131 525.5,289.5C 525.657,290.873 525.49,292.207 525,293.5C 524.722,292.584 524.222,291.918 523.5,291.5 Z"/></g>
<g><path style="opacity:1" fill="#c3c8c6" d="M 652.5,294.5 C 652.117,292.592 651.117,291.092 649.5,290C 650.793,289.51 652.127,289.343 653.5,289.5C 653.784,291.415 653.451,293.081 652.5,294.5 Z"/></g>
<g><path style="opacity:1" fill="#969a99" d="M 532.5,289.5 C 532.833,290.167 533.167,290.833 533.5,291.5C 532.206,292.29 531.039,293.29 530,294.5C 529.383,293.551 529.549,292.718 530.5,292C 527.932,290.603 528.099,289.436 531,288.5C 531.765,288.57 532.265,288.903 532.5,289.5 Z"/></g>
<g><path style="opacity:1" fill="#818483" d="M 604.5,287.5 C 610.085,288.288 615.752,288.788 621.5,289C 620.88,291.473 620.214,293.973 619.5,296.5C 618.702,296.043 618.369,295.376 618.5,294.5C 619.404,293.791 619.737,292.791 619.5,291.5C 618.5,291.5 617.5,291.5 616.5,291.5C 616.918,290.778 617.584,290.278 618.5,290C 616.866,289.506 615.199,289.34 613.5,289.5C 608.78,289.225 608.446,290.059 612.5,292C 611.244,292.417 610.577,293.25 610.5,294.5C 609.761,294.631 609.094,294.464 608.5,294C 608.5,292.667 608.5,291.333 608.5,290C 606.527,289.505 604.527,289.338 602.5,289.5C 602.215,291.288 602.548,292.955 603.5,294.5C 604.731,293.349 604.731,292.183 603.5,291C 606.314,290.786 606.98,291.953 605.5,294.5C 602.297,296.982 600.464,295.982 600,291.5C 596.674,294.063 595.508,293.23 596.5,289C 597.899,288.405 599.232,288.572 600.5,289.5C 602.026,289.006 603.359,288.339 604.5,287.5 Z"/></g>
<g><path style="opacity:1" fill="#e6edeb" d="M 157.5,293.5 C 157.639,291.663 158.306,291.33 159.5,292.5C 159.043,293.298 158.376,293.631 157.5,293.5 Z"/></g>
<g><path style="opacity:1" fill="#828584" d="M 456.5,293.5 C 454.915,292.998 454.415,291.998 455,290.5C 456.039,291.244 456.539,292.244 456.5,293.5 Z"/></g>
<g><path style="opacity:1" fill="#e6edeb" d="M 681.5,293.5 C 681.639,291.663 682.306,291.33 683.5,292.5C 683.043,293.298 682.376,293.631 681.5,293.5 Z"/></g>
<g><path style="opacity:1" fill="#e9f0ee" d="M 211.5,291.5 C 214.595,292.119 214.929,293.119 212.5,294.5C 211.614,293.675 211.281,292.675 211.5,291.5 Z"/></g>
<g><path style="opacity:1" fill="#a4a8a7" d="M 262.5,288.5 C 263.822,288.33 264.989,288.663 266,289.5C 266.667,291.833 266.667,294.167 266,296.5C 263.667,295.833 261.333,295.167 259,294.5C 258.251,293.365 258.417,292.365 259.5,291.5C 260.192,292.025 260.692,292.692 261,293.5C 261.352,291.753 261.852,290.086 262.5,288.5 Z"/></g>
<g><path style="opacity:1" fill="#8d908f" d="M 334.5,290.5 C 334.66,292.199 334.494,293.866 334,295.5C 331.935,293.549 332.102,291.882 334.5,290.5 Z"/></g>
<g><path style="opacity:1" fill="#a9aeac" d="M 398.5,290.5 C 398.369,291.239 398.536,291.906 399,292.5C 399.423,291.044 400.256,290.544 401.5,291C 400.829,291.986 400.829,293.153 401.5,294.5C 398.414,296.202 396.414,295.202 395.5,291.5C 396.394,291.483 397.394,291.149 398.5,290.5 Z"/></g>
<g><path style="opacity:1" fill="#a7abaa" d="M 613.5,289.5 C 613.808,291.924 613.474,294.257 612.5,296.5C 611.478,296.145 610.811,295.478 610.5,294.5C 610.577,293.25 611.244,292.417 612.5,292C 608.446,290.059 608.78,289.225 613.5,289.5 Z"/></g>
<g><path style="opacity:1" fill="#7b7e7d" d="M 782.5,293.5 C 781.733,292.828 781.066,291.995 780.5,291C 782.061,290.812 782.728,291.645 782.5,293.5 Z"/></g>
<g><path style="opacity:1" fill="#a4a8a7" d="M 815.5,289.5 C 815.808,291.924 815.474,294.257 814.5,296.5C 813.167,296.167 811.833,295.833 810.5,295.5C 811.718,294.197 811.385,293.197 809.5,292.5C 809.957,291.702 810.624,291.369 811.5,291.5C 813.199,291.473 814.533,290.806 815.5,289.5 Z"/></g>
<g><path style="opacity:1" fill="#b7bbba" d="M 136.5,291.5 C 139.718,291.651 140.051,292.484 137.5,294C 137.833,294.333 138.167,294.667 138.5,295C 136.942,295.21 135.609,295.71 134.5,296.5C 133.167,294.176 133.834,292.509 136.5,291.5 Z"/></g>
<g><path style="opacity:1" fill="#717372" d="M 592.5,290.5 C 592.178,292.722 592.845,294.556 594.5,296C 592.287,296.456 591.287,295.456 591.5,293C 591.528,291.93 591.861,291.097 592.5,290.5 Z"/></g>
<g><path style="opacity:1" fill="#8c8f8e" d="M 657.5,290.5 C 657.66,292.199 657.494,293.866 657,295.5C 654.935,293.549 655.102,291.882 657.5,290.5 Z"/></g>
<g><path style="opacity:1" fill="#d7dedc" d="M 663.5,295.5 C 664.6,291.062 665.6,290.562 666.5,294C 665.756,295.039 664.756,295.539 663.5,295.5 Z"/></g>
<g><path style="opacity:1" fill="#7d7f7e" d="M 275.5,291.5 C 276.167,290.167 277.167,289.167 278.5,288.5C 281.85,288.335 285.183,288.502 288.5,289C 287.726,291.405 287.226,293.905 287,296.5C 286.837,294.324 286.004,292.491 284.5,291C 285.167,290.667 285.833,290.333 286.5,290C 283.854,289.503 281.187,289.336 278.5,289.5C 278.808,291.924 278.474,294.257 277.5,296.5C 276.402,295.385 275.235,295.385 274,296.5C 269.935,294.964 269.769,293.464 273.5,292C 272.244,291.583 271.577,290.75 271.5,289.5C 272.738,288.588 274.072,288.421 275.5,289C 273.014,289.705 273.014,290.538 275.5,291.5 Z"/></g>
<g><path style="opacity:1" fill="#6c6e6d" d="M 280.5,290.5 C 281.552,290.351 282.552,290.517 283.5,291C 281.726,291.881 281.06,293.047 281.5,294.5C 280.571,293.311 280.238,291.978 280.5,290.5 Z"/></g>
<g><path style="opacity:1" fill="#e5ecea" d="M 275.5,291.5 C 277.048,291.821 277.715,292.821 277.5,294.5C 275.801,294.66 274.134,294.494 272.5,294C 273.942,293.623 274.942,292.79 275.5,291.5 Z"/></g>
<g><path style="opacity:1" fill="#b8bcbb" d="M 581.5,289.5 C 583.756,290.438 586.09,290.438 588.5,289.5C 588.5,290.5 588.5,291.5 588.5,292.5C 586.458,294.18 584.124,295.513 581.5,296.5C 577.537,294.087 577.537,291.753 581.5,289.5 Z"/></g>
<g><path style="opacity:1" fill="#737574" d="M 725.5,290.5 C 726.785,292.062 728.285,293.396 730,294.5C 731.059,294.37 731.892,293.87 732.5,293C 731.062,292.781 729.729,292.281 728.5,291.5C 729.53,291.446 730.697,291.112 732,290.5C 734.164,295.01 732.664,296.51 727.5,295C 726.418,293.67 725.751,292.17 725.5,290.5 Z"/></g>
<g><path style="opacity:1" fill="#a6aaa9" d="M 616.5,291.5 C 617.5,291.5 618.5,291.5 619.5,291.5C 619.737,292.791 619.404,293.791 618.5,294.5C 617.849,295.091 617.182,295.757 616.5,296.5C 615.289,295.726 615.289,294.893 616.5,294C 613.887,292.929 613.887,292.095 616.5,291.5 Z"/></g>
</svg>
