<?xml version="1.0" encoding="UTF-8"?>
<!DOCTYPE svg PUBLIC "-//W3C//DTD SVG 1.1//EN" "http://www.w3.org/Graphics/SVG/1.1/DTD/svg11.dtd">
<svg xmlns="http://www.w3.org/2000/svg" version="1.1" width="240px" height="147px" style="shape-rendering:geometricPrecision; text-rendering:geometricPrecision; image-rendering:optimizeQuality; fill-rule:evenodd; clip-rule:evenodd" xmlns:xlink="http://www.w3.org/1999/xlink">
<g><path style="opacity:0.699" fill="#f4f7ee" d="M 62.5,-0.5 C 70.5,-0.5 78.5,-0.5 86.5,-0.5C 98.4084,1.80966 109.408,6.47632 119.5,13.5C 129.592,6.47632 140.592,1.80966 152.5,-0.5C 160.5,-0.5 168.5,-0.5 176.5,-0.5C 210.31,6.64353 231.31,26.9769 239.5,60.5C 239.5,68.5 239.5,76.5 239.5,84.5C 231.607,119.06 210.274,139.726 175.5,146.5C 168.167,146.5 160.833,146.5 153.5,146.5C 141.332,144.09 129.999,139.423 119.5,132.5C 108.999,139.424 97.6656,144.091 85.5,146.5C 78.1667,146.5 70.8333,146.5 63.5,146.5C 28.6974,139.697 7.36406,119.03 -0.5,84.5C -0.5,76.8333 -0.5,69.1667 -0.5,61.5C 7.24479,27.4222 28.2448,6.75558 62.5,-0.5 Z"/></g>
<g><path style="opacity:0.949" fill="#d7e4c3" d="M 102.5,32.5 C 89.3912,54.0012 87.0579,76.6678 95.5,100.5C 92.6091,95.3039 90.7758,89.6372 90,83.5C 87.1399,64.6168 91.3066,47.6168 102.5,32.5 Z"/></g>
<g><path style="opacity:0.937" fill="#d3e1bc" d="M 105.5,28.5 C 105.262,30.4044 104.262,31.7377 102.5,32.5C 102.738,30.5956 103.738,29.2623 105.5,28.5 Z"/></g>
<g><path style="opacity:0.922" fill="#cedeb7" d="M 118.5,15.5 C 118.5,15.8333 118.5,16.1667 118.5,16.5C 114.167,20.5 109.833,24.5 105.5,28.5C 108.833,23.1667 113.167,18.8333 118.5,15.5 Z"/></g>
<g><path style="opacity:0.875" fill="#8fb357" d="M 118.5,16.5 C 118.5,16.1667 118.5,15.8333 118.5,15.5C 119.167,15.5 119.833,15.5 120.5,15.5C 125.406,18.8983 129.906,22.8983 134,27.5C 135.289,29.0548 135.956,30.7215 136,32.5C 131.194,25.8528 125.361,20.5195 118.5,16.5 Z"/></g>
<g><path style="opacity:0.6" fill="#619414" d="M 117.5,129.5 C 113.833,125.167 109.833,121.167 105.5,117.5C 104.241,113.975 102.241,110.975 99.5,108.5C 98.6743,105.515 97.341,102.849 95.5,100.5C 87.0579,76.6678 89.3912,54.0012 102.5,32.5C 104.262,31.7377 105.262,30.4044 105.5,28.5C 109.833,24.5 114.167,20.5 118.5,16.5C 125.361,20.5195 131.194,25.8528 136,32.5C 135.956,30.7215 135.289,29.0548 134,27.5C 129.906,22.8983 125.406,18.8983 120.5,15.5C 142.576,-0.730253 166.576,-3.89692 192.5,6C 229.893,24.2882 244.06,53.7882 235,94.5C 223.783,124.37 202.283,141.203 170.5,145C 150.913,146.191 133.246,141.024 117.5,129.5 Z"/></g>
<g><path style="opacity:0.992" fill="#e6edda" d="M 126.5,61.5 C 128.517,60.126 130.517,60.2926 132.5,62C 130.575,61.8651 128.575,61.6984 126.5,61.5 Z"/></g>
<g><path style="opacity:0.6" fill="#619414" d="M 118.5,15.5 C 113.167,18.8333 108.833,23.1667 105.5,28.5C 103.738,29.2623 102.738,30.5956 102.5,32.5C 91.3066,47.6168 87.1399,64.6168 90,83.5C 90.7758,89.6372 92.6091,95.3039 95.5,100.5C 95.7936,103.754 97.127,106.421 99.5,108.5C 100.723,112.049 102.723,115.049 105.5,117.5C 108.5,122.5 112.5,126.5 117.5,129.5C 118.598,130.397 118.598,131.23 117.5,132C 79.8652,153.471 46.0319,148.638 16,117.5C -2.44183,91.2048 -4.1085,63.8714 11,35.5C 34.3284,3.83596 64.8284,-5.99737 102.5,6C 108.392,8.43749 113.726,11.6042 118.5,15.5 Z"/></g>
<g><path style="opacity:0.925" fill="#dce7ca" d="M 47.5,62.5 C 47.7214,63.7348 48.3881,64.7348 49.5,65.5C 49.1667,65.8333 48.8333,66.1667 48.5,66.5C 47.2798,65.2889 46.1131,65.2889 45,66.5C 44.5078,65.451 44.6744,64.451 45.5,63.5C 44.675,62.6143 43.675,62.281 42.5,62.5C 42.8134,65.2469 42.48,67.9135 41.5,70.5C 40.792,67.6336 40.1253,64.8003 39.5,62C 41.7674,56.8408 45.1007,56.1741 49.5,60C 49.1667,60.1667 48.8333,60.3333 48.5,60.5C 46.0379,57.9469 43.7045,57.9469 41.5,60.5C 43.4951,61.2945 45.4951,61.9612 47.5,62.5 Z"/></g>
<g><path style="opacity:0.949" fill="#dce7cc" d="M 63.5,68.5 C 63.4142,67.5041 63.7476,66.6708 64.5,66C 63.552,65.5172 62.552,65.3505 61.5,65.5C 61.7678,67.099 61.4345,68.4324 60.5,69.5C 60.1667,68.8333 59.8333,68.1667 59.5,67.5C 58.2502,67.5774 57.4169,68.244 57,69.5C 56.3162,68.2161 56.4829,67.0495 57.5,66C 56.451,65.5078 55.451,65.6744 54.5,66.5C 54.1667,65.1667 53.8333,63.8333 53.5,62.5C 52.8333,65.1667 52.1667,67.8333 51.5,70.5C 50.6858,68.2338 50.1858,65.9005 50,63.5C 49.3292,62.7476 48.4959,62.4142 47.5,62.5C 48.531,61.7515 49.6976,61.0848 51,60.5C 56.6667,61.8333 62.3333,61.8333 68,60.5C 68.7504,61.1258 69.5838,61.6258 70.5,62C 68.8339,64.4797 68.0006,67.313 68,70.5C 67.6667,68.1667 67.3333,65.8333 67,63.5C 65.5064,62.2528 64.0064,62.2528 62.5,63.5C 63.325,64.3857 64.325,64.719 65.5,64.5C 65.8432,66.4832 65.1765,67.8166 63.5,68.5 Z"/></g>
<g><path style="opacity:0.949" fill="#e4edd8" d="M 181.5,62.5 C 180.833,62.8333 180.167,63.1667 179.5,63.5C 176.023,62.6773 172.356,62.1773 168.5,62C 174.971,61.163 181.304,60.8297 187.5,61C 185.866,60.5065 184.199,60.3398 182.5,60.5C 182.351,59.448 182.517,58.448 183,57.5C 184.53,58.9202 186.363,59.9202 188.5,60.5C 192.122,61.3253 195.789,61.8253 199.5,62C 198.875,64.8003 198.208,67.6336 197.5,70.5C 196.702,68.9223 196.202,67.2556 196,65.5C 194.56,68.3355 192.727,68.8355 190.5,67C 191.624,66.7508 192.624,66.2508 193.5,65.5C 191.782,62.9861 189.449,62.1528 186.5,63C 189.915,64.1433 190.249,65.81 187.5,68C 189.007,68.8373 189.507,70.0039 189,71.5C 187.421,69.9588 185.587,68.7922 183.5,68C 185.286,67.8038 186.619,66.9705 187.5,65.5C 186.349,64.269 185.183,64.269 184,65.5C 183.383,64.5509 183.549,63.7175 184.5,63C 183.552,62.5172 182.552,62.3505 181.5,62.5 Z"/></g>
<g><path style="opacity:0.8" fill="#c5d7a9" d="M 181.5,62.5 C 181.813,65.2469 181.48,67.9135 180.5,70.5C 179.526,68.2573 179.192,65.924 179.5,63.5C 180.167,63.1667 180.833,62.8333 181.5,62.5 Z"/></g>
<g><path style="opacity:0.6" fill="#6c9c27" d="M 193.5,63.5 C 194.251,62.4265 195.251,62.2599 196.5,63C 195.648,64.7284 194.648,64.895 193.5,63.5 Z"/></g>
<g><path style="opacity:1" fill="#e0ead2" d="M 126.5,61.5 C 126.5,62.5 126.5,63.5 126.5,64.5C 132.842,64.3338 139.175,64.5005 145.5,65C 144.875,67.8003 144.208,70.6336 143.5,73.5C 142.719,72.2713 142.219,70.938 142,69.5C 140.951,68.4829 139.784,68.3162 138.5,69C 139.451,69.7175 139.617,70.5509 139,71.5C 137.812,70.4366 137.312,69.1033 137.5,67.5C 139.288,67.7852 140.955,67.4519 142.5,66.5C 140.257,65.5258 137.924,65.1924 135.5,65.5C 135.664,68.1873 135.497,70.854 135,73.5C 134.363,71.6969 133.197,70.3636 131.5,69.5C 130.289,70.2739 130.289,71.1072 131.5,72C 130.551,72.6172 129.718,72.4506 129,71.5C 128.667,69.9532 129.167,68.6199 130.5,67.5C 129.672,66.5853 128.672,65.9186 127.5,65.5C 126.182,76.0854 125.515,76.0854 125.5,65.5C 123.5,65.5 121.5,65.5 119.5,65.5C 119.351,66.552 119.517,67.552 120,68.5C 122.829,67.3255 123.829,68.3255 123,71.5C 120.36,73.0997 118.193,72.7664 116.5,70.5C 118.166,71.6664 119.833,71.6664 121.5,70.5C 120.311,69.5713 118.978,69.238 117.5,69.5C 117.5,68.1667 117.5,66.8333 117.5,65.5C 115.833,65.5 114.167,65.5 112.5,65.5C 112.664,68.1873 112.497,70.854 112,73.5C 111.882,70.6287 111.216,67.962 110,65.5C 108.199,67.1384 108.032,68.9717 109.5,71C 109.387,72.2798 108.72,73.1131 107.5,73.5C 107.64,71.042 107.306,68.3753 106.5,65.5C 105.833,68.1667 105.167,70.8333 104.5,73.5C 102.118,71.9293 99.4512,71.096 96.5,71C 94.7888,69.8668 94.2888,68.3668 95,66.5C 95.8747,69.2146 97.7081,70.5479 100.5,70.5C 100.646,68.0576 99.813,67.3909 98,68.5C 97.5172,67.552 97.3505,66.552 97.5,65.5C 96.1266,65.6567 94.7932,65.49 93.5,65C 103.995,64.3416 114.329,63.8416 124.5,63.5C 124.855,62.4777 125.522,61.811 126.5,61.5 Z"/></g>
<g><path style="opacity:0.6" fill="#6f9e2b" d="M 59.5,67.5 C 58.2028,64.3966 58.5362,64.0633 60.5,66.5C 60.3764,67.1067 60.0431,67.44 59.5,67.5 Z"/></g>
<g><path style="opacity:0.749" fill="#a2bf74" d="M 63.5,68.5 C 62.8485,69.0906 62.1818,69.7573 61.5,70.5C 60.8933,70.3764 60.56,70.0431 60.5,69.5C 61.4345,68.4324 61.7678,67.099 61.5,65.5C 62.552,65.3505 63.552,65.5172 64.5,66C 63.7476,66.6708 63.4142,67.5041 63.5,68.5 Z"/></g>
<g><path style="opacity:0.839" fill="#6a9a22" d="M 99.5,66.5 C 100.568,65.5655 101.901,65.2322 103.5,65.5C 103.66,67.1992 103.494,68.8659 103,70.5C 102.943,68.0898 101.776,66.7565 99.5,66.5 Z"/></g>
<g><path style="opacity:0.878" fill="#81aa46" d="M 131.5,65.5 C 132.5,65.5 133.5,65.5 134.5,65.5C 134.354,70.4211 133.354,70.4211 131.5,65.5 Z"/></g>
<g><path style="opacity:0.875" fill="#dfe9d0" d="M 168.5,63.5 C 169.927,65.4672 171.761,67.1339 174,68.5C 175.946,68.2373 176.612,67.2373 176,65.5C 174.12,66.9295 172.62,66.5962 171.5,64.5C 172.967,64.277 174.467,63.9437 176,63.5C 178.672,68.5029 177.172,70.3363 171.5,69C 169.84,67.5123 168.84,65.679 168.5,63.5 Z"/></g>
<g><path style="opacity:0.961" fill="#d1dfbb" d="M 116.5,70.5 C 114.727,69.6857 114.227,68.3524 115,66.5C 116.188,67.5634 116.688,68.8967 116.5,70.5 Z"/></g>
<g><path style="opacity:0.949" fill="#e0ead2" d="M 158.5,73.5 C 161.893,73.0617 164.893,73.8951 167.5,76C 165.51,75.8621 163.51,75.3621 161.5,74.5C 158.254,75.1244 157.921,76.2911 160.5,78C 158.834,80.4797 158.001,83.313 158,86.5C 157.704,83.2942 157.204,80.1275 156.5,77C 156.978,75.6974 157.645,74.5307 158.5,73.5 Z"/></g>
<g><path style="opacity:0.949" fill="#e0ead2" d="M 75.5,84.5 C 71.6978,81.973 72.3644,80.1396 77.5,79C 75.1902,78.5034 72.8568,78.3367 70.5,78.5C 70.6641,81.1873 70.4974,83.854 70,86.5C 68.4493,76.0545 67.116,76.0545 66,86.5C 65.867,80.8351 64.2003,80.1685 61,84.5C 57.6876,82.8788 57.6876,82.5455 61,83.5C 61.8651,81.1122 61.0317,79.6122 58.5,79C 55.5,78.3333 52.5,78.3333 49.5,79C 52.1667,80 52.1667,81 49.5,82C 50.3805,82.7083 51.0472,83.5416 51.5,84.5C 48.3807,84.4125 47.3807,83.0791 48.5,80.5C 48.1667,79.5 47.5,78.8333 46.5,78.5C 45.1667,89.1667 43.8333,89.1667 42.5,78.5C 41.8333,81.1667 41.1667,83.8333 40.5,86.5C 39.5,85.8333 38.5,85.1667 37.5,84.5C 33.1803,85.6835 31.0137,84.0168 31,79.5C 31.8747,82.2146 33.7081,83.5479 36.5,83.5C 36.8808,81.0582 36.2141,80.3915 34.5,81.5C 33.6143,80.675 33.281,79.675 33.5,78.5C 33.858,77.1944 37.1913,76.861 43.5,77.5C 43.2366,74.2657 44.7366,72.9324 48,73.5C 50.5443,73.3836 52.711,74.217 54.5,76C 52.0946,76.1484 49.7613,75.6484 47.5,74.5C 45.9996,74.4528 44.9996,75.1195 44.5,76.5C 52.8621,77.8032 61.1955,77.8032 69.5,76.5C 73.1111,77.2618 76.7778,77.7618 80.5,78C 78.8339,80.4797 78.0006,83.313 78,86.5C 77.2917,85.6195 76.4584,84.9528 75.5,84.5 Z"/></g>
<g><path style="opacity:0.949" fill="#e1ead3" d="M 166.5,80.5 C 166.5,79.8333 166.5,79.1667 166.5,78.5C 167.75,78.4226 168.583,77.756 169,76.5C 169.414,76.9574 169.914,77.2907 170.5,77.5C 173.975,73.1156 178.308,72.2823 183.5,75C 184.696,75.6543 184.696,76.1543 183.5,76.5C 179.561,73.8508 175.894,74.0174 172.5,77C 177.5,77.3333 182.5,77.6667 187.5,78C 186.875,80.8003 186.208,83.6336 185.5,86.5C 184.833,84.8333 184.167,83.1667 183.5,81.5C 182.485,84.1677 180.818,84.8344 178.5,83.5C 179.167,83.1667 179.833,82.8333 180.5,82.5C 179.277,81.3861 177.944,81.2195 176.5,82C 177.455,85.3124 177.121,85.3124 175.5,82C 175.82,80.3468 176.82,79.3468 178.5,79C 176.866,78.5065 175.199,78.3398 173.5,78.5C 173.167,89.1667 172.833,89.1667 172.5,78.5C 171.5,78.5 170.5,78.5 169.5,78.5C 169.813,81.2469 169.48,83.9135 168.5,86.5C 166.224,85.7868 163.891,85.2868 161.5,85C 160.289,84.1072 160.289,83.2739 161.5,82.5C 163.523,84.1733 165.856,84.8399 168.5,84.5C 168.843,82.5168 168.176,81.1834 166.5,80.5 Z"/></g>
<g><path style="opacity:0.949" fill="#d7e4c4" d="M 194.5,76.5 C 199.915,77.0358 205.581,77.5358 211.5,78C 210.718,80.7405 210.218,83.5738 210,86.5C 209.798,84.7444 209.298,83.0777 208.5,81.5C 206.865,82.3302 205.198,82.4969 203.5,82C 204.451,82.7175 204.617,83.5509 204,84.5C 201.684,83.4776 201.184,81.9776 202.5,80C 204.693,80.5697 206.693,80.2363 208.5,79C 205.854,78.5026 203.187,78.3359 200.5,78.5C 200.136,89.0874 199.136,89.0874 197.5,78.5C 196.833,81.1667 196.167,83.8333 195.5,86.5C 194.692,84.5767 194.192,82.5767 194,80.5C 192.981,81.6872 191.814,82.6872 190.5,83.5C 186.277,80.7259 186.611,78.7259 191.5,77.5C 193.417,78.9028 194.417,78.5695 194.5,76.5 Z"/></g>
<g><path style="opacity:0.6" fill="#6c9c27" d="M 35.5,79.5 C 36.5676,78.5655 37.901,78.2322 39.5,78.5C 39.6602,80.1992 39.4935,81.8659 39,83.5C 38.9428,81.0898 37.7761,79.7565 35.5,79.5 Z"/></g>
<g><path style="opacity:0.6" fill="#75a234" d="M 61.5,79.5 C 62.7082,78.218 64.0416,78.218 65.5,79.5C 64.3152,79.8764 62.9819,79.8764 61.5,79.5 Z"/></g>
<g><path style="opacity:0.924" fill="#e3ecd6" d="M 166.5,78.5 C 162.711,78.7373 162.711,79.4039 166.5,80.5C 164.542,84.3314 162.875,83.998 161.5,79.5C 162.913,77.3929 164.58,77.0595 166.5,78.5 Z"/></g>
<g><path style="opacity:0.627" fill="#77a336" d="M 190.5,78.5 C 192.337,78.6395 192.67,79.3061 191.5,80.5C 190.702,80.0431 190.369,79.3764 190.5,78.5 Z"/></g>
<g><path style="opacity:0.949" fill="#e5edd9" d="M 51.5,84.5 C 52.4511,83.0813 52.7845,81.4147 52.5,79.5C 57.4949,79.2133 58.4949,80.8799 55.5,84.5C 54.3961,83.3687 54.7295,82.5354 56.5,82C 55.9747,81.3076 55.3081,80.8076 54.5,80.5C 53.6922,82.4233 53.1922,84.4233 53,86.5C 52.2828,85.9558 51.7828,85.2891 51.5,84.5 Z"/></g>
<g><path style="opacity:0.753" fill="#92b45f" d="M 166.5,78.5 C 166.5,79.1667 166.5,79.8333 166.5,80.5C 162.711,79.4039 162.711,78.7373 166.5,78.5 Z"/></g>
<g><path style="opacity:0.6" fill="#6d9c28" d="M 75.5,80.5 C 77.2252,80.8425 77.7252,81.8425 77,83.5C 74.8424,82.9498 74.3424,81.9498 75.5,80.5 Z"/></g>
<g><path style="opacity:0.8" fill="#c7d8ab" d="M 75.5,84.5 C 75.3605,86.337 74.6939,86.6704 73.5,85.5C 73.9569,84.7025 74.6236,84.3691 75.5,84.5 Z"/></g>
<g><path style="opacity:0.776" fill="#8fb358" d="M 138.5,35.5 C 146.33,46.4643 149.997,58.7976 149.5,72.5C 149.655,87.5315 145.488,101.198 137,113.5C 140.469,106.535 143.469,99.202 146,91.5C 150.461,71.8914 147.961,53.2247 138.5,35.5 Z"/></g>
<g><path style="opacity:0.941" fill="#dae6c8" d="M 95.5,100.5 C 97.341,102.849 98.6743,105.515 99.5,108.5C 97.127,106.421 95.7936,103.754 95.5,100.5 Z"/></g>
<g><path style="opacity:0.935" fill="#d7e3c3" d="M 99.5,108.5 C 102.241,110.975 104.241,113.975 105.5,117.5C 102.723,115.049 100.723,112.049 99.5,108.5 Z"/></g>
<g><path style="opacity:0.847" fill="#d4e2bf" d="M 105.5,117.5 C 109.833,121.167 113.833,125.167 117.5,129.5C 112.5,126.5 108.5,122.5 105.5,117.5 Z"/></g>
<g><path style="opacity:0.925" fill="#8fb458" d="M 132.5,117.5 C 133.525,117.897 133.692,118.563 133,119.5C 129.833,122.667 126.667,125.833 123.5,129C 122.833,129.667 122.167,129.667 121.5,129C 125.37,125.298 129.037,121.464 132.5,117.5 Z"/></g>
</svg>
