<svg width="21" height="21" viewBox="0 0 21 21" fill="none" xmlns="http://www.w3.org/2000/svg">
<path d="M0.649414 9.00001C0.649414 7.33335 1.02069 5.80418 1.76326 4.41251C2.50582 3.02085 3.50285 1.86668 4.75436 0.950012L5.93078 2.55001C4.92957 3.28335 4.13278 4.20835 3.5404 5.32501C2.94802 6.44168 2.65183 7.66668 2.65183 9.00001H0.649414ZM18.6711 9.00001C18.6711 7.66668 18.3749 6.44168 17.7826 5.32501C17.1902 4.20835 16.3934 3.28335 15.3922 2.55001L16.5686 0.950012C17.8201 1.86668 18.8171 3.02085 19.5597 4.41251C20.3023 5.80418 20.6735 7.33335 20.6735 9.00001H18.6711ZM2.65183 18V16H4.65424V9.00001C4.65424 7.61668 5.07141 6.38751 5.90575 5.31251C6.74009 4.23751 7.82473 3.53335 9.15967 3.20001V2.50001C9.15967 2.08335 9.30568 1.72918 9.5977 1.43751C9.88971 1.14585 10.2443 1.00001 10.6615 1.00001C11.0786 1.00001 11.4332 1.14585 11.7253 1.43751C12.0173 1.72918 12.1633 2.08335 12.1633 2.50001V3.20001C13.4982 3.53335 14.5829 4.23751 15.4172 5.31251C16.2515 6.38751 16.6687 7.61668 16.6687 9.00001V16H18.6711V18H2.65183ZM10.6615 21C10.1108 21 9.63941 20.8042 9.24727 20.4125C8.85513 20.0208 8.65906 19.55 8.65906 19H12.6639C12.6639 19.55 12.4678 20.0208 12.0757 20.4125C11.6835 20.8042 11.2121 21 10.6615 21ZM6.65665 16H14.6663V9.00001C14.6663 7.90001 14.2742 6.95835 13.4899 6.17501C12.7056 5.39168 11.7628 5.00001 10.6615 5.00001C9.56015 5.00001 8.61735 5.39168 7.83307 6.17501C7.04879 6.95835 6.65665 7.90001 6.65665 9.00001V16Z" fill="#1C1B1F"/>
</svg>
