<?xml version="1.0" encoding="UTF-8"?>
<!DOCTYPE svg PUBLIC "-//W3C//DTD SVG 1.1//EN" "http://www.w3.org/Graphics/SVG/1.1/DTD/svg11.dtd">
<svg xmlns="http://www.w3.org/2000/svg" version="1.1" width="126px" height="74px" style="shape-rendering:geometricPrecision; text-rendering:geometricPrecision; image-rendering:optimizeQuality; fill-rule:evenodd; clip-rule:evenodd" xmlns:xlink="http://www.w3.org/1999/xlink">
<g><path style="opacity:0.594" fill="#323232" d="M 86.5,-0.5 C 87.1667,-0.5 87.8333,-0.5 88.5,-0.5C 88.5,0.5 88.5,1.5 88.5,2.5C 94.985,2.54573 101.485,2.21239 108,1.5C 108.925,2.04651 109.758,2.71317 110.5,3.5C 109.94,5.85365 109.273,8.18699 108.5,10.5C 107.038,2.57624 105.871,2.57624 105,10.5C 104.581,9.32791 103.915,8.32791 103,7.5C 101.519,10.0799 99.352,10.9132 96.5,10C 95.7511,8.26631 95.2511,6.43298 95,4.5C 94.1289,12.4238 92.9623,12.4238 91.5,4.5C 91.3459,5.90912 91.1792,7.57579 91,9.5C 90.1074,10.0814 89.1074,10.4148 88,10.5C 86.3313,9.83384 84.8313,9.83384 83.5,10.5C 82.6922,8.5767 82.1922,6.5767 82,4.5C 81.8078,6.5767 81.3078,8.5767 80.5,10.5C 79.8516,6.36213 78.1849,5.69547 75.5,8.5C 72.285,3.62068 73.4517,1.95402 79,3.5C 79.3333,2.83333 79.6667,2.16667 80,1.5C 82.072,1.25751 84.2386,1.59084 86.5,2.5C 86.5,1.5 86.5,0.5 86.5,-0.5 Z M 84.5,4.5 C 88.2998,4.81942 88.4665,5.81942 85,7.5C 84.5172,6.55198 84.3505,5.55198 84.5,4.5 Z M 99.5,8.5 C 98.1054,10.0544 97.4387,9.72102 97.5,7.5C 97.7466,4.91846 99.08,4.08512 101.5,5C 100.027,5.70956 99.3601,6.87623 99.5,8.5 Z"/></g>
<g><path style="opacity:0.555" fill="#323232" d="M 44.5,1.5 C 52.4701,2.83064 60.4701,2.83064 68.5,1.5C 69.5,1.83333 70.1667,2.5 70.5,3.5C 69.9399,5.85365 69.2733,8.18699 68.5,10.5C 67.7022,8.92226 67.2022,7.2556 67,5.5C 66.6121,6.42797 65.9454,7.09464 65,7.5C 63.8382,6.81324 62.6716,6.64657 61.5,7C 62.7596,8.81377 62.7596,10.6471 61.5,12.5C 59.2906,11.8938 57.124,11.2272 55,10.5C 55.226,2.62147 54.3927,2.62147 52.5,10.5C 51.8076,9.97473 51.3076,9.30806 51,8.5C 50.3946,10.4812 49.3946,10.8146 48,9.5C 47.3162,8.21613 47.4829,7.04946 48.5,6C 48,5.5 47.5,5 47,4.5C 46,12.5 45,12.5 44,4.5C 43.5045,6.4727 43.3379,8.4727 43.5,10.5C 37.0776,11.332 33.4109,8.66534 32.5,2.5C 36.7016,2.81675 40.7016,2.48342 44.5,1.5 Z M 58.5,8.5 C 59.0768,7.22671 59.7435,7.22671 60.5,8.5C 60.0302,9.46295 59.3635,9.46295 58.5,8.5 Z"/></g>
<g><path style="opacity:0.817" fill="#006a4d" d="M -0.5,8.5 C -0.5,7.16667 -0.5,5.83333 -0.5,4.5C 7.75476,3.36565 16.0881,3.19898 24.5,4C 25.8333,5.66667 25.8333,7.33333 24.5,9C 16.0881,9.80102 7.75476,9.63435 -0.5,8.5 Z"/></g>
<g><path style="opacity:0.564" fill="#323232" d="M 76.5,32.5 C 76.1667,33.1667 75.8333,33.8333 75.5,34.5C 74.115,42.1839 72.9484,42.1839 72,34.5C 71.2859,41.5424 70.2859,41.8758 69,35.5C 68.0475,37.5922 66.7141,37.9255 65,36.5C 63.2858,40.2205 60.9525,40.8872 58,38.5C 57.586,38.9574 57.086,39.2907 56.5,39.5C 54.7988,38.198 53.6322,36.5313 53,34.5C 52.8078,36.5767 52.3078,38.5767 51.5,40.5C 50.6384,37.5799 48.9717,36.5799 46.5,37.5C 46.0024,36.3966 45.6691,35.3966 45.5,34.5C 44.0377,42.4238 42.8711,42.4238 42,34.5C 41.8142,36.9005 41.3142,39.2338 40.5,41.5C 38.2534,40.6258 35.9201,40.2924 33.5,40.5C 33.1924,38.076 33.5258,35.7427 34.5,33.5C 36.0421,32.2532 37.5421,32.2532 39,33.5C 41.6525,29.9673 45.1525,28.8007 49.5,30C 50.1258,30.7504 50.6258,31.5838 51,32.5C 60.1563,33.4764 68.6563,33.4764 76.5,32.5 Z M 45.5,30.5 C 49.4557,33.4199 49.1224,33.9199 44.5,32C 45.056,31.6174 45.3893,31.1174 45.5,30.5 Z M 38.5,36.5 C 39.7733,37.0768 39.7733,37.7435 38.5,38.5C 37.537,38.0302 37.537,37.3635 38.5,36.5 Z"/></g>
<g><path style="opacity:0.591" fill="#323232" d="M 75.5,34.5 C 75.8333,33.8333 76.1667,33.1667 76.5,32.5C 76.5,31.5 76.5,30.5 76.5,29.5C 79.8499,29.335 83.1832,29.5017 86.5,30C 86.0426,30.414 85.7093,30.914 85.5,31.5C 88.1667,32.1667 90.8333,32.8333 93.5,33.5C 92.9399,35.8537 92.2733,38.187 91.5,40.5C 90.0944,39.3318 88.9277,39.6652 88,41.5C 86.8441,38.9813 86.3441,36.648 86.5,34.5C 85.0377,42.4238 83.8711,42.4238 83,34.5C 82.5045,36.4727 82.3379,38.4727 82.5,40.5C 78.6531,40.1003 76.3198,38.1003 75.5,34.5 Z"/></g>
<g><path style="opacity:0.477" fill="#323232" d="M 115.5,31.5 C 117.802,32.8217 120.135,32.8217 122.5,31.5C 123.5,31.8333 124.167,32.5 124.5,33.5C 123.94,35.8537 123.273,38.187 122.5,40.5C 121.353,32.5794 120.52,32.5794 120,40.5C 119.586,40.9574 119.086,41.2907 118.5,41.5C 114.515,40.1847 111.682,38.1847 110,35.5C 108.941,35.6301 108.108,36.1301 107.5,37C 109.014,38.439 109.347,39.939 108.5,41.5C 106.051,39.3298 104.551,36.9965 104,34.5C 103.808,36.5767 103.308,38.5767 102.5,40.5C 101.719,39.2713 101.219,37.938 101,36.5C 99.9148,39.8175 98.4148,40.1508 96.5,37.5C 97.1667,37.1667 97.8333,36.8333 98.5,36.5C 97.2634,35.7193 96.2634,34.7193 95.5,33.5C 102.364,32.7024 108.864,32.7024 115,33.5C 115.464,32.9056 115.631,32.2389 115.5,31.5 Z"/></g>
<g><path style="opacity:0.95" fill="#9764bc" d="M -0.5,38.5 C -0.5,37.1667 -0.5,35.8333 -0.5,34.5C 7.75476,33.3656 16.0881,33.199 24.5,34C 25.8333,35.6667 25.8333,37.3333 24.5,39C 16.0881,39.801 7.75476,39.6344 -0.5,38.5 Z"/></g>
<g><path style="opacity:0.564" fill="#323232" d="M 34.5,59.5 C 38.906,60.7031 43.406,61.7031 48,62.5C 54.0847,61.6993 60.2514,62.0327 66.5,63.5C 65.9598,64.7481 65.2931,65.9148 64.5,67C 65.8333,68.3333 65.8333,69.6667 64.5,71C 60.8339,72.271 58.3339,71.1044 57,67.5C 56.7508,68.624 56.2508,69.624 55.5,70.5C 54.5344,68.604 54.2011,66.604 54.5,64.5C 53.325,64.281 52.325,64.6143 51.5,65.5C 53.3446,67.5364 53.8446,69.8697 53,72.5C 50.5067,72.5487 48.0067,71.7154 45.5,70C 45.8333,69.6667 46.1667,69.3333 46.5,69C 45.0325,67.9025 44.1992,66.4025 44,64.5C 43.8078,66.5767 43.3078,68.5767 42.5,70.5C 41.7492,69.624 41.2492,68.624 41,67.5C 39.3883,70.0789 37.8883,70.0789 36.5,67.5C 37.1667,67.1667 37.8333,66.8333 38.5,66.5C 37.7579,65.7132 36.9246,65.0465 36,64.5C 35.8078,66.5767 35.3078,68.5767 34.5,70.5C 32.5448,66.6251 32.5448,62.9585 34.5,59.5 Z M 36.5,60.5 C 39.99,62.3364 39.3233,62.8364 34.5,62C 35.4158,61.7216 36.0825,61.2216 36.5,60.5 Z M 56.5,64.5 C 58.337,64.6395 58.6704,65.3061 57.5,66.5C 56.7025,66.0431 56.3691,65.3764 56.5,64.5 Z"/></g>
<g><path style="opacity:0.569" fill="#323232" d="M 74.5,61.5 C 79.4884,62.0646 84.4884,62.7313 89.5,63.5C 88.1189,65.6349 87.1189,67.9682 86.5,70.5C 83.9982,70.3787 81.3315,70.2121 78.5,70C 77.7511,68.2663 77.2511,66.433 77,64.5C 76.8078,66.5767 76.3078,68.5767 75.5,70.5C 74.7189,69.2713 74.2189,67.938 74,66.5C 73.3109,67.3567 72.4776,68.0233 71.5,68.5C 67.634,64.529 68.4673,62.8623 74,63.5C 74.4643,62.9056 74.631,62.2389 74.5,61.5 Z M 80.5,64.5 C 83.7973,64.3287 84.1306,64.9954 81.5,66.5C 82.3256,67.451 82.4922,68.451 82,69.5C 81.3333,68.1667 80.6667,68.1667 80,69.5C 79.3603,67.735 79.5269,66.0683 80.5,64.5 Z"/></g>
<g><path style="opacity:0.995" fill="#ed6a75" d="M -0.5,68.5 C -0.5,67.1667 -0.5,65.8333 -0.5,64.5C 7.75476,63.3656 16.0881,63.199 24.5,64C 25.8333,65.6667 25.8333,67.3333 24.5,69C 16.0881,69.801 7.75476,69.6344 -0.5,68.5 Z"/></g>
</svg>
