<?xml version="1.0" encoding="UTF-8"?>
<!DOCTYPE svg PUBLIC "-//W3C//DTD SVG 1.1//EN" "http://www.w3.org/Graphics/SVG/1.1/DTD/svg11.dtd">
<svg xmlns="http://www.w3.org/2000/svg" version="1.1" width="413px" height="233px" style="shape-rendering:geometricPrecision; text-rendering:geometricPrecision; image-rendering:optimizeQuality; fill-rule:evenodd; clip-rule:evenodd" xmlns:xlink="http://www.w3.org/1999/xlink">
<g><path style="opacity:1" fill="#d0d0d0" d="M -0.5,-0.5 C 137.167,-0.5 274.833,-0.5 412.5,-0.5C 412.5,77.1667 412.5,154.833 412.5,232.5C 274.833,232.5 137.167,232.5 -0.5,232.5C -0.5,154.833 -0.5,77.1667 -0.5,-0.5 Z"/></g>
<g><path style="opacity:1" fill="#fdfdfd" d="M 2.5,0.5 C 138.167,0.333334 273.834,0.500001 409.5,1C 410,1.5 410.5,2 411,2.5C 411.667,78.1667 411.667,153.833 411,229.5C 410.5,230 410,230.5 409.5,231C 273.833,231.667 138.167,231.667 2.5,231C 2,230.5 1.5,230 1,229.5C 0.833333,191.5 0.666667,153.5 0.5,115.5C 0.505976,76.9549 1.17264,38.6216 2.5,0.5 Z"/></g>
<g><path style="opacity:1" fill="#aec288" d="M 271.5,192.5 C 259.001,196.74 246.334,197.406 233.5,194.5C 246.251,194.926 258.918,194.259 271.5,192.5 Z"/></g>
<g><path style="opacity:1" fill="#cee8b0" d="M 185.5,161.5 C 187.887,163.913 190.054,166.58 192,169.5C 195.761,173.77 199.928,177.437 204.5,180.5C 204.5,180.833 204.5,181.167 204.5,181.5C 203.833,181.833 203.167,182.167 202.5,182.5C 198.87,178.369 195.037,174.369 191,170.5C 188.642,167.778 186.809,164.778 185.5,161.5 Z"/></g>
<g><path style="opacity:1" fill="#7aa53a" d="M 204.5,67.5 C 207.372,68.5256 209.872,70.1923 212,72.5C 229.634,90.6808 236.3,112.347 232,137.5C 229.28,150.606 223.614,162.272 215,172.5C 211.581,175.438 208.081,178.105 204.5,180.5C 199.928,177.437 195.761,173.77 192,169.5C 190.054,166.58 187.887,163.913 185.5,161.5C 182.233,154.981 179.566,148.314 177.5,141.5C 174.426,128.022 174.926,114.689 179,101.5C 181.179,96.4785 183.346,91.4785 185.5,86.5C 190.827,79.1728 197.161,72.8394 204.5,67.5 Z"/></g>
<g><path style="opacity:1" fill="#dbeebb" d="M 222.5,121.5 C 222.414,120.504 222.748,119.671 223.5,119C 224.938,118.781 226.271,118.281 227.5,117.5C 225.257,116.526 222.924,116.192 220.5,116.5C 220.5,118.5 220.5,120.5 220.5,122.5C 220.631,123.239 220.464,123.906 220,124.5C 218.86,120.747 217.026,120.081 214.5,122.5C 214.167,122.167 213.833,121.833 213.5,121.5C 216.5,119.167 216.167,117.5 212.5,116.5C 211.682,119.107 211.182,121.774 211,124.5C 210.536,123.906 210.369,123.239 210.5,122.5C 210.5,120.5 210.5,118.5 210.5,116.5C 208.5,116.5 206.5,116.5 204.5,116.5C 204.351,117.552 204.517,118.552 205,119.5C 207.149,118.16 208.316,118.827 208.5,121.5C 207.448,122.53 206.114,123.197 204.5,123.5C 202.97,123.36 201.97,122.693 201.5,121.5C 203.166,122.666 204.833,122.666 206.5,121.5C 205.311,120.571 203.978,120.238 202.5,120.5C 202.5,119.167 202.5,117.833 202.5,116.5C 200.585,116.216 198.919,116.549 197.5,117.5C 197.663,119.857 197.497,122.19 197,124.5C 196.818,121.774 196.318,119.107 195.5,116.5C 194.28,116.887 193.613,117.72 193.5,119C 194.33,120.465 194.496,121.965 194,123.5C 193.023,124.774 192.189,124.774 191.5,123.5C 192.797,121.307 192.797,118.973 191.5,116.5C 190.893,116.624 190.56,116.957 190.5,117.5C 190.808,119.924 190.474,122.257 189.5,124.5C 188.5,123.833 187.5,123.167 186.5,122.5C 182.18,123.683 180.014,122.017 180,117.5C 180.875,120.215 182.708,121.548 185.5,121.5C 185.646,119.058 184.813,118.391 183,119.5C 182.517,118.552 182.351,117.552 182.5,116.5C 181.127,116.657 179.793,116.49 178.5,116C 188.995,115.342 199.329,114.842 209.5,114.5C 211.644,111.238 214.31,110.738 217.5,113C 216.328,113.353 215.162,113.187 214,112.5C 212.72,112.613 211.887,113.28 211.5,114.5C 217.807,115.331 224.141,115.831 230.5,116C 229.887,118.147 229.221,120.314 228.5,122.5C 226.663,118.787 225.163,118.787 224,122.5C 223.617,121.944 223.117,121.611 222.5,121.5 Z"/></g>
<g><path style="opacity:1" fill="#849d5d" d="M 222.5,121.5 C 221.833,121.833 221.167,122.167 220.5,122.5C 220.5,120.5 220.5,118.5 220.5,116.5C 222.924,116.192 225.257,116.526 227.5,117.5C 226.271,118.281 224.938,118.781 223.5,119C 222.748,119.671 222.414,120.504 222.5,121.5 Z"/></g>
<g><path style="opacity:1" fill="#96ae73" d="M 197.5,117.5 C 198.919,116.549 200.585,116.216 202.5,116.5C 202.5,117.833 202.5,119.167 202.5,120.5C 203.978,120.238 205.311,120.571 206.5,121.5C 204.833,122.666 203.166,122.666 201.5,121.5C 200.333,119.959 199,118.625 197.5,117.5 Z"/></g>
<g><path style="opacity:1" fill="#89a06e" d="M 210.5,122.5 C 209.833,122.167 209.167,121.833 208.5,121.5C 208.316,118.827 207.149,118.16 205,119.5C 204.517,118.552 204.351,117.552 204.5,116.5C 206.5,116.5 208.5,116.5 210.5,116.5C 210.5,118.5 210.5,120.5 210.5,122.5 Z"/></g>
<g><path style="opacity:1" fill="#90af6a" d="M 216.5,116.5 C 217.5,116.5 218.5,116.5 219.5,116.5C 219.354,121.421 218.354,121.421 216.5,116.5 Z"/></g>
<g><path style="opacity:1" fill="#819772" d="M 190.5,117.5 C 190.56,116.957 190.893,116.624 191.5,116.5C 192.797,118.973 192.797,121.307 191.5,123.5C 191.795,121.265 191.461,119.265 190.5,117.5 Z"/></g>
<g><path style="opacity:1" fill="#879b70" d="M 184.5,117.5 C 185.568,116.566 186.901,116.232 188.5,116.5C 188.66,118.199 188.494,119.866 188,121.5C 187.943,119.09 186.776,117.756 184.5,117.5 Z"/></g>
<g><path style="opacity:1" fill="#d9efbf" d="M 185.5,86.5 C 183.346,91.4785 181.179,96.4785 179,101.5C 174.926,114.689 174.426,128.022 177.5,141.5C 176.167,139.697 175.333,137.031 175,133.5C 173.32,120.03 174.987,107.03 180,94.5C 181.276,91.4006 183.11,88.7339 185.5,86.5 Z"/></g>
<g><path style="opacity:1" fill="#aac086" d="M 315.5,91.5 C 319,97.6624 321.333,104.329 322.5,111.5C 321.024,106.958 318.857,102.625 316,98.5C 315.503,96.1902 315.337,93.8568 315.5,91.5 Z"/></g>
<g><path style="opacity:1" fill="#b8d397" d="M 201.5,64.5 C 202.5,65.1667 203.5,65.8333 204.5,66.5C 204.5,66.8333 204.5,67.1667 204.5,67.5C 197.161,72.8394 190.827,79.1728 185.5,86.5C 186.102,82.6985 187.102,79.0319 188.5,75.5C 190.199,75.6602 191.866,75.4935 193.5,75C 197.214,72.1424 199.88,68.6424 201.5,64.5 Z"/></g>
<g><path style="opacity:1" fill="#a0bf72" d="M 201.5,64.5 C 199.88,68.6424 197.214,72.1424 193.5,75C 191.866,75.4935 190.199,75.6602 188.5,75.5C 187.102,79.0319 186.102,82.6985 185.5,86.5C 183.11,88.7339 181.276,91.4006 180,94.5C 174.987,107.03 173.32,120.03 175,133.5C 175.333,137.031 176.167,139.697 177.5,141.5C 179.566,148.314 182.233,154.981 185.5,161.5C 186.809,164.778 188.642,167.778 191,170.5C 195.037,174.369 198.87,178.369 202.5,182.5C 193.556,188.88 183.556,193.046 172.5,195C 131.032,199.36 102.865,182.194 88,143.5C 79.9401,96.9875 98.4401,66.8208 143.5,53C 164.406,49.4258 183.739,53.2591 201.5,64.5 Z"/></g>
<g><path style="opacity:1" fill="#e4f5cc" d="M 135.5,124.5 C 133.282,125.016 131.282,126.016 129.5,127.5C 141.148,128.499 152.814,128.832 164.5,128.5C 164.938,128.435 165.272,128.601 165.5,129C 163.834,131.48 163.001,134.313 163,137.5C 162.808,135.423 162.308,133.423 161.5,131.5C 160.281,132.263 159.281,133.263 158.5,134.5C 157.953,131.849 159.286,130.349 162.5,130C 160.19,129.503 157.857,129.337 155.5,129.5C 155.663,131.857 155.497,134.19 155,136.5C 153.446,127.385 152.112,127.385 151,136.5C 150.727,134.899 150.227,133.399 149.5,132C 150.902,130.658 150.569,129.824 148.5,129.5C 147.833,129.667 147.167,129.833 146.5,130C 149.092,132.011 148.925,133.844 146,135.5C 145.5,135.167 145,134.833 144.5,134.5C 145.441,134.511 146.108,134.011 146.5,133C 146.355,132.228 146.022,131.561 145.5,131C 142.298,129.517 138.964,129.183 135.5,130C 136.815,131.395 136.481,132.395 134.5,133C 135.381,133.708 136.047,134.542 136.5,135.5C 134.91,135.372 133.577,134.705 132.5,133.5C 133.711,132.28 133.711,131.113 132.5,130C 128.5,129.333 124.5,129.333 120.5,130C 121.416,130.374 122.25,130.874 123,131.5C 124.122,133.42 124.956,135.42 125.5,137.5C 124.518,136.859 123.518,136.193 122.5,135.5C 118.18,136.683 116.014,135.017 116,130.5C 116.875,133.215 118.708,134.548 121.5,134.5C 121.881,132.058 121.214,131.391 119.5,132.5C 118.614,131.675 118.281,130.675 118.5,129.5C 118.858,128.194 122.191,127.861 128.5,128.5C 128.33,127.178 128.663,126.011 129.5,125C 131.473,124.505 133.473,124.338 135.5,124.5 Z"/></g>
<g><path style="opacity:1" fill="#e4f8c5" d="M 136.5,136.5 C 136.5,136.167 136.5,135.833 136.5,135.5C 137.451,134.081 137.784,132.415 137.5,130.5C 142.495,130.213 143.495,131.88 140.5,135.5C 139.707,134.645 140.04,133.811 141.5,133C 140.975,132.308 140.308,131.808 139.5,131.5C 138.692,133.423 138.192,135.423 138,137.5C 137.617,136.944 137.117,136.611 136.5,136.5 Z"/></g>
<g><path style="opacity:1" fill="#b8cd96" d="M 136.5,135.5 C 136.5,135.833 136.5,136.167 136.5,136.5C 133.373,135.609 130.373,135.275 127.5,135.5C 126.818,136.243 126.151,136.909 125.5,137.5C 124.956,135.42 124.122,133.42 123,131.5C 122.25,130.874 121.416,130.374 120.5,130C 124.5,129.333 128.5,129.333 132.5,130C 133.711,131.113 133.711,132.28 132.5,133.5C 133.577,134.705 134.91,135.372 136.5,135.5 Z"/></g>
<g><path style="opacity:1" fill="#acbe92" d="M 135.5,124.5 C 136.833,124.5 138.167,124.5 139.5,124.5C 139.5,125.5 139.5,126.5 139.5,127.5C 148.017,127.174 156.35,127.507 164.5,128.5C 152.814,128.832 141.148,128.499 129.5,127.5C 131.282,126.016 133.282,125.016 135.5,124.5 Z"/></g>
<g><path style="opacity:1" fill="#dceec5" d="M 152.5,121.5 C 152.768,118.881 152.435,116.381 151.5,114C 150.056,113.219 148.723,113.386 147.5,114.5C 150.131,116.005 149.797,116.671 146.5,116.5C 147.055,120.584 146.055,121.251 143.5,118.5C 142.808,119.025 142.308,119.692 142,120.5C 138.778,110.98 137.278,111.313 137.5,121.5C 135.803,119.695 134.97,117.361 135,114.5C 134.667,114.167 134.333,113.833 134,113.5C 133.517,114.448 133.351,115.448 133.5,116.5C 132.5,116.5 131.5,116.5 130.5,116.5C 130.5,115.5 130.5,114.5 130.5,113.5C 129.5,113.5 128.5,113.5 127.5,113.5C 127.813,116.247 127.48,118.914 126.5,121.5C 125.792,118.634 125.125,115.8 124.5,113C 125.201,108.916 127.535,107.583 131.5,109C 124.67,110.868 124.837,112.368 132,113.5C 133.333,112.833 134.667,112.167 136,111.5C 141.667,112.833 147.333,112.833 153,111.5C 153.75,112.126 154.584,112.626 155.5,113C 153.959,115.677 152.959,118.51 152.5,121.5 Z"/></g>
<g><path style="opacity:1" fill="#acc188" d="M 152.5,121.5 C 148.5,121.5 144.5,121.5 140.5,121.5C 140.762,120.022 140.429,118.689 139.5,117.5C 138.828,118.949 138.161,120.282 137.5,121.5C 137.278,111.313 138.778,110.98 142,120.5C 142.308,119.692 142.808,119.025 143.5,118.5C 146.055,121.251 147.055,120.584 146.5,116.5C 149.797,116.671 150.131,116.005 147.5,114.5C 148.723,113.386 150.056,113.219 151.5,114C 152.435,116.381 152.768,118.881 152.5,121.5 Z"/></g>
<g><path style="opacity:1" fill="#acc186" d="M 239.5,52.5 C 256.624,50.0588 272.624,53.3921 287.5,62.5C 278.492,59.328 269.492,56.1613 260.5,53C 253.508,52.5004 246.508,52.3337 239.5,52.5 Z"/></g>
<g><path style="opacity:1" fill="#a0bf71" d="M 239.5,52.5 C 246.508,52.3337 253.508,52.5004 260.5,53C 269.492,56.1613 278.492,59.328 287.5,62.5C 299.721,69.1883 309.055,78.855 315.5,91.5C 315.337,93.8568 315.503,96.1902 316,98.5C 318.857,102.625 321.024,106.958 322.5,111.5C 325.743,134.734 319.577,155.067 304,172.5C 303.517,173.448 303.351,174.448 303.5,175.5C 299.869,176.608 296.869,178.774 294.5,182C 287.239,186.635 279.572,190.135 271.5,192.5C 258.918,194.259 246.251,194.926 233.5,194.5C 222.709,192.603 213.042,188.27 204.5,181.5C 204.5,181.167 204.5,180.833 204.5,180.5C 208.081,178.105 211.581,175.438 215,172.5C 223.614,162.272 229.28,150.606 232,137.5C 236.3,112.347 229.634,90.6808 212,72.5C 209.872,70.1923 207.372,68.5256 204.5,67.5C 204.5,67.1667 204.5,66.8333 204.5,66.5C 214.889,58.7023 226.556,54.0356 239.5,52.5 Z"/></g>
<g><path style="opacity:1" fill="#a7be84" d="M 263.5,135.5 C 260.5,135.167 259.167,136.5 259.5,139.5C 256.918,139.975 254.918,139.308 253.5,137.5C 254.473,135.052 254.806,132.385 254.5,129.5C 255.5,129.5 256.5,129.5 257.5,129.5C 257.833,140.167 258.167,140.167 258.5,129.5C 260.199,129.34 261.866,129.506 263.5,130C 260.766,130.718 260.1,132.218 261.5,134.5C 262.696,134.154 262.696,133.654 261.5,133C 262.944,132.219 264.277,132.386 265.5,133.5C 265.154,134.696 264.654,134.696 264,133.5C 263.536,134.094 263.369,134.761 263.5,135.5 Z"/></g>
<g><path style="opacity:1" fill="#dbecc2" d="M 249.5,125.5 C 251.757,125.962 253.757,126.962 255.5,128.5C 256.283,126.712 257.616,125.712 259.5,125.5C 259.047,126.458 258.381,127.292 257.5,128C 262.5,128.333 267.5,128.667 272.5,129C 271.62,130.356 271.286,131.856 271.5,133.5C 271.762,134.978 271.429,136.311 270.5,137.5C 269.614,136.675 269.281,135.675 269.5,134.5C 267.5,134.833 265.5,135.167 263.5,135.5C 263.369,134.761 263.536,134.094 264,133.5C 264.654,134.696 265.154,134.696 265.5,133.5C 264.277,132.386 262.944,132.219 261.5,133C 262.696,133.654 262.696,134.154 261.5,134.5C 260.1,132.218 260.766,130.718 263.5,130C 261.866,129.506 260.199,129.34 258.5,129.5C 258.167,140.167 257.833,140.167 257.5,129.5C 256.5,129.5 255.5,129.5 254.5,129.5C 254.806,132.385 254.473,135.052 253.5,137.5C 250.092,138.172 247.425,137.172 245.5,134.5C 245.833,134.167 246.167,133.833 246.5,133.5C 248.523,135.173 250.856,135.84 253.5,135.5C 253.721,131.205 252.388,130.538 249.5,133.5C 245.556,130.528 246.223,128.694 251.5,128C 250.619,127.292 249.953,126.458 249.5,125.5 Z"/></g>
<g><path style="opacity:1" fill="#d1e4bb" d="M 279.5,127.5 C 284.915,128.036 290.581,128.536 296.5,129C 295.875,131.8 295.208,134.634 294.5,137.5C 293.5,135.167 291.833,133.5 289.5,132.5C 289.089,133.262 288.923,134.262 289,135.5C 287.983,133.624 287.149,131.624 286.5,129.5C 285.167,140.167 283.833,140.167 282.5,129.5C 281.833,132.167 281.167,134.833 280.5,137.5C 279.971,134.743 278.971,132.243 277.5,130C 276.833,129.333 276.167,129.333 275.5,130C 277.26,130.965 277.594,132.132 276.5,133.5C 275.378,132.37 274.044,131.703 272.5,131.5C 272.953,130.542 273.619,129.708 274.5,129C 276.382,128.802 278.048,128.302 279.5,127.5 Z"/></g>
<g><path style="opacity:1" fill="#dff3c5" d="M 249.5,125.5 C 247.533,125.261 245.699,125.594 244,126.5C 243.544,127.744 244.044,128.577 245.5,129C 243.834,131.48 243.001,134.313 243,137.5C 242.51,136.207 242.343,134.873 242.5,133.5C 240.111,126.231 242.444,123.565 249.5,125.5 Z"/></g>
<g><path style="opacity:1" fill="#acc18d" d="M 257.5,120.5 C 258.833,120.5 260.167,120.5 261.5,120.5C 261.369,121.376 261.702,122.043 262.5,122.5C 266.043,123.432 269.043,125.099 271.5,127.5C 274.167,127.5 276.833,127.5 279.5,127.5C 278.048,128.302 276.382,128.802 274.5,129C 273.619,129.708 272.953,130.542 272.5,131.5C 272.672,132.492 272.338,133.158 271.5,133.5C 271.286,131.856 271.62,130.356 272.5,129C 267.5,128.667 262.5,128.333 257.5,128C 258.381,127.292 259.047,126.458 259.5,125.5C 259.804,124.85 260.137,124.183 260.5,123.5C 259.007,122.859 258.007,121.859 257.5,120.5 Z"/></g>
<g><path style="opacity:1" fill="#a3be77" d="M 254.5,111.5 C 254.389,112.117 254.056,112.617 253.5,113C 257.152,113.499 260.818,113.665 264.5,113.5C 265.167,124.167 265.833,124.167 266.5,113.5C 267.552,113.351 268.552,113.517 269.5,114C 268.549,114.718 268.383,115.551 269,116.5C 270.183,115.269 271.349,115.269 272.5,116.5C 271.619,117.971 270.286,118.804 268.5,119C 270.692,119.926 272.692,121.093 274.5,122.5C 274.017,124.87 272.851,125.537 271,124.5C 270.53,125.577 270.697,126.577 271.5,127.5C 269.043,125.099 266.043,123.432 262.5,122.5C 261.702,122.043 261.369,121.376 261.5,120.5C 262.301,118.958 262.634,117.292 262.5,115.5C 260.326,115.08 258.326,115.08 256.5,115.5C 257.62,117.596 259.12,117.93 261,116.5C 261.612,118.237 260.946,119.237 259,119.5C 256.638,118.637 255.138,116.97 254.5,114.5C 253.331,117.495 254.331,119.495 257.5,120.5C 258.007,121.859 259.007,122.859 260.5,123.5C 260.137,124.183 259.804,124.85 259.5,125.5C 257.616,125.712 256.283,126.712 255.5,128.5C 253.757,126.962 251.757,125.962 249.5,125.5C 242.444,123.565 240.111,126.231 242.5,133.5C 241.161,128.741 239.494,124.574 237.5,121C 237.833,120.5 238.167,120 238.5,119.5C 239.167,120.167 239.833,120.833 240.5,121.5C 241.826,120.01 243.326,118.676 245,117.5C 245.089,115.887 244.255,114.72 242.5,114C 245.095,112.107 247.761,112.107 250.5,114C 248.963,115.11 248.297,116.61 248.5,118.5C 249.5,118.5 250.5,118.5 251.5,118.5C 251.338,116.473 251.505,114.473 252,112.5C 252.671,111.748 253.504,111.414 254.5,111.5 Z"/></g>
<g><path style="opacity:1" fill="#d5ebbc" d="M 261.5,120.5 C 260.167,120.5 258.833,120.5 257.5,120.5C 254.331,119.495 253.331,117.495 254.5,114.5C 255.138,116.97 256.638,118.637 259,119.5C 260.946,119.237 261.612,118.237 261,116.5C 259.12,117.93 257.62,117.596 256.5,115.5C 258.326,115.08 260.326,115.08 262.5,115.5C 262.634,117.292 262.301,118.958 261.5,120.5 Z"/></g>
<g><path style="opacity:1" fill="#a6be7f" d="M 281.5,121.5 C 280.265,121.721 279.265,122.388 278.5,123.5C 277.833,122.5 277.167,121.5 276.5,120.5C 275.818,121.243 275.151,121.909 274.5,122.5C 274.489,120.983 273.823,119.816 272.5,119C 273.833,117.333 273.833,115.667 272.5,114C 275.054,113.442 277.054,114.275 278.5,116.5C 277.624,117.251 276.624,117.751 275.5,118C 277.24,119.827 278.907,119.66 280.5,117.5C 281.429,118.689 281.762,120.022 281.5,121.5 Z"/></g>
<g><path style="opacity:1" fill="#d8e9bf" d="M 281.5,121.5 C 281.762,120.022 281.429,118.689 280.5,117.5C 278.907,119.66 277.24,119.827 275.5,118C 276.624,117.751 277.624,117.251 278.5,116.5C 277.054,114.275 275.054,113.442 272.5,114C 273.833,115.667 273.833,117.333 272.5,119C 273.823,119.816 274.489,120.983 274.5,122.5C 272.692,121.093 270.692,119.926 268.5,119C 270.286,118.804 271.619,117.971 272.5,116.5C 271.349,115.269 270.183,115.269 269,116.5C 268.383,115.551 268.549,114.718 269.5,114C 268.552,113.517 267.552,113.351 266.5,113.5C 265.833,124.167 265.167,124.167 264.5,113.5C 260.818,113.665 257.152,113.499 253.5,113C 254.056,112.617 254.389,112.117 254.5,111.5C 258.5,111.5 262.5,111.5 266.5,111.5C 266.281,110.325 266.614,109.325 267.5,108.5C 272.71,111.527 278.377,113.027 284.5,113C 284.162,116.254 283.162,119.088 281.5,121.5 Z"/></g>
</svg>
