<svg width="413" height="233" viewBox="0 0 413 233" fill="none" xmlns="http://www.w3.org/2000/svg">
<g clip-path="url(#clip0_1013_26430)">
<rect x="0.5" y="0.5" width="412" height="232" rx="3.5" fill="#FEFEFE" stroke="#D0D0D0"/>
<path d="M234.5 124.424C234.5 164.654 201.156 197.286 160 197.286C118.844 197.286 85.5 164.654 85.5 124.424C85.5 84.1935 118.844 51.5615 160 51.5615C201.156 51.5615 234.5 84.1935 234.5 124.424Z" fill="#609513" fill-opacity="0.6" stroke="white"/>
<path d="M324.5 124.424C324.5 164.654 291.156 197.286 250 197.286C208.844 197.286 175.5 164.654 175.5 124.424C175.5 84.1935 208.844 51.5615 250 51.5615C291.156 51.5615 324.5 84.1935 324.5 124.424Z" fill="#609513" fill-opacity="0.6" stroke="white"/>
<path d="M104.224 120.523V122H98.9335V120.523H104.224ZM99.5077 112.047V122H97.6278V112.047H99.5077ZM103.534 116.155V117.598H98.9335V116.155H103.534ZM104.204 112.047V113.53H98.9335V112.047H104.204ZM109.833 120.428V111.5H111.652V122H110.011L109.833 120.428ZM105.082 118.391V118.247C105.082 117.682 105.146 117.169 105.274 116.709C105.406 116.244 105.597 115.845 105.848 115.513C106.099 115.18 106.402 114.923 106.757 114.74C107.117 114.558 107.525 114.467 107.981 114.467C108.423 114.467 108.808 114.556 109.136 114.733C109.469 114.911 109.751 115.164 109.984 115.492C110.221 115.82 110.41 116.21 110.551 116.661C110.692 117.108 110.795 117.6 110.859 118.138V118.527C110.795 119.051 110.692 119.532 110.551 119.97C110.41 120.407 110.221 120.79 109.984 121.118C109.751 121.442 109.469 121.692 109.136 121.87C108.803 122.048 108.414 122.137 107.967 122.137C107.516 122.137 107.11 122.043 106.75 121.856C106.395 121.67 106.092 121.408 105.841 121.07C105.595 120.733 105.406 120.337 105.274 119.881C105.146 119.425 105.082 118.928 105.082 118.391ZM106.894 118.247V118.391C106.894 118.71 106.921 119.008 106.976 119.286C107.031 119.564 107.119 119.81 107.242 120.024C107.365 120.234 107.523 120.398 107.714 120.517C107.91 120.635 108.147 120.694 108.425 120.694C108.781 120.694 109.072 120.617 109.3 120.462C109.532 120.302 109.712 120.086 109.84 119.812C109.968 119.535 110.05 119.222 110.086 118.876V117.803C110.068 117.529 110.02 117.276 109.943 117.044C109.87 116.812 109.765 116.611 109.628 116.442C109.496 116.274 109.332 116.142 109.136 116.046C108.94 115.95 108.708 115.902 108.439 115.902C108.161 115.902 107.924 115.964 107.728 116.087C107.532 116.205 107.372 116.372 107.249 116.586C107.126 116.8 107.035 117.049 106.976 117.331C106.921 117.614 106.894 117.919 106.894 118.247ZM117.828 120.243V114.604H119.646V122H117.937L117.828 120.243ZM118.06 118.712L118.621 118.698C118.621 119.195 118.566 119.653 118.457 120.072C118.347 120.492 118.176 120.856 117.944 121.166C117.716 121.471 117.427 121.711 117.076 121.884C116.725 122.052 116.31 122.137 115.832 122.137C115.467 122.137 115.134 122.087 114.834 121.986C114.533 121.882 114.273 121.72 114.054 121.501C113.84 121.278 113.674 120.993 113.555 120.646C113.437 120.296 113.378 119.874 113.378 119.382V114.604H115.182V119.396C115.182 119.642 115.21 119.847 115.264 120.011C115.324 120.175 115.403 120.309 115.504 120.414C115.608 120.514 115.729 120.587 115.866 120.633C116.007 120.674 116.157 120.694 116.317 120.694C116.754 120.694 117.099 120.608 117.349 120.435C117.604 120.257 117.787 120.02 117.896 119.724C118.005 119.423 118.06 119.086 118.06 118.712ZM124.421 120.715C124.676 120.715 124.904 120.665 125.104 120.564C125.305 120.464 125.464 120.323 125.583 120.141C125.706 119.958 125.772 119.746 125.781 119.505H127.483C127.474 120.006 127.333 120.455 127.06 120.852C126.786 121.248 126.422 121.562 125.966 121.795C125.515 122.023 125.009 122.137 124.448 122.137C123.879 122.137 123.382 122.041 122.958 121.85C122.534 121.658 122.181 121.392 121.898 121.05C121.62 120.708 121.411 120.312 121.269 119.86C121.133 119.409 121.064 118.926 121.064 118.411V118.192C121.064 117.677 121.133 117.194 121.269 116.743C121.411 116.292 121.62 115.896 121.898 115.554C122.181 115.212 122.534 114.945 122.958 114.754C123.382 114.562 123.876 114.467 124.441 114.467C125.038 114.467 125.562 114.583 126.014 114.815C126.469 115.048 126.825 115.376 127.08 115.8C127.34 116.224 127.474 116.723 127.483 117.297H125.781C125.772 117.033 125.713 116.796 125.603 116.586C125.494 116.376 125.339 116.208 125.139 116.08C124.938 115.952 124.694 115.889 124.407 115.889C124.102 115.889 123.847 115.952 123.642 116.08C123.441 116.208 123.284 116.383 123.17 116.606C123.061 116.825 122.983 117.071 122.937 117.345C122.896 117.614 122.876 117.896 122.876 118.192V118.411C122.876 118.712 122.896 118.999 122.937 119.272C122.983 119.546 123.061 119.792 123.17 120.011C123.284 120.225 123.441 120.396 123.642 120.523C123.847 120.651 124.106 120.715 124.421 120.715ZM132.901 120.428V117.017C132.901 116.766 132.857 116.549 132.771 116.367C132.684 116.185 132.552 116.044 132.374 115.943C132.197 115.843 131.971 115.793 131.698 115.793C131.456 115.793 131.244 115.834 131.062 115.916C130.884 115.998 130.747 116.114 130.652 116.265C130.556 116.41 130.508 116.579 130.508 116.771H128.697C128.697 116.465 128.77 116.176 128.915 115.902C129.061 115.624 129.269 115.378 129.537 115.164C129.811 114.945 130.137 114.774 130.515 114.651C130.898 114.528 131.326 114.467 131.8 114.467C132.361 114.467 132.86 114.562 133.297 114.754C133.739 114.941 134.086 115.223 134.336 115.602C134.591 115.98 134.719 116.456 134.719 117.03V120.257C134.719 120.626 134.742 120.943 134.787 121.207C134.838 121.467 134.91 121.692 135.006 121.884V122H133.167C133.081 121.813 133.015 121.576 132.969 121.289C132.923 120.997 132.901 120.71 132.901 120.428ZM133.154 117.495L133.167 118.568H132.026C131.743 118.568 131.495 118.598 131.281 118.657C131.066 118.712 130.891 118.794 130.754 118.903C130.618 119.008 130.515 119.136 130.447 119.286C130.378 119.432 130.344 119.598 130.344 119.785C130.344 119.967 130.385 120.132 130.467 120.277C130.554 120.423 130.677 120.539 130.836 120.626C131 120.708 131.192 120.749 131.41 120.749C131.729 120.749 132.007 120.685 132.244 120.558C132.481 120.425 132.666 120.266 132.798 120.079C132.93 119.892 133.001 119.715 133.01 119.546L133.53 120.325C133.466 120.512 133.37 120.71 133.243 120.92C133.115 121.13 132.951 121.326 132.75 121.508C132.55 121.69 132.308 121.84 132.026 121.959C131.743 122.077 131.415 122.137 131.041 122.137C130.563 122.137 130.134 122.041 129.756 121.85C129.378 121.658 129.079 121.396 128.861 121.063C128.642 120.731 128.533 120.353 128.533 119.929C128.533 119.537 128.605 119.19 128.751 118.89C128.897 118.589 129.114 118.336 129.401 118.131C129.688 117.921 130.043 117.764 130.467 117.659C130.895 117.55 131.385 117.495 131.937 117.495H133.154ZM139.986 114.604V115.902H135.748V114.604H139.986ZM136.882 112.785H138.694V119.867C138.694 120.086 138.724 120.255 138.783 120.373C138.842 120.492 138.931 120.571 139.049 120.612C139.168 120.653 139.309 120.674 139.473 120.674C139.592 120.674 139.701 120.667 139.801 120.653C139.902 120.64 139.986 120.626 140.054 120.612L140.061 121.966C139.911 122.016 139.74 122.057 139.549 122.089C139.362 122.121 139.15 122.137 138.913 122.137C138.507 122.137 138.152 122.068 137.846 121.932C137.541 121.79 137.304 121.565 137.135 121.255C136.967 120.94 136.882 120.526 136.882 120.011V112.785ZM143.243 114.604V122H141.432V114.604H143.243ZM141.309 112.669C141.309 112.4 141.4 112.177 141.582 111.999C141.769 111.821 142.02 111.732 142.334 111.732C142.648 111.732 142.897 111.821 143.079 111.999C143.266 112.177 143.359 112.4 143.359 112.669C143.359 112.933 143.266 113.154 143.079 113.332C142.897 113.51 142.648 113.599 142.334 113.599C142.02 113.599 141.769 113.51 141.582 113.332C141.4 113.154 141.309 112.933 141.309 112.669ZM144.785 118.377V118.233C144.785 117.691 144.862 117.192 145.017 116.736C145.172 116.276 145.398 115.877 145.694 115.54C145.99 115.203 146.352 114.941 146.781 114.754C147.209 114.562 147.697 114.467 148.244 114.467C148.8 114.467 149.292 114.562 149.72 114.754C150.153 114.941 150.518 115.203 150.814 115.54C151.11 115.877 151.336 116.276 151.491 116.736C151.646 117.192 151.723 117.691 151.723 118.233V118.377C151.723 118.915 151.646 119.414 151.491 119.874C151.336 120.33 151.11 120.729 150.814 121.07C150.518 121.408 150.155 121.67 149.727 121.856C149.299 122.043 148.809 122.137 148.257 122.137C147.71 122.137 147.22 122.043 146.787 121.856C146.355 121.67 145.99 121.408 145.694 121.07C145.398 120.729 145.172 120.33 145.017 119.874C144.862 119.414 144.785 118.915 144.785 118.377ZM146.589 118.233V118.377C146.589 118.701 146.621 119.004 146.685 119.286C146.749 119.569 146.847 119.817 146.979 120.031C147.111 120.245 147.282 120.414 147.492 120.537C147.706 120.656 147.961 120.715 148.257 120.715C148.549 120.715 148.8 120.656 149.009 120.537C149.219 120.414 149.39 120.245 149.522 120.031C149.659 119.817 149.759 119.569 149.823 119.286C149.886 119.004 149.918 118.701 149.918 118.377V118.233C149.918 117.914 149.886 117.616 149.823 117.338C149.759 117.055 149.659 116.807 149.522 116.593C149.39 116.374 149.217 116.203 149.002 116.08C148.793 115.952 148.54 115.889 148.244 115.889C147.952 115.889 147.701 115.952 147.492 116.08C147.282 116.203 147.111 116.374 146.979 116.593C146.847 116.807 146.749 117.055 146.685 117.338C146.621 117.616 146.589 117.914 146.589 118.233ZM154.946 116.183V122H153.141V114.604H154.837L154.946 116.183ZM154.659 118.035H154.126C154.13 117.497 154.203 117.01 154.344 116.572C154.486 116.135 154.684 115.759 154.939 115.444C155.199 115.13 155.507 114.888 155.862 114.72C156.218 114.551 156.614 114.467 157.052 114.467C157.407 114.467 157.728 114.517 158.015 114.617C158.302 114.717 158.549 114.877 158.754 115.096C158.963 115.314 159.123 115.602 159.232 115.957C159.346 116.308 159.403 116.741 159.403 117.256V122H157.585V117.242C157.585 116.905 157.535 116.638 157.434 116.442C157.339 116.246 157.197 116.107 157.011 116.025C156.828 115.943 156.603 115.902 156.334 115.902C156.056 115.902 155.812 115.959 155.602 116.073C155.397 116.183 155.224 116.335 155.083 116.531C154.946 116.727 154.841 116.953 154.768 117.208C154.695 117.463 154.659 117.739 154.659 118.035ZM116.079 132.771V133.283C116.079 134.035 115.979 134.712 115.779 135.313C115.578 135.91 115.293 136.419 114.924 136.838C114.555 137.257 114.115 137.578 113.605 137.802C113.094 138.025 112.527 138.137 111.903 138.137C111.287 138.137 110.722 138.025 110.207 137.802C109.697 137.578 109.255 137.257 108.881 136.838C108.507 136.419 108.218 135.91 108.013 135.313C107.808 134.712 107.705 134.035 107.705 133.283V132.771C107.705 132.014 107.808 131.337 108.013 130.74C108.218 130.143 108.505 129.635 108.874 129.216C109.243 128.792 109.683 128.468 110.194 128.245C110.709 128.022 111.274 127.91 111.889 127.91C112.513 127.91 113.081 128.022 113.591 128.245C114.102 128.468 114.541 128.792 114.91 129.216C115.284 129.635 115.571 130.143 115.772 130.74C115.977 131.337 116.079 132.014 116.079 132.771ZM114.179 133.283V132.757C114.179 132.215 114.129 131.738 114.029 131.328C113.928 130.913 113.78 130.565 113.584 130.282C113.388 130 113.147 129.788 112.86 129.646C112.573 129.501 112.249 129.428 111.889 129.428C111.524 129.428 111.201 129.501 110.918 129.646C110.64 129.788 110.403 130 110.207 130.282C110.011 130.565 109.861 130.913 109.756 131.328C109.656 131.738 109.606 132.215 109.606 132.757V133.283C109.606 133.821 109.656 134.297 109.756 134.712C109.861 135.127 110.011 135.478 110.207 135.765C110.408 136.047 110.649 136.261 110.932 136.407C111.214 136.553 111.538 136.626 111.903 136.626C112.267 136.626 112.591 136.553 112.873 136.407C113.156 136.261 113.393 136.047 113.584 135.765C113.78 135.478 113.928 135.127 114.029 134.712C114.129 134.297 114.179 133.821 114.179 133.283ZM120.041 138H118.222V129.92C118.222 129.364 118.329 128.897 118.544 128.519C118.758 128.136 119.063 127.846 119.46 127.65C119.856 127.454 120.323 127.356 120.861 127.356C121.039 127.356 121.207 127.368 121.367 127.391C121.531 127.413 121.693 127.445 121.852 127.486L121.818 128.86C121.731 128.838 121.636 128.822 121.531 128.812C121.431 128.803 121.319 128.799 121.196 128.799C120.95 128.799 120.74 128.842 120.567 128.929C120.394 129.015 120.262 129.143 120.171 129.312C120.084 129.476 120.041 129.678 120.041 129.92V138ZM121.572 130.604V131.902H117.108V130.604H121.572ZM124.375 138H122.563V130.193C122.563 129.583 122.686 129.068 122.932 128.648C123.178 128.225 123.534 127.903 123.999 127.685C124.464 127.466 125.022 127.356 125.673 127.356C126.052 127.356 126.416 127.395 126.767 127.473C127.118 127.546 127.483 127.641 127.861 127.76L127.594 129.223C127.353 129.145 127.089 129.072 126.801 129.004C126.514 128.936 126.177 128.901 125.79 128.901C125.316 128.901 124.96 129.011 124.723 129.229C124.491 129.448 124.375 129.77 124.375 130.193V138ZM125.851 130.604V131.902H121.442V130.604H125.851ZM128.709 130.604V138H126.897V130.604H128.709ZM133.62 136.715C133.875 136.715 134.103 136.665 134.304 136.564C134.504 136.464 134.664 136.323 134.782 136.141C134.905 135.958 134.971 135.746 134.98 135.505H136.683C136.674 136.006 136.532 136.455 136.259 136.852C135.985 137.248 135.621 137.562 135.165 137.795C134.714 138.023 134.208 138.137 133.647 138.137C133.078 138.137 132.581 138.041 132.157 137.85C131.733 137.658 131.38 137.392 131.098 137.05C130.82 136.708 130.61 136.312 130.469 135.86C130.332 135.409 130.264 134.926 130.264 134.411V134.192C130.264 133.677 130.332 133.194 130.469 132.743C130.61 132.292 130.82 131.896 131.098 131.554C131.38 131.212 131.733 130.945 132.157 130.754C132.581 130.562 133.076 130.467 133.641 130.467C134.238 130.467 134.762 130.583 135.213 130.815C135.669 131.048 136.024 131.376 136.279 131.8C136.539 132.224 136.674 132.723 136.683 133.297H134.98C134.971 133.033 134.912 132.796 134.803 132.586C134.693 132.376 134.538 132.208 134.338 132.08C134.137 131.952 133.894 131.889 133.606 131.889C133.301 131.889 133.046 131.952 132.841 132.08C132.64 132.208 132.483 132.383 132.369 132.606C132.26 132.825 132.182 133.071 132.137 133.345C132.096 133.614 132.075 133.896 132.075 134.192V134.411C132.075 134.712 132.096 134.999 132.137 135.272C132.182 135.546 132.26 135.792 132.369 136.011C132.483 136.225 132.64 136.396 132.841 136.523C133.046 136.651 133.306 136.715 133.62 136.715ZM141.348 138.137C140.787 138.137 140.284 138.046 139.837 137.863C139.391 137.681 139.01 137.428 138.696 137.104C138.386 136.776 138.147 136.396 137.978 135.963C137.814 135.525 137.732 135.056 137.732 134.555V134.281C137.732 133.712 137.814 133.194 137.978 132.729C138.142 132.26 138.374 131.857 138.675 131.52C138.976 131.182 139.336 130.923 139.755 130.74C140.175 130.558 140.637 130.467 141.143 130.467C141.667 130.467 142.13 130.556 142.531 130.733C142.932 130.907 143.267 131.153 143.536 131.472C143.804 131.791 144.007 132.174 144.144 132.62C144.281 133.062 144.349 133.552 144.349 134.09V134.849H138.552V133.604H142.572V133.468C142.563 133.181 142.508 132.919 142.408 132.682C142.307 132.44 142.152 132.249 141.943 132.107C141.733 131.962 141.462 131.889 141.129 131.889C140.86 131.889 140.626 131.948 140.425 132.066C140.229 132.18 140.065 132.344 139.933 132.559C139.805 132.768 139.71 133.019 139.646 133.311C139.582 133.602 139.55 133.926 139.55 134.281V134.555C139.55 134.865 139.591 135.152 139.673 135.416C139.76 135.68 139.885 135.91 140.049 136.106C140.218 136.298 140.418 136.448 140.651 136.558C140.888 136.662 141.157 136.715 141.457 136.715C141.836 136.715 142.177 136.642 142.483 136.496C142.793 136.346 143.062 136.125 143.289 135.833L144.199 136.776C144.044 137.004 143.834 137.223 143.57 137.433C143.31 137.642 142.995 137.813 142.626 137.945C142.257 138.073 141.831 138.137 141.348 138.137ZM147.504 132.114V138H145.699V130.604H147.408L147.504 132.114ZM149.753 130.556L149.725 132.237C149.625 132.219 149.511 132.205 149.384 132.196C149.26 132.187 149.144 132.183 149.035 132.183C148.757 132.183 148.513 132.221 148.303 132.299C148.094 132.372 147.918 132.479 147.777 132.62C147.64 132.761 147.536 132.935 147.463 133.14C147.39 133.34 147.349 133.568 147.34 133.823L146.95 133.775C146.95 133.306 146.998 132.871 147.093 132.47C147.189 132.069 147.328 131.718 147.51 131.417C147.693 131.116 147.921 130.884 148.194 130.72C148.472 130.551 148.791 130.467 149.151 130.467C149.251 130.467 149.358 130.476 149.472 130.494C149.591 130.508 149.684 130.528 149.753 130.556Z" fill="#FDFDFD"/>
<path d="M268.93 120.182L271.548 112.047H273.442L269.873 122H268.595L268.93 120.182ZM266.51 112.047L269.108 120.182L269.463 122H268.178L264.623 112.047H266.51ZM276.296 114.604V122H274.641V114.604H276.296ZM274.532 112.662C274.532 112.411 274.614 112.204 274.778 112.04C274.947 111.871 275.179 111.787 275.475 111.787C275.767 111.787 275.997 111.871 276.166 112.04C276.334 112.204 276.419 112.411 276.419 112.662C276.419 112.908 276.334 113.113 276.166 113.277C275.997 113.441 275.767 113.523 275.475 113.523C275.179 113.523 274.947 113.441 274.778 113.277C274.614 113.113 274.532 112.908 274.532 112.662ZM281.262 120.824C281.531 120.824 281.772 120.772 281.986 120.667C282.205 120.558 282.381 120.407 282.513 120.216C282.649 120.024 282.725 119.803 282.738 119.553H284.29C284.281 120.031 284.14 120.466 283.866 120.858C283.593 121.25 283.23 121.562 282.779 121.795C282.328 122.023 281.829 122.137 281.282 122.137C280.717 122.137 280.225 122.041 279.806 121.85C279.386 121.654 279.038 121.385 278.76 121.043C278.482 120.701 278.272 120.307 278.131 119.86C277.994 119.414 277.926 118.935 277.926 118.425V118.186C277.926 117.675 277.994 117.197 278.131 116.75C278.272 116.299 278.482 115.902 278.76 115.561C279.038 115.219 279.386 114.952 279.806 114.761C280.225 114.565 280.715 114.467 281.275 114.467C281.868 114.467 282.387 114.585 282.834 114.822C283.281 115.055 283.632 115.381 283.887 115.8C284.146 116.215 284.281 116.698 284.29 117.249H282.738C282.725 116.976 282.656 116.729 282.533 116.511C282.415 116.287 282.246 116.11 282.027 115.978C281.813 115.845 281.556 115.779 281.255 115.779C280.922 115.779 280.646 115.848 280.428 115.984C280.209 116.117 280.038 116.299 279.915 116.531C279.792 116.759 279.703 117.017 279.648 117.304C279.598 117.586 279.573 117.88 279.573 118.186V118.425C279.573 118.73 279.598 119.026 279.648 119.313C279.699 119.601 279.785 119.858 279.908 120.086C280.036 120.309 280.209 120.489 280.428 120.626C280.646 120.758 280.924 120.824 281.262 120.824ZM288.955 122.137C288.409 122.137 287.914 122.048 287.472 121.87C287.035 121.688 286.661 121.435 286.351 121.111C286.046 120.788 285.811 120.407 285.647 119.97C285.483 119.532 285.401 119.061 285.401 118.555V118.281C285.401 117.702 285.485 117.178 285.654 116.709C285.822 116.24 286.057 115.839 286.358 115.506C286.659 115.169 287.014 114.911 287.424 114.733C287.834 114.556 288.279 114.467 288.757 114.467C289.286 114.467 289.748 114.556 290.145 114.733C290.541 114.911 290.869 115.162 291.129 115.485C291.394 115.804 291.59 116.185 291.717 116.627C291.849 117.069 291.915 117.557 291.915 118.09V118.794H286.201V117.611H290.288V117.481C290.279 117.185 290.22 116.907 290.111 116.647C290.006 116.388 289.844 116.178 289.625 116.019C289.407 115.859 289.115 115.779 288.75 115.779C288.477 115.779 288.233 115.839 288.019 115.957C287.809 116.071 287.634 116.237 287.493 116.456C287.351 116.675 287.242 116.939 287.164 117.249C287.091 117.554 287.055 117.898 287.055 118.281V118.555C287.055 118.878 287.098 119.179 287.185 119.457C287.276 119.73 287.408 119.97 287.581 120.175C287.755 120.38 287.964 120.542 288.21 120.66C288.456 120.774 288.737 120.831 289.051 120.831C289.448 120.831 289.801 120.751 290.111 120.592C290.421 120.432 290.689 120.207 290.917 119.915L291.786 120.756C291.626 120.988 291.419 121.212 291.163 121.426C290.908 121.635 290.596 121.806 290.227 121.938C289.862 122.071 289.439 122.137 288.955 122.137ZM255.19 134.288H252.599V132.928H255.19C255.641 132.928 256.006 132.855 256.284 132.709C256.562 132.563 256.765 132.363 256.892 132.107C257.024 131.848 257.09 131.551 257.09 131.219C257.09 130.904 257.024 130.61 256.892 130.337C256.765 130.059 256.562 129.836 256.284 129.667C256.006 129.498 255.641 129.414 255.19 129.414H253.126V138H251.41V128.047H255.19C255.96 128.047 256.614 128.184 257.152 128.457C257.694 128.726 258.107 129.1 258.389 129.578C258.672 130.052 258.813 130.594 258.813 131.205C258.813 131.848 258.672 132.399 258.389 132.859C258.107 133.32 257.694 133.673 257.152 133.919C256.614 134.165 255.96 134.288 255.19 134.288ZM261.981 132.012V138H260.334V130.604H261.906L261.981 132.012ZM264.244 130.556L264.23 132.087C264.13 132.069 264.021 132.055 263.902 132.046C263.788 132.037 263.674 132.032 263.56 132.032C263.278 132.032 263.03 132.073 262.815 132.155C262.601 132.233 262.421 132.347 262.275 132.497C262.134 132.643 262.025 132.821 261.947 133.03C261.87 133.24 261.824 133.475 261.81 133.734L261.434 133.762C261.434 133.297 261.48 132.866 261.571 132.47C261.662 132.073 261.799 131.725 261.981 131.424C262.168 131.123 262.401 130.888 262.679 130.72C262.961 130.551 263.287 130.467 263.656 130.467C263.756 130.467 263.864 130.476 263.977 130.494C264.096 130.512 264.185 130.533 264.244 130.556ZM267.18 130.604V138H265.526V130.604H267.18ZM265.416 128.662C265.416 128.411 265.498 128.204 265.662 128.04C265.831 127.871 266.063 127.787 266.36 127.787C266.651 127.787 266.881 127.871 267.05 128.04C267.219 128.204 267.303 128.411 267.303 128.662C267.303 128.908 267.219 129.113 267.05 129.277C266.881 129.441 266.651 129.523 266.36 129.523C266.063 129.523 265.831 129.441 265.662 129.277C265.498 129.113 265.416 128.908 265.416 128.662ZM270.758 132.183V138H269.111V130.604H270.663L270.758 132.183ZM270.464 134.028L269.931 134.021C269.936 133.497 270.009 133.017 270.15 132.579C270.296 132.142 270.496 131.766 270.752 131.451C271.011 131.137 271.321 130.895 271.681 130.727C272.041 130.553 272.442 130.467 272.884 130.467C273.24 130.467 273.561 130.517 273.848 130.617C274.14 130.713 274.388 130.87 274.593 131.089C274.803 131.308 274.963 131.592 275.072 131.943C275.181 132.29 275.236 132.716 275.236 133.222V138H273.582V133.215C273.582 132.859 273.529 132.579 273.424 132.374C273.324 132.164 273.176 132.016 272.98 131.93C272.789 131.839 272.549 131.793 272.262 131.793C271.98 131.793 271.727 131.852 271.504 131.971C271.28 132.089 271.091 132.251 270.936 132.456C270.786 132.661 270.67 132.898 270.588 133.167C270.506 133.436 270.464 133.723 270.464 134.028ZM280.079 136.824C280.348 136.824 280.59 136.772 280.804 136.667C281.022 136.558 281.198 136.407 281.33 136.216C281.467 136.024 281.542 135.803 281.556 135.553H283.107C283.098 136.031 282.957 136.466 282.684 136.858C282.41 137.25 282.048 137.562 281.597 137.795C281.146 138.023 280.646 138.137 280.1 138.137C279.535 138.137 279.042 138.041 278.623 137.85C278.204 137.654 277.855 137.385 277.577 137.043C277.299 136.701 277.09 136.307 276.948 135.86C276.812 135.414 276.743 134.935 276.743 134.425V134.186C276.743 133.675 276.812 133.197 276.948 132.75C277.09 132.299 277.299 131.902 277.577 131.561C277.855 131.219 278.204 130.952 278.623 130.761C279.042 130.565 279.532 130.467 280.093 130.467C280.685 130.467 281.205 130.585 281.651 130.822C282.098 131.055 282.449 131.381 282.704 131.8C282.964 132.215 283.098 132.698 283.107 133.249H281.556C281.542 132.976 281.474 132.729 281.351 132.511C281.232 132.287 281.063 132.11 280.845 131.978C280.631 131.845 280.373 131.779 280.072 131.779C279.74 131.779 279.464 131.848 279.245 131.984C279.026 132.117 278.855 132.299 278.732 132.531C278.609 132.759 278.521 133.017 278.466 133.304C278.416 133.586 278.391 133.88 278.391 134.186V134.425C278.391 134.73 278.416 135.026 278.466 135.313C278.516 135.601 278.603 135.858 278.726 136.086C278.853 136.309 279.026 136.489 279.245 136.626C279.464 136.758 279.742 136.824 280.079 136.824ZM286.276 130.604V138H284.621V130.604H286.276ZM284.512 128.662C284.512 128.411 284.594 128.204 284.758 128.04C284.927 127.871 285.159 127.787 285.455 127.787C285.747 127.787 285.977 127.871 286.146 128.04C286.314 128.204 286.399 128.411 286.399 128.662C286.399 128.908 286.314 129.113 286.146 129.277C285.977 129.441 285.747 129.523 285.455 129.523C285.159 129.523 284.927 129.441 284.758 129.277C284.594 129.113 284.512 128.908 284.512 128.662ZM289.875 132.025V140.844H288.227V130.604H289.745L289.875 132.025ZM294.694 134.233V134.377C294.694 134.915 294.63 135.414 294.503 135.874C294.38 136.33 294.195 136.729 293.949 137.07C293.707 137.408 293.409 137.67 293.053 137.856C292.698 138.043 292.288 138.137 291.823 138.137C291.363 138.137 290.959 138.052 290.613 137.884C290.271 137.711 289.982 137.467 289.745 137.152C289.508 136.838 289.316 136.469 289.171 136.045C289.029 135.617 288.929 135.147 288.87 134.637V134.083C288.929 133.541 289.029 133.049 289.171 132.606C289.316 132.164 289.508 131.784 289.745 131.465C289.982 131.146 290.271 130.9 290.613 130.727C290.955 130.553 291.354 130.467 291.809 130.467C292.274 130.467 292.687 130.558 293.047 130.74C293.407 130.918 293.71 131.173 293.956 131.506C294.202 131.834 294.386 132.23 294.509 132.695C294.633 133.156 294.694 133.668 294.694 134.233ZM293.047 134.377V134.233C293.047 133.892 293.015 133.575 292.951 133.283C292.887 132.987 292.787 132.727 292.65 132.504C292.513 132.281 292.338 132.107 292.124 131.984C291.914 131.857 291.661 131.793 291.365 131.793C291.073 131.793 290.823 131.843 290.613 131.943C290.403 132.039 290.228 132.174 290.087 132.347C289.945 132.52 289.836 132.723 289.759 132.955C289.681 133.183 289.626 133.431 289.594 133.7V135.026C289.649 135.354 289.743 135.655 289.875 135.929C290.007 136.202 290.194 136.421 290.435 136.585C290.681 136.744 290.996 136.824 291.379 136.824C291.675 136.824 291.928 136.76 292.137 136.633C292.347 136.505 292.518 136.33 292.65 136.106C292.787 135.879 292.887 135.617 292.951 135.32C293.015 135.024 293.047 134.71 293.047 134.377ZM297.999 127.5V138H296.345V127.5H297.999ZM303.205 138.137C302.658 138.137 302.163 138.048 301.721 137.87C301.284 137.688 300.91 137.435 300.6 137.111C300.295 136.788 300.06 136.407 299.896 135.97C299.732 135.532 299.65 135.061 299.65 134.555V134.281C299.65 133.702 299.734 133.178 299.903 132.709C300.071 132.24 300.306 131.839 300.607 131.506C300.908 131.169 301.263 130.911 301.673 130.733C302.083 130.556 302.528 130.467 303.006 130.467C303.535 130.467 303.997 130.556 304.394 130.733C304.79 130.911 305.119 131.162 305.378 131.485C305.643 131.804 305.839 132.185 305.966 132.627C306.098 133.069 306.164 133.557 306.164 134.09V134.794H300.45V133.611H304.538V133.481C304.528 133.185 304.469 132.907 304.36 132.647C304.255 132.388 304.093 132.178 303.874 132.019C303.656 131.859 303.364 131.779 302.999 131.779C302.726 131.779 302.482 131.839 302.268 131.957C302.058 132.071 301.883 132.237 301.742 132.456C301.6 132.675 301.491 132.939 301.414 133.249C301.341 133.554 301.304 133.898 301.304 134.281V134.555C301.304 134.878 301.347 135.179 301.434 135.457C301.525 135.73 301.657 135.97 301.831 136.175C302.004 136.38 302.213 136.542 302.459 136.66C302.706 136.774 302.986 136.831 303.3 136.831C303.697 136.831 304.05 136.751 304.36 136.592C304.67 136.432 304.939 136.207 305.166 135.915L306.035 136.756C305.875 136.988 305.668 137.212 305.413 137.426C305.157 137.635 304.845 137.806 304.476 137.938C304.111 138.071 303.688 138.137 303.205 138.137Z" fill="#FEFEFE"/>
<path d="M190.243 121.373L187.27 130H185.472L189.218 120.047H190.366L190.243 121.373ZM192.732 130L189.751 121.373L189.621 120.047H190.777L194.536 130H192.732ZM192.588 126.309V127.669H187.174V126.309H192.588ZM200.138 128.469V119.5H201.793V130H200.296L200.138 128.469ZM195.326 126.384V126.24C195.326 125.68 195.392 125.169 195.524 124.709C195.656 124.244 195.848 123.845 196.098 123.513C196.349 123.175 196.654 122.918 197.014 122.74C197.374 122.558 197.78 122.467 198.231 122.467C198.678 122.467 199.07 122.553 199.407 122.727C199.744 122.9 200.031 123.148 200.268 123.472C200.505 123.791 200.694 124.174 200.836 124.62C200.977 125.062 201.077 125.554 201.136 126.097V126.555C201.077 127.083 200.977 127.566 200.836 128.004C200.694 128.441 200.505 128.82 200.268 129.139C200.031 129.458 199.742 129.704 199.4 129.877C199.063 130.05 198.669 130.137 198.217 130.137C197.771 130.137 197.367 130.043 197.007 129.856C196.652 129.67 196.349 129.408 196.098 129.07C195.848 128.733 195.656 128.337 195.524 127.881C195.392 127.421 195.326 126.922 195.326 126.384ZM196.973 126.24V126.384C196.973 126.721 197.003 127.035 197.062 127.327C197.126 127.619 197.224 127.876 197.356 128.1C197.488 128.318 197.659 128.492 197.869 128.619C198.083 128.742 198.338 128.804 198.634 128.804C199.008 128.804 199.316 128.722 199.557 128.558C199.799 128.394 199.988 128.173 200.125 127.895C200.266 127.612 200.362 127.298 200.412 126.951V125.714C200.384 125.445 200.327 125.194 200.241 124.962C200.159 124.729 200.047 124.527 199.906 124.354C199.765 124.176 199.589 124.039 199.38 123.943C199.174 123.843 198.931 123.793 198.648 123.793C198.347 123.793 198.092 123.857 197.882 123.984C197.673 124.112 197.5 124.287 197.363 124.511C197.231 124.734 197.133 124.994 197.069 125.29C197.005 125.586 196.973 125.903 196.973 126.24ZM205.303 124.107V130H203.655V122.604H205.207L205.303 124.107ZM205.036 126.028L204.476 126.021C204.476 125.511 204.539 125.039 204.667 124.606C204.795 124.174 204.981 123.798 205.228 123.479C205.474 123.155 205.779 122.907 206.144 122.733C206.513 122.556 206.939 122.467 207.422 122.467C207.759 122.467 208.067 122.517 208.345 122.617C208.627 122.713 208.871 122.866 209.076 123.075C209.286 123.285 209.445 123.554 209.555 123.882C209.669 124.21 209.726 124.606 209.726 125.071V130H208.078V125.215C208.078 124.855 208.023 124.572 207.914 124.367C207.809 124.162 207.657 124.016 207.456 123.93C207.26 123.839 207.025 123.793 206.752 123.793C206.442 123.793 206.178 123.852 205.959 123.971C205.745 124.089 205.569 124.251 205.433 124.456C205.296 124.661 205.196 124.898 205.132 125.167C205.068 125.436 205.036 125.723 205.036 126.028ZM209.623 125.591L208.851 125.762C208.851 125.315 208.912 124.894 209.035 124.497C209.163 124.096 209.347 123.745 209.589 123.444C209.835 123.139 210.138 122.9 210.498 122.727C210.858 122.553 211.271 122.467 211.735 122.467C212.114 122.467 212.451 122.519 212.747 122.624C213.048 122.724 213.303 122.884 213.513 123.103C213.722 123.321 213.882 123.606 213.991 123.957C214.101 124.303 214.155 124.723 214.155 125.215V130H212.501V125.208C212.501 124.834 212.446 124.545 212.337 124.34C212.232 124.135 212.082 123.993 211.886 123.916C211.69 123.834 211.455 123.793 211.182 123.793C210.926 123.793 210.701 123.841 210.505 123.937C210.313 124.028 210.152 124.158 210.02 124.326C209.887 124.49 209.787 124.679 209.719 124.894C209.655 125.108 209.623 125.34 209.623 125.591ZM217.754 122.604V130H216.1V122.604H217.754ZM215.991 120.662C215.991 120.411 216.073 120.204 216.237 120.04C216.405 119.871 216.638 119.787 216.934 119.787C217.226 119.787 217.456 119.871 217.624 120.04C217.793 120.204 217.877 120.411 217.877 120.662C217.877 120.908 217.793 121.113 217.624 121.277C217.456 121.441 217.226 121.523 216.934 121.523C216.638 121.523 216.405 121.441 216.237 121.277C216.073 121.113 215.991 120.908 215.991 120.662ZM221.333 124.183V130H219.685V122.604H221.237L221.333 124.183ZM221.039 126.028L220.506 126.021C220.51 125.497 220.583 125.017 220.724 124.579C220.87 124.142 221.071 123.766 221.326 123.451C221.586 123.137 221.896 122.895 222.256 122.727C222.616 122.553 223.017 122.467 223.459 122.467C223.814 122.467 224.135 122.517 224.423 122.617C224.714 122.713 224.963 122.87 225.168 123.089C225.377 123.308 225.537 123.592 225.646 123.943C225.756 124.29 225.81 124.716 225.81 125.222V130H224.156V125.215C224.156 124.859 224.104 124.579 223.999 124.374C223.898 124.164 223.75 124.016 223.554 123.93C223.363 123.839 223.124 123.793 222.837 123.793C222.554 123.793 222.301 123.852 222.078 123.971C221.855 124.089 221.665 124.251 221.51 124.456C221.36 124.661 221.244 124.898 221.162 125.167C221.08 125.436 221.039 125.723 221.039 126.028Z" fill="#FEFEFE"/>
</g>
<defs>
<clipPath id="clip0_1013_26430">
<rect width="413" height="233" fill="white"/>
</clipPath>
</defs>
</svg>
