<svg width="413" height="233" viewBox="0 0 413 233" fill="none" xmlns="http://www.w3.org/2000/svg">
<rect x="0.5" y="0.5" width="412" height="232" rx="3.5" fill="#FEFEFE" stroke="#D0D0D0"/>
<path d="M234.5 124.423C234.5 164.654 201.156 197.286 160 197.286C118.844 197.286 85.5 164.654 85.5 124.423C85.5 84.193 118.844 51.561 160 51.561C201.156 51.561 234.5 84.193 234.5 124.423Z" fill="#609513" fill-opacity="0.6" stroke="white"/>
<path d="M324.5 124.423C324.5 164.654 291.156 197.286 250 197.286C208.844 197.286 175.5 164.654 175.5 124.423C175.5 84.193 208.844 51.561 250 51.561C291.156 51.561 324.5 84.193 324.5 124.423Z" fill="#609513" fill-opacity="0.6" stroke="white"/>
<path d="M128.586 113.065V114.605H127.242V121.773H125.394V114.605H124.05V113.065H125.408C125.258 112.897 125.095 112.706 124.918 112.491C124.75 112.276 124.6 112.08 124.47 111.903C124.936 111.147 125.394 110.554 125.842 110.125C126.299 109.696 126.78 109.392 127.284 109.215C127.788 109.028 128.343 108.935 128.95 108.935C129.398 108.935 129.822 108.972 130.224 109.047C130.634 109.122 131.059 109.252 131.498 109.439C131.946 109.616 132.44 109.859 132.982 110.167C133.523 110.466 134.153 110.839 134.872 111.287L133.92 112.533C133.164 112.048 132.52 111.656 131.988 111.357C131.456 111.049 130.97 110.825 130.532 110.685C130.093 110.545 129.631 110.475 129.146 110.475C128.707 110.475 128.324 110.559 127.998 110.727C127.671 110.895 127.386 111.105 127.144 111.357C126.91 111.609 126.705 111.87 126.528 112.141C126.612 112.29 126.71 112.449 126.822 112.617C126.934 112.785 127.05 112.934 127.172 113.065H128.586ZM138.718 113.065V114.605H137.374V121.773H135.526V114.675L135.582 114.353C135.563 114.176 135.549 114.003 135.54 113.835C135.53 113.658 135.526 113.485 135.526 113.317V112.141H137.038L137.36 113.065H138.718ZM133.426 112.967C133.827 112.967 134.177 113.037 134.476 113.177C134.784 113.317 135.059 113.518 135.302 113.779C135.544 114.04 135.759 114.348 135.946 114.703V116.579C135.647 115.972 135.316 115.478 134.952 115.095C134.588 114.703 134.172 114.507 133.706 114.507C133.444 114.507 133.216 114.582 133.02 114.731C132.833 114.871 132.74 115.09 132.74 115.389C132.74 115.716 132.875 115.963 133.146 116.131C133.426 116.29 133.841 116.378 134.392 116.397L134.196 118.077C133.524 118.04 132.987 117.9 132.586 117.657C132.184 117.414 131.895 117.097 131.718 116.705C131.54 116.304 131.452 115.856 131.452 115.361C131.452 114.81 131.54 114.362 131.718 114.017C131.904 113.662 132.147 113.401 132.446 113.233C132.754 113.056 133.08 112.967 133.426 112.967ZM129.73 112.967C130.159 112.967 130.556 113.056 130.92 113.233C131.284 113.41 131.573 113.69 131.788 114.073C132.012 114.446 132.124 114.941 132.124 115.557C132.124 115.977 132.03 116.383 131.844 116.775C131.666 117.158 131.372 117.47 130.962 117.713C130.56 117.956 130.024 118.077 129.352 118.077L129.17 116.411C129.599 116.383 129.93 116.327 130.164 116.243C130.397 116.15 130.56 116.033 130.654 115.893C130.756 115.744 130.808 115.58 130.808 115.403C130.808 115.104 130.7 114.88 130.486 114.731C130.28 114.582 130.005 114.507 129.66 114.507C129.464 114.507 129.282 114.516 129.114 114.535C128.955 114.554 128.778 114.591 128.582 114.647L128.414 113.093C128.656 113.046 128.885 113.014 129.1 112.995C129.314 112.976 129.524 112.967 129.73 112.967ZM152.422 113.065V114.605H148.054V121.773H146.206V120.247L146.276 119.841C146.248 119.636 146.229 119.435 146.22 119.239C146.21 119.034 146.206 118.772 146.206 118.455V116.705L146.248 116.355V114.605H138.576V113.065H152.422ZM151.876 118.385C151.876 118.702 151.801 119.01 151.652 119.309C151.512 119.598 151.283 119.841 150.966 120.037C150.658 120.224 150.252 120.317 149.748 120.317C149.617 120.317 149.477 120.312 149.328 120.303C149.178 120.284 149.029 120.261 148.88 120.233L148.95 118.693C148.996 118.702 149.052 118.712 149.118 118.721C149.183 118.721 149.258 118.721 149.342 118.721C149.631 118.721 149.818 118.67 149.902 118.567C149.986 118.464 150.028 118.352 150.028 118.231C150.028 118.119 150 118.021 149.944 117.937C149.897 117.844 149.822 117.764 149.72 117.699C149.542 117.587 149.314 117.512 149.034 117.475C148.763 117.428 148.418 117.405 147.998 117.405H146.864C146.238 117.405 145.678 117.321 145.184 117.153C144.698 116.976 144.311 116.696 144.022 116.313C143.742 115.921 143.602 115.403 143.602 114.759C143.602 114.656 143.606 114.54 143.616 114.409C143.634 114.278 143.653 114.148 143.672 114.017L145.352 114.283C145.333 114.358 145.319 114.432 145.31 114.507C145.3 114.572 145.296 114.638 145.296 114.703C145.296 115.132 145.408 115.436 145.632 115.613C145.856 115.79 146.21 115.879 146.696 115.879H147.802C148.782 115.879 149.528 115.963 150.042 116.131C150.555 116.29 150.956 116.518 151.246 116.817C151.47 117.041 151.628 117.284 151.722 117.545C151.824 117.806 151.876 118.086 151.876 118.385ZM143.77 118.245C144.171 118.245 144.54 118.324 144.876 118.483C145.221 118.632 145.543 118.847 145.842 119.127C146.14 119.398 146.42 119.715 146.682 120.079L146.542 120.905L146.262 121.633C145.972 121.222 145.697 120.882 145.436 120.611C145.184 120.331 144.936 120.121 144.694 119.981C144.451 119.841 144.208 119.771 143.966 119.771C143.844 119.771 143.737 119.794 143.644 119.841C143.56 119.878 143.494 119.934 143.448 120.009C143.41 120.084 143.392 120.182 143.392 120.303C143.392 120.368 143.401 120.462 143.42 120.583C143.448 120.695 143.485 120.802 143.532 120.905L141.754 121.171C141.679 120.984 141.614 120.798 141.558 120.611C141.511 120.424 141.488 120.242 141.488 120.065C141.488 119.738 141.548 119.463 141.67 119.239C141.791 119.006 141.954 118.819 142.16 118.679C142.374 118.53 142.617 118.422 142.888 118.357C143.168 118.282 143.462 118.245 143.77 118.245ZM141.376 115.543C142.057 115.543 142.612 115.678 143.042 115.949C143.471 116.21 143.788 116.551 143.994 116.971C144.199 117.391 144.302 117.844 144.302 118.329C144.302 118.497 144.292 118.674 144.274 118.861C144.255 119.038 144.236 119.174 144.218 119.267L142.454 119.169C142.472 119.094 142.486 118.996 142.496 118.875C142.505 118.754 142.51 118.595 142.51 118.399C142.51 118.203 142.477 118.002 142.412 117.797C142.356 117.592 142.258 117.419 142.118 117.279C141.978 117.139 141.791 117.069 141.558 117.069C141.408 117.069 141.282 117.111 141.18 117.195C141.077 117.27 141.026 117.4 141.026 117.587C141.026 117.671 141.035 117.76 141.054 117.853C141.072 117.946 141.1 118.035 141.138 118.119L139.36 118.371C139.294 118.212 139.238 118.044 139.192 117.867C139.145 117.69 139.122 117.512 139.122 117.335C139.122 117.008 139.182 116.733 139.304 116.509C139.434 116.285 139.602 116.103 139.808 115.963C140.022 115.814 140.265 115.706 140.536 115.641C140.806 115.576 141.086 115.543 141.376 115.543ZM140.102 116.537C140.12 116.444 140.134 116.341 140.144 116.229C140.153 116.108 140.158 116.01 140.158 115.935C140.158 115.468 140.032 115.076 139.78 114.759C139.537 114.442 139.154 114.194 138.632 114.017L140.872 113.667C141.254 113.919 141.534 114.25 141.712 114.661C141.898 115.062 141.992 115.468 141.992 115.879C141.992 116 141.982 116.145 141.964 116.313C141.945 116.481 141.917 116.612 141.88 116.705L140.102 116.537ZM156.814 113.065V114.605H155.47V121.773H153.622V115.557C153.51 115.268 153.352 115.039 153.146 114.871C152.941 114.694 152.675 114.605 152.348 114.605H152.278V113.065H152.558C152.773 113.065 152.974 113.121 153.16 113.233C153.347 113.345 153.52 113.583 153.678 113.947C153.669 113.9 153.655 113.793 153.636 113.625C153.627 113.457 153.622 113.312 153.622 113.191V112.141H155.134L155.456 113.065H156.814ZM127.207 129.065V130.605H125.863V137.773H124.015C123.753 137.278 123.385 136.854 122.909 136.499C122.442 136.135 121.989 135.836 121.551 135.603L122.363 134.413C122.717 134.618 123.039 134.838 123.329 135.071C123.627 135.295 123.87 135.514 124.057 135.729C124.047 135.626 124.038 135.524 124.029 135.421C124.029 135.318 124.024 135.211 124.015 135.099C124.015 134.978 124.015 134.856 124.015 134.735V130.605H113.487V129.065H127.207ZM119.199 136.625C118.433 136.625 117.715 136.476 117.043 136.177C116.38 135.878 115.778 135.374 115.237 134.665C114.705 133.956 114.238 132.994 113.837 131.781L115.587 131.291C115.885 132.159 116.198 132.868 116.525 133.419C116.851 133.97 117.225 134.376 117.645 134.637C118.065 134.889 118.555 135.015 119.115 135.015C119.553 135.015 119.913 134.959 120.193 134.847C120.482 134.735 120.697 134.572 120.837 134.357C120.977 134.142 121.047 133.89 121.047 133.601C121.047 133.246 120.949 132.971 120.753 132.775C120.566 132.57 120.323 132.467 120.025 132.467C119.819 132.467 119.661 132.518 119.549 132.621C119.437 132.724 119.381 132.859 119.381 133.027C119.381 133.102 119.39 133.186 119.409 133.279C119.427 133.363 119.451 133.442 119.479 133.517L117.743 133.769C117.668 133.592 117.612 133.419 117.575 133.251C117.537 133.083 117.519 132.938 117.519 132.817C117.519 132.36 117.626 132 117.841 131.739C118.055 131.468 118.335 131.272 118.681 131.151C119.035 131.03 119.404 130.969 119.787 130.969C120.431 130.969 120.986 131.095 121.453 131.347C121.919 131.59 122.274 131.926 122.517 132.355C122.769 132.784 122.895 133.27 122.895 133.811C122.895 134.315 122.769 134.782 122.517 135.211C122.265 135.64 121.863 135.986 121.313 136.247C120.771 136.499 120.067 136.625 119.199 136.625ZM118.317 131.781C118.279 131.473 118.144 131.207 117.911 130.983C117.677 130.759 117.341 130.596 116.903 130.493L117.953 129.877L118.597 130.031C119.119 130.246 119.497 130.484 119.731 130.745C119.964 131.006 120.104 131.338 120.151 131.739L118.317 131.781ZM131.602 129.065V130.605H130.258V137.773H128.41V130.605H127.066V129.065H128.424C128.275 128.888 128.111 128.687 127.934 128.463C127.766 128.23 127.617 128.024 127.486 127.847C128.018 127.119 128.541 126.545 129.054 126.125C129.577 125.696 130.123 125.392 130.692 125.215C131.271 125.028 131.905 124.935 132.596 124.935C133.128 124.935 133.641 124.977 134.136 125.061C134.631 125.136 135.144 125.262 135.676 125.439C136.208 125.616 136.787 125.854 137.412 126.153C138.037 126.442 138.742 126.802 139.526 127.231L138.658 128.519C137.958 128.155 137.342 127.842 136.81 127.581C136.278 127.32 135.788 127.11 135.34 126.951C134.901 126.783 134.477 126.662 134.066 126.587C133.665 126.512 133.24 126.475 132.792 126.475C132.279 126.475 131.817 126.559 131.406 126.727C131.005 126.895 130.65 127.11 130.342 127.371C130.043 127.623 129.782 127.884 129.558 128.155C129.642 128.304 129.735 128.463 129.838 128.631C129.95 128.79 130.067 128.934 130.188 129.065H131.602ZM144.128 129.065V130.605H133.852L134.034 130.507C134.361 130.6 134.664 130.722 134.944 130.871C135.233 131.02 135.499 131.188 135.742 131.375C135.994 131.552 136.223 131.734 136.428 131.921L136.596 133.153C136.335 133.256 136.069 133.368 135.798 133.489C135.527 133.61 135.261 133.736 135 133.867C134.739 133.998 134.487 134.133 134.244 134.273L134.23 134.189C134.566 134.236 134.949 134.334 135.378 134.483C135.817 134.632 136.246 134.828 136.666 135.071C137.095 135.304 137.464 135.58 137.772 135.897C137.763 135.738 137.753 135.584 137.744 135.435C137.744 135.276 137.744 135.113 137.744 134.945V130.983H138.388C139.023 130.983 139.597 131.02 140.11 131.095C140.623 131.17 141.09 131.3 141.51 131.487C141.93 131.664 142.317 131.916 142.672 132.243C142.971 132.504 143.19 132.803 143.33 133.139C143.47 133.466 143.54 133.806 143.54 134.161C143.54 134.469 143.475 134.763 143.344 135.043C143.223 135.323 143.008 135.552 142.7 135.729C142.392 135.906 141.963 135.995 141.412 135.995C141.216 135.995 141.034 135.99 140.866 135.981C140.707 135.962 140.553 135.939 140.404 135.911L140.474 134.371C140.521 134.38 140.577 134.39 140.642 134.399C140.717 134.399 140.81 134.399 140.922 134.399C141.258 134.399 141.477 134.343 141.58 134.231C141.683 134.11 141.734 133.965 141.734 133.797C141.734 133.526 141.566 133.27 141.23 133.027C140.894 132.784 140.348 132.63 139.592 132.565V137.773H137.744C137.38 137.316 136.946 136.928 136.442 136.611C135.947 136.284 135.387 136.023 134.762 135.827C134.137 135.622 133.446 135.468 132.69 135.365L132.032 133.783C132.293 133.624 132.564 133.466 132.844 133.307C133.133 133.148 133.432 132.99 133.74 132.831C134.048 132.663 134.356 132.504 134.664 132.355C134.272 132.131 133.847 131.935 133.39 131.767C132.942 131.599 132.452 131.473 131.92 131.389L132.438 130.227L132.97 130.605H131.458V129.065H144.128ZM154.177 129.065V130.605H152.833V137.773H150.985V133.349L151.335 133.951C151.148 133.718 150.975 133.54 150.817 133.419C150.667 133.288 150.523 133.223 150.383 133.223C150.271 133.223 150.168 133.256 150.075 133.321C149.981 133.386 149.869 133.517 149.739 133.713C149.608 133.909 149.417 134.208 149.165 134.609C148.903 135.02 148.656 135.356 148.423 135.617C148.189 135.869 147.947 136.051 147.695 136.163C147.452 136.275 147.167 136.331 146.841 136.331C146.561 136.331 146.29 136.284 146.029 136.191C145.767 136.098 145.511 135.934 145.259 135.701C145.016 135.458 144.769 135.118 144.517 134.679L145.805 133.881C145.991 134.18 146.15 134.394 146.281 134.525C146.411 134.646 146.565 134.707 146.743 134.707C146.864 134.707 146.976 134.679 147.079 134.623C147.191 134.567 147.317 134.441 147.457 134.245C147.606 134.04 147.793 133.722 148.017 133.293L148.367 132.929C148.619 132.462 148.857 132.136 149.081 131.949C149.305 131.762 149.58 131.669 149.907 131.669C150.159 131.669 150.383 131.73 150.579 131.851C150.784 131.963 151.013 132.14 151.265 132.383L151.041 132.439C151.031 132.262 151.017 132.08 150.999 131.893C150.989 131.697 150.985 131.506 150.985 131.319V130.605H143.985V129.065H154.177ZM147.513 134.329C147.429 133.75 147.34 133.293 147.247 132.957C147.153 132.612 146.999 132.346 146.785 132.159C146.561 131.963 146.262 131.818 145.889 131.725C145.515 131.622 145.044 131.538 144.475 131.473L144.993 129.863L145.987 130.367C146.519 130.46 146.948 130.572 147.275 130.703C147.601 130.834 147.858 131.002 148.045 131.207C148.231 131.403 148.367 131.655 148.451 131.963C148.535 132.262 148.595 132.63 148.633 133.069L147.513 134.329ZM158.573 129.065V130.605H157.229V137.773H155.381V131.557C155.269 131.268 155.11 131.039 154.905 130.871C154.699 130.694 154.433 130.605 154.107 130.605H154.037V129.065H154.317C154.531 129.065 154.732 129.121 154.919 129.233C155.105 129.345 155.278 129.583 155.437 129.947C155.427 129.9 155.413 129.793 155.395 129.625C155.385 129.457 155.381 129.312 155.381 129.191V128.141H156.893L157.215 129.065H158.573ZM167.515 129.065V130.605H166.171V137.773H164.323C163.977 137.269 163.557 136.826 163.063 136.443C162.577 136.06 162.036 135.743 161.439 135.491C160.841 135.23 160.193 135.043 159.493 134.931L158.793 133.279C159.651 132.803 160.589 132.346 161.607 131.907C162.633 131.459 163.641 131.104 164.631 130.843L164.379 131.305V130.605H158.429V129.065H167.515ZM164.323 132.187L164.617 132.495C164.001 132.672 163.417 132.878 162.867 133.111C162.325 133.335 161.751 133.592 161.145 133.881C161.527 133.956 161.924 134.086 162.335 134.273C162.755 134.45 163.161 134.684 163.553 134.973C163.954 135.262 164.313 135.598 164.631 135.981L164.365 136.135C164.355 135.92 164.346 135.706 164.337 135.491C164.327 135.276 164.323 135.066 164.323 134.861V132.187ZM160.949 137.941C160.659 137.941 160.417 137.843 160.221 137.647C160.025 137.442 159.927 137.19 159.927 136.891C159.927 136.592 160.025 136.345 160.221 136.149C160.417 135.944 160.659 135.841 160.949 135.841C161.247 135.841 161.49 135.944 161.677 136.149C161.873 136.345 161.971 136.592 161.971 136.891C161.971 137.19 161.873 137.442 161.677 137.647C161.49 137.843 161.247 137.941 160.949 137.941Z" fill="#FDFDFD"/>
<path d="M259.056 121.367C258.403 121.367 257.778 121.278 257.18 121.101C256.592 120.924 256.042 120.625 255.528 120.205C255.024 119.785 254.567 119.216 254.156 118.497C253.746 117.778 253.391 116.873 253.092 115.781L254.842 115.291C255.169 116.42 255.524 117.312 255.906 117.965C256.298 118.609 256.742 119.071 257.236 119.351C257.731 119.622 258.291 119.757 258.916 119.757C259.364 119.757 259.742 119.692 260.05 119.561C260.368 119.43 260.61 119.239 260.778 118.987C260.946 118.735 261.03 118.432 261.03 118.077C261.03 117.834 261.002 117.62 260.946 117.433C260.89 117.246 260.811 117.078 260.708 116.929C260.615 116.78 260.508 116.654 260.386 116.551L261.842 115.375C262.197 115.851 262.454 116.327 262.612 116.803C262.78 117.279 262.864 117.783 262.864 118.315C262.864 118.894 262.72 119.416 262.43 119.883C262.15 120.34 261.726 120.704 261.156 120.975C260.596 121.236 259.896 121.367 259.056 121.367ZM258.566 118.189C257.932 118.189 257.428 118.04 257.054 117.741C256.69 117.433 256.508 117.018 256.508 116.495C256.508 116.271 256.536 116.056 256.592 115.851C256.648 115.646 256.718 115.459 256.802 115.291L258.454 115.697C258.417 115.781 258.384 115.86 258.356 115.935C258.338 116 258.328 116.075 258.328 116.159C258.328 116.336 258.38 116.462 258.482 116.537C258.585 116.612 258.716 116.649 258.874 116.649C259.052 116.649 259.21 116.621 259.35 116.565C259.5 116.5 259.649 116.397 259.798 116.257C259.948 116.108 260.111 115.902 260.288 115.641L261.842 115.375L261.912 116.257C261.604 116.668 261.282 117.018 260.946 117.307C260.61 117.596 260.246 117.816 259.854 117.965C259.472 118.114 259.042 118.189 258.566 118.189ZM263.508 113.065V114.605H252.728V113.065H263.508ZM267.904 113.065V114.605H266.56V121.773H264.712V115.557C264.6 115.268 264.442 115.039 264.236 114.871C264.031 114.694 263.765 114.605 263.438 114.605H263.368V113.065H263.648C263.863 113.065 264.064 113.121 264.25 113.233C264.437 113.345 264.61 113.583 264.768 113.947C264.759 113.9 264.745 113.793 264.726 113.625C264.717 113.457 264.712 113.312 264.712 113.191V112.141H266.224L266.546 113.065H267.904ZM272.856 113.065C272.847 112.776 272.772 112.57 272.632 112.449C272.492 112.318 272.245 112.253 271.89 112.253H271.064C270.355 112.253 269.776 112.188 269.328 112.057C268.89 111.917 268.544 111.707 268.292 111.427C268.115 111.231 267.984 111.002 267.9 110.741C267.826 110.47 267.788 110.162 267.788 109.817C267.788 109.677 267.793 109.551 267.802 109.439C267.812 109.318 267.83 109.173 267.858 109.005L269.608 109.117C269.599 109.201 269.59 109.276 269.58 109.341C269.58 109.406 269.58 109.467 269.58 109.523C269.58 109.719 269.599 109.896 269.636 110.055C269.683 110.204 269.758 110.33 269.86 110.433C269.963 110.526 270.094 110.596 270.252 110.643C270.411 110.69 270.668 110.713 271.022 110.713H271.904C272.455 110.713 272.889 110.755 273.206 110.839C273.533 110.923 273.808 111.072 274.032 111.287C274.21 111.464 274.345 111.698 274.438 111.987C274.541 112.267 274.597 112.626 274.606 113.065H272.856ZM271.582 114.983C272.441 114.983 273.122 115.114 273.626 115.375C274.14 115.627 274.508 115.949 274.732 116.341C274.956 116.733 275.068 117.134 275.068 117.545C275.068 118.31 274.826 118.898 274.34 119.309C273.864 119.71 273.188 119.981 272.31 120.121L271.988 119.547C272.455 119.668 272.917 119.818 273.374 119.995C273.832 120.172 274.284 120.382 274.732 120.625C275.19 120.868 275.638 121.143 276.076 121.451L275.096 122.753C274.658 122.436 274.191 122.142 273.696 121.871C273.211 121.6 272.693 121.358 272.142 121.143C271.601 120.919 271.032 120.723 270.434 120.555C269.837 120.387 269.207 120.252 268.544 120.149L268.852 118.679C269.179 118.763 269.496 118.828 269.804 118.875C270.122 118.922 270.439 118.945 270.756 118.945C271.354 118.945 271.83 118.889 272.184 118.777C272.539 118.656 272.796 118.492 272.954 118.287C273.122 118.082 273.206 117.839 273.206 117.559C273.206 117.223 273.076 116.952 272.814 116.747C272.562 116.542 272.203 116.439 271.736 116.439C271.466 116.439 271.246 116.462 271.078 116.509C270.92 116.556 270.803 116.63 270.728 116.733C270.663 116.826 270.63 116.943 270.63 117.083C270.63 117.13 270.64 117.186 270.658 117.251C270.677 117.316 270.696 117.372 270.714 117.419L268.978 117.671C268.922 117.531 268.876 117.372 268.838 117.195C268.801 117.008 268.782 116.836 268.782 116.677C268.782 116.341 268.894 116.047 269.118 115.795C269.342 115.534 269.664 115.333 270.084 115.193C270.504 115.053 271.004 114.983 271.582 114.983ZM269.93 115.781C269.884 115.473 269.744 115.207 269.51 114.983C269.277 114.759 268.941 114.596 268.502 114.493L269.566 113.877L270.21 114.031C270.733 114.246 271.111 114.484 271.344 114.745C271.578 115.006 271.713 115.338 271.75 115.739L269.93 115.781ZM276.062 113.065V114.605H267.76V113.065H276.062ZM286.131 113.065V114.605H284.787V121.773H282.939V117.349L283.289 117.951C283.103 117.718 282.93 117.54 282.771 117.419C282.622 117.288 282.477 117.223 282.337 117.223C282.225 117.223 282.123 117.256 282.029 117.321C281.936 117.386 281.824 117.517 281.693 117.713C281.563 117.909 281.371 118.208 281.119 118.609C280.858 119.02 280.611 119.356 280.377 119.617C280.144 119.869 279.901 120.051 279.649 120.163C279.407 120.275 279.122 120.331 278.795 120.331C278.515 120.331 278.245 120.284 277.983 120.191C277.722 120.098 277.465 119.934 277.213 119.701C276.971 119.458 276.723 119.118 276.471 118.679L277.759 117.881C277.946 118.18 278.105 118.394 278.235 118.525C278.366 118.646 278.52 118.707 278.697 118.707C278.819 118.707 278.931 118.679 279.033 118.623C279.145 118.567 279.271 118.441 279.411 118.245C279.561 118.04 279.747 117.722 279.971 117.293L280.321 116.929C280.573 116.462 280.811 116.136 281.035 115.949C281.259 115.762 281.535 115.669 281.861 115.669C282.113 115.669 282.337 115.73 282.533 115.851C282.739 115.963 282.967 116.14 283.219 116.383L282.995 116.439C282.986 116.262 282.972 116.08 282.953 115.893C282.944 115.697 282.939 115.506 282.939 115.319V114.605H275.939V113.065H286.131ZM279.467 118.329C279.383 117.75 279.295 117.293 279.201 116.957C279.108 116.612 278.954 116.346 278.739 116.159C278.515 115.963 278.217 115.818 277.843 115.725C277.47 115.622 276.999 115.538 276.429 115.473L276.947 113.863L277.941 114.367C278.473 114.46 278.903 114.572 279.229 114.703C279.556 114.834 279.813 115.002 279.999 115.207C280.186 115.403 280.321 115.655 280.405 115.963C280.489 116.262 280.55 116.63 280.587 117.069L279.467 118.329ZM244.068 129.065V130.605H242.724V137.773H240.876V130.605H239.532V129.065H240.89C240.74 128.888 240.577 128.687 240.4 128.463C240.232 128.23 240.082 128.024 239.952 127.847C240.484 127.119 241.006 126.545 241.52 126.125C242.042 125.696 242.588 125.392 243.158 125.215C243.736 125.028 244.371 124.935 245.062 124.935C245.594 124.935 246.107 124.977 246.602 125.061C247.096 125.136 247.61 125.262 248.142 125.439C248.674 125.616 249.252 125.854 249.878 126.153C250.503 126.442 251.208 126.802 251.992 127.231L251.124 128.519C250.424 128.155 249.808 127.842 249.276 127.581C248.744 127.32 248.254 127.11 247.806 126.951C247.367 126.783 246.942 126.662 246.532 126.587C246.13 126.512 245.706 126.475 245.258 126.475C244.744 126.475 244.282 126.559 243.872 126.727C243.47 126.895 243.116 127.11 242.808 127.371C242.509 127.623 242.248 127.884 242.024 128.155C242.108 128.304 242.201 128.463 242.304 128.631C242.416 128.79 242.532 128.934 242.654 129.065H244.068ZM255.628 129.065V130.605H254.284V135.477H252.436V132.285L252.52 132.999C252.23 132.607 251.941 132.257 251.652 131.949C251.362 131.641 251.068 131.38 250.77 131.165C250.48 130.95 250.186 130.787 249.888 130.675C249.598 130.563 249.3 130.507 248.992 130.507C248.618 130.507 248.278 130.577 247.97 130.717C247.671 130.857 247.391 131.048 247.13 131.291C246.878 131.534 246.621 131.818 246.36 132.145L246.318 131.823C246.504 131.702 246.705 131.594 246.92 131.501C247.144 131.398 247.405 131.347 247.704 131.347C248.17 131.347 248.506 131.478 248.712 131.739C248.926 131.991 249.034 132.276 249.034 132.593C249.034 132.742 249.029 132.882 249.02 133.013C249.02 133.144 249.01 133.232 248.992 133.279L248.558 133.153C248.651 133.041 248.758 132.924 248.88 132.803C249.01 132.672 249.146 132.542 249.286 132.411C249.426 132.28 249.561 132.159 249.692 132.047L251.372 130.591L252.478 131.697L248.334 135.463L247.06 134.273L248.376 133.069L247.844 133.783L247.27 134.119C247.428 133.96 247.55 133.797 247.634 133.629C247.718 133.461 247.76 133.302 247.76 133.153C247.76 132.929 247.699 132.77 247.578 132.677C247.456 132.574 247.302 132.523 247.116 132.523C246.994 132.523 246.868 132.546 246.738 132.593C246.616 132.63 246.486 132.691 246.346 132.775L244.96 131.501C245.389 130.969 245.8 130.516 246.192 130.143C246.593 129.76 247.013 129.471 247.452 129.275C247.9 129.07 248.394 128.967 248.936 128.967C249.412 128.967 249.846 129.046 250.238 129.205C250.63 129.364 251.012 129.592 251.386 129.891C251.768 130.19 252.165 130.549 252.576 130.969L252.52 131.263C252.501 131.076 252.482 130.862 252.464 130.619C252.445 130.376 252.436 130.138 252.436 129.905V128.141H253.948L254.27 129.065H255.628ZM254.284 138.375H252.464C252.389 138.188 252.277 138.034 252.128 137.913C251.988 137.801 251.81 137.717 251.596 137.661C251.39 137.605 251.143 137.577 250.854 137.577C250.434 137.577 249.967 137.619 249.454 137.703C248.95 137.778 248.399 137.815 247.802 137.815C247.447 137.815 247.078 137.782 246.696 137.717C246.313 137.652 245.954 137.526 245.618 137.339C245.282 137.152 245.011 136.877 244.806 136.513C244.6 136.14 244.498 135.645 244.498 135.029C244.498 134.824 244.512 134.6 244.54 134.357C244.577 134.114 244.614 133.904 244.652 133.727L246.416 133.965C246.378 134.086 246.346 134.231 246.318 134.399C246.299 134.567 246.29 134.735 246.29 134.903C246.29 135.286 246.364 135.575 246.514 135.771C246.672 135.967 246.878 136.098 247.13 136.163C247.391 136.228 247.68 136.261 247.998 136.261C248.511 136.261 248.973 136.224 249.384 136.149C249.794 136.065 250.242 136.023 250.728 136.023C251.073 136.023 251.39 136.088 251.68 136.219C251.978 136.34 252.23 136.527 252.436 136.779V134.917H254.284V138.375ZM260.029 129.065V130.605H258.685V137.773H256.837V130.605H255.493V129.065H256.851C256.702 128.878 256.534 128.664 256.347 128.421C256.17 128.178 256.021 127.968 255.899 127.791C256.506 127.082 257.099 126.522 257.677 126.111C258.265 125.691 258.881 125.392 259.525 125.215C260.179 125.028 260.893 124.935 261.667 124.935C262.479 124.935 263.273 125.01 264.047 125.159C264.822 125.299 265.653 125.532 266.539 125.859C267.426 126.186 268.439 126.624 269.577 127.175L268.807 128.491C267.986 128.127 267.258 127.819 266.623 127.567C265.989 127.306 265.41 127.096 264.887 126.937C264.365 126.778 263.861 126.662 263.375 126.587C262.89 126.512 262.386 126.475 261.863 126.475C261.266 126.475 260.725 126.564 260.239 126.741C259.754 126.909 259.325 127.124 258.951 127.385C258.578 127.646 258.261 127.912 257.999 128.183C258.083 128.332 258.177 128.486 258.279 128.645C258.382 128.794 258.494 128.934 258.615 129.065H260.029ZM273.227 129.065V130.605H271.883V137.773H270.035V133.769L270.385 134.371C270.199 134.138 270.026 133.96 269.867 133.839C269.718 133.708 269.573 133.643 269.433 133.643C269.321 133.643 269.219 133.676 269.125 133.741C269.032 133.806 268.92 133.937 268.789 134.133C268.659 134.329 268.467 134.628 268.215 135.029C267.954 135.44 267.707 135.776 267.473 136.037C267.24 136.289 266.997 136.471 266.745 136.583C266.503 136.695 266.218 136.751 265.891 136.751C265.611 136.751 265.341 136.704 265.079 136.611C264.818 136.518 264.561 136.354 264.309 136.121C264.067 135.878 263.819 135.538 263.567 135.099L264.855 134.301C265.042 134.618 265.201 134.847 265.331 134.987C265.462 135.127 265.616 135.197 265.793 135.197C265.915 135.197 266.031 135.174 266.143 135.127C266.265 135.071 266.4 134.945 266.549 134.749C266.708 134.553 266.899 134.236 267.123 133.797L267.473 133.377C267.716 132.892 267.94 132.556 268.145 132.369C268.36 132.182 268.631 132.089 268.957 132.089C269.209 132.089 269.433 132.15 269.629 132.271C269.835 132.383 270.063 132.56 270.315 132.803L270.091 132.859C270.082 132.672 270.068 132.476 270.049 132.271C270.04 132.066 270.035 131.888 270.035 131.739V130.605H259.885V129.065H273.227ZM267.123 134.273L266.605 134.245C266.531 133.694 266.437 133.251 266.325 132.915C266.223 132.57 266.078 132.318 265.891 132.159C265.667 131.963 265.373 131.818 265.009 131.725C264.655 131.622 264.193 131.538 263.623 131.473L264.141 129.863L265.149 130.367C265.672 130.46 266.087 130.577 266.395 130.717C266.713 130.857 266.955 131.03 267.123 131.235C267.301 131.44 267.427 131.692 267.501 131.991C267.585 132.29 267.646 132.649 267.683 133.069L267.123 134.273ZM262.741 131.893C263.339 131.893 263.889 131.986 264.393 132.173C264.897 132.36 265.387 132.626 265.863 132.971C266.339 133.316 266.834 133.732 267.347 134.217L266.549 135.113C266.241 134.852 265.891 134.595 265.499 134.343C265.117 134.091 264.72 133.886 264.309 133.727C263.899 133.559 263.502 133.475 263.119 133.475C262.867 133.475 262.671 133.522 262.531 133.615C262.401 133.699 262.335 133.83 262.335 134.007C262.335 134.184 262.396 134.338 262.517 134.469C262.639 134.6 262.844 134.716 263.133 134.819L262.321 136.359C261.733 136.116 261.271 135.785 260.935 135.365C260.599 134.936 260.431 134.464 260.431 133.951C260.431 133.475 260.543 133.088 260.767 132.789C260.991 132.481 261.276 132.257 261.621 132.117C261.976 131.968 262.349 131.893 262.741 131.893ZM284.072 129.065V130.605H282.728V137.773H280.88V132.285L280.964 132.999C280.675 132.607 280.385 132.257 280.096 131.949C279.807 131.641 279.517 131.38 279.228 131.165C278.939 130.95 278.645 130.787 278.346 130.675C278.047 130.563 277.744 130.507 277.436 130.507C277.063 130.507 276.722 130.577 276.414 130.717C276.115 130.857 275.835 131.048 275.574 131.291C275.322 131.534 275.065 131.818 274.804 132.145L274.762 131.823C274.949 131.702 275.149 131.594 275.364 131.501C275.588 131.398 275.849 131.347 276.148 131.347C276.615 131.347 276.951 131.478 277.156 131.739C277.371 131.991 277.478 132.276 277.478 132.593C277.478 132.742 277.473 132.882 277.464 133.013C277.464 133.144 277.455 133.232 277.436 133.279L277.002 133.153C277.095 133.041 277.203 132.924 277.324 132.803C277.455 132.672 277.59 132.542 277.73 132.411C277.87 132.28 278.005 132.159 278.136 132.047L279.816 130.591L280.922 131.697L276.778 135.463L275.504 134.273L276.82 133.069L276.288 133.783L275.714 134.119C275.873 133.96 275.994 133.797 276.078 133.629C276.162 133.461 276.204 133.302 276.204 133.153C276.204 132.929 276.143 132.77 276.022 132.677C275.901 132.574 275.747 132.523 275.56 132.523C275.439 132.523 275.313 132.546 275.182 132.593C275.061 132.63 274.93 132.691 274.79 132.775L273.404 131.501C273.833 130.969 274.249 130.516 274.65 130.143C275.051 129.76 275.471 129.471 275.91 129.275C276.349 129.07 276.839 128.967 277.38 128.967C277.856 128.967 278.29 129.046 278.682 129.205C279.074 129.364 279.457 129.592 279.83 129.891C280.213 130.19 280.609 130.549 281.02 130.969L280.964 131.263C280.945 131.076 280.927 130.862 280.908 130.619C280.889 130.376 280.88 130.138 280.88 129.905V128.141H282.392L282.714 129.065H284.072ZM288.463 129.065V130.605H287.119V137.773H285.271V131.557C285.159 131.268 285 131.039 284.795 130.871C284.59 130.694 284.324 130.605 283.997 130.605H283.927V129.065H284.207C284.422 129.065 284.622 129.121 284.809 129.233C284.996 129.345 285.168 129.583 285.327 129.947C285.318 129.9 285.304 129.793 285.285 129.625C285.276 129.457 285.271 129.312 285.271 129.191V128.141H286.783L287.105 129.065H288.463ZM299.463 129.065V130.605H298.119V137.773H296.271V133.363L296.649 134.161C296.5 133.89 296.322 133.657 296.117 133.461C295.912 133.265 295.678 133.167 295.417 133.167C295.324 133.167 295.216 133.19 295.095 133.237C294.983 133.284 294.885 133.372 294.801 133.503C294.726 133.634 294.689 133.825 294.689 134.077C294.689 134.161 294.694 134.24 294.703 134.315C294.712 134.38 294.722 134.45 294.731 134.525L293.149 134.623C293.102 134.315 293.009 134.049 292.869 133.825C292.738 133.592 292.57 133.414 292.365 133.293C292.16 133.172 291.912 133.111 291.623 133.111C291.455 133.111 291.306 133.144 291.175 133.209C291.044 133.265 290.942 133.349 290.867 133.461C290.802 133.573 290.769 133.704 290.769 133.853C290.769 134.189 290.9 134.45 291.161 134.637C291.432 134.824 291.758 134.978 292.141 135.099L291.609 136.667C291.049 136.508 290.564 136.298 290.153 136.037C289.742 135.766 289.425 135.444 289.201 135.071C288.977 134.698 288.865 134.268 288.865 133.783C288.865 133.316 288.977 132.915 289.201 132.579C289.434 132.243 289.742 131.986 290.125 131.809C290.508 131.622 290.928 131.529 291.385 131.529C291.936 131.529 292.398 131.622 292.771 131.809C293.144 131.986 293.532 132.28 293.933 132.691L293.681 132.593C293.784 132.266 293.966 132.019 294.227 131.851C294.488 131.683 294.764 131.599 295.053 131.599C295.38 131.599 295.669 131.664 295.921 131.795C296.182 131.926 296.425 132.103 296.649 132.327L296.341 132.551C296.322 132.346 296.304 132.14 296.285 131.935C296.276 131.73 296.271 131.524 296.271 131.319V130.605H288.319V129.065H299.463Z" fill="#FDFDFD"/>
<path d="M191.056 116.292V117.832H189.712V125H187.864C187.602 124.505 187.234 124.081 186.758 123.726C186.291 123.362 185.838 123.063 185.4 122.83L186.212 121.64C186.566 121.845 186.888 122.065 187.178 122.298C187.476 122.522 187.719 122.741 187.906 122.956C187.896 122.853 187.887 122.751 187.878 122.648C187.878 122.545 187.873 122.438 187.864 122.326C187.864 122.205 187.864 122.083 187.864 121.962V117.832H177.336V116.292H191.056ZM183.048 123.852C182.282 123.852 181.564 123.703 180.892 123.404C180.229 123.105 179.627 122.601 179.086 121.892C178.554 121.183 178.087 120.221 177.686 119.008L179.436 118.518C179.734 119.386 180.047 120.095 180.374 120.646C180.7 121.197 181.074 121.603 181.494 121.864C181.914 122.116 182.404 122.242 182.964 122.242C183.402 122.242 183.762 122.186 184.042 122.074C184.331 121.962 184.546 121.799 184.686 121.584C184.826 121.369 184.896 121.117 184.896 120.828C184.896 120.473 184.798 120.198 184.602 120.002C184.415 119.797 184.172 119.694 183.874 119.694C183.668 119.694 183.51 119.745 183.398 119.848C183.286 119.951 183.23 120.086 183.23 120.254C183.23 120.329 183.239 120.413 183.258 120.506C183.276 120.59 183.3 120.669 183.328 120.744L181.592 120.996C181.517 120.819 181.461 120.646 181.424 120.478C181.386 120.31 181.368 120.165 181.368 120.044C181.368 119.587 181.475 119.227 181.69 118.966C181.904 118.695 182.184 118.499 182.53 118.378C182.884 118.257 183.253 118.196 183.636 118.196C184.28 118.196 184.835 118.322 185.302 118.574C185.768 118.817 186.123 119.153 186.366 119.582C186.618 120.011 186.744 120.497 186.744 121.038C186.744 121.542 186.618 122.009 186.366 122.438C186.114 122.867 185.712 123.213 185.162 123.474C184.62 123.726 183.916 123.852 183.048 123.852ZM182.166 119.008C182.128 118.7 181.993 118.434 181.76 118.21C181.526 117.986 181.19 117.823 180.752 117.72L181.802 117.104L182.446 117.258C182.968 117.473 183.346 117.711 183.58 117.972C183.813 118.233 183.953 118.565 184 118.966L182.166 119.008ZM195.185 116.292V117.832H194.065L194.891 117.566C194.63 117.799 194.42 118.019 194.261 118.224C194.112 118.429 194.004 118.635 193.939 118.84C193.874 119.045 193.841 119.274 193.841 119.526C193.841 119.834 193.878 120.156 193.953 120.492C194.037 120.819 194.116 121.155 194.191 121.5C194.275 121.836 194.317 122.172 194.317 122.508C194.317 122.891 194.27 123.245 194.177 123.572C194.093 123.899 193.934 124.197 193.701 124.468C193.468 124.729 193.141 124.963 192.721 125.168C192.301 125.383 191.755 125.569 191.083 125.728L190.677 124.216C191.2 124.085 191.587 123.936 191.839 123.768C192.091 123.6 192.254 123.409 192.329 123.194C192.413 122.979 192.455 122.746 192.455 122.494C192.455 122.139 192.413 121.799 192.329 121.472C192.254 121.145 192.175 120.823 192.091 120.506C192.016 120.189 191.979 119.862 191.979 119.526C191.979 119.246 192.012 119.003 192.077 118.798C192.142 118.583 192.24 118.378 192.371 118.182C192.511 117.986 192.679 117.781 192.875 117.566L192.707 117.832H190.915V116.292H195.185ZM199.583 116.292V117.832H198.239V125H196.391V118.784C196.279 118.495 196.12 118.266 195.915 118.098C195.71 117.921 195.444 117.832 195.117 117.832H195.047V116.292H195.327C195.542 116.292 195.742 116.348 195.929 116.46C196.116 116.572 196.288 116.81 196.447 117.174C196.438 117.127 196.424 117.02 196.405 116.852C196.396 116.684 196.391 116.539 196.391 116.418V115.368H197.903L198.225 116.292H199.583ZM210.093 116.292V117.832H205.221V119.638C205.221 119.778 205.244 119.899 205.291 120.002C205.338 120.095 205.436 120.142 205.585 120.142C205.706 120.142 205.837 120.1 205.977 120.016C206.117 119.923 206.257 119.797 206.397 119.638C206.546 119.47 206.696 119.283 206.845 119.078L208.483 118.77C208.8 119.227 209.038 119.689 209.197 120.156C209.356 120.613 209.435 121.108 209.435 121.64C209.435 122.228 209.29 122.755 209.001 123.222C208.721 123.679 208.296 124.043 207.727 124.314C207.167 124.585 206.472 124.72 205.641 124.72C205.025 124.72 204.432 124.631 203.863 124.454C203.294 124.277 202.757 123.978 202.253 123.558C201.758 123.129 201.301 122.545 200.881 121.808C200.47 121.061 200.111 120.128 199.803 119.008L201.553 118.518C201.861 119.629 202.211 120.525 202.603 121.206C202.995 121.878 203.429 122.368 203.905 122.676C204.39 122.975 204.918 123.124 205.487 123.124C206.159 123.124 206.677 122.975 207.041 122.676C207.414 122.368 207.601 121.943 207.601 121.402C207.601 121.038 207.536 120.739 207.405 120.506C207.274 120.273 207.125 120.053 206.957 119.848L208.385 119.736C208.049 120.184 207.708 120.553 207.363 120.842C207.018 121.131 206.668 121.346 206.313 121.486C205.968 121.626 205.608 121.696 205.235 121.696C204.936 121.696 204.67 121.654 204.437 121.57C204.204 121.477 204.008 121.341 203.849 121.164C203.69 120.987 203.569 120.758 203.485 120.478C203.41 120.198 203.373 119.839 203.373 119.4V117.832H199.439V116.292H210.093ZM214.492 116.292V117.832H213.148V125H211.3V117.832H209.956V116.292H211.314C211.165 116.124 211.001 115.933 210.824 115.718C210.656 115.503 210.507 115.307 210.376 115.13C210.843 114.374 211.3 113.781 211.748 113.352C212.205 112.923 212.686 112.619 213.19 112.442C213.694 112.255 214.249 112.162 214.856 112.162C215.304 112.162 215.729 112.199 216.13 112.274C216.541 112.349 216.965 112.479 217.404 112.666C217.852 112.843 218.347 113.086 218.888 113.394C219.429 113.693 220.059 114.066 220.778 114.514L219.826 115.76C219.07 115.275 218.426 114.883 217.894 114.584C217.362 114.276 216.877 114.052 216.438 113.912C215.999 113.772 215.537 113.702 215.052 113.702C214.613 113.702 214.231 113.786 213.904 113.954C213.577 114.122 213.293 114.332 213.05 114.584C212.817 114.836 212.611 115.097 212.434 115.368C212.518 115.517 212.616 115.676 212.728 115.844C212.84 116.012 212.957 116.161 213.078 116.292H214.492ZM223.658 116.292V117.832H222.314V125H220.466V123.18L220.704 123.922C220.359 123.446 220.027 123.04 219.71 122.704C219.393 122.359 219.075 122.097 218.758 121.92C218.441 121.733 218.105 121.64 217.75 121.64C217.535 121.64 217.349 121.696 217.19 121.808C217.031 121.92 216.952 122.088 216.952 122.312C216.952 122.555 217.041 122.746 217.218 122.886C217.405 123.017 217.657 123.138 217.974 123.25L217.442 124.86C216.882 124.701 216.425 124.487 216.07 124.216C215.725 123.936 215.468 123.628 215.3 123.292C215.132 122.956 215.048 122.611 215.048 122.256C215.048 121.761 215.165 121.355 215.398 121.038C215.631 120.721 215.93 120.487 216.294 120.338C216.667 120.189 217.05 120.114 217.442 120.114C217.899 120.114 218.319 120.175 218.702 120.296C219.094 120.417 219.458 120.609 219.794 120.87C220.13 121.122 220.457 121.453 220.774 121.864L220.494 122.074C220.485 121.85 220.475 121.626 220.466 121.402C220.466 121.169 220.466 120.94 220.466 120.716V117.832H214.348V116.292H223.658ZM218.982 120.506C218.982 120.553 218.977 120.623 218.968 120.716C218.968 120.8 218.959 120.884 218.94 120.968L217.134 120.506C217.115 120.067 217.036 119.722 216.896 119.47C216.756 119.218 216.523 119.027 216.196 118.896C215.869 118.765 215.403 118.672 214.796 118.616L215.16 117.202L215.944 117.426C216.504 117.491 216.975 117.603 217.358 117.762C217.75 117.921 218.063 118.126 218.296 118.378C218.539 118.621 218.711 118.919 218.814 119.274C218.926 119.629 218.982 120.039 218.982 120.506ZM232.667 116.292V117.832H231.323V125H229.475V122.06L229.755 122.788C229.466 122.415 229.153 122.074 228.817 121.766C228.481 121.458 228.141 121.211 227.795 121.024C227.459 120.837 227.128 120.744 226.801 120.744C226.568 120.744 226.367 120.8 226.199 120.912C226.041 121.015 225.961 121.183 225.961 121.416C225.961 121.621 226.036 121.794 226.185 121.934C226.335 122.074 226.573 122.209 226.899 122.34L226.073 123.88C225.448 123.637 224.953 123.292 224.589 122.844C224.235 122.387 224.057 121.887 224.057 121.346C224.057 120.842 224.174 120.431 224.407 120.114C224.641 119.787 224.939 119.549 225.303 119.4C225.677 119.241 226.059 119.162 226.451 119.162C226.881 119.162 227.287 119.227 227.669 119.358C228.052 119.489 228.416 119.675 228.761 119.918C229.116 120.151 229.461 120.441 229.797 120.786L229.517 120.926C229.499 120.702 229.485 120.473 229.475 120.24C229.475 119.997 229.475 119.773 229.475 119.568V117.832H223.511V116.292H232.667Z" fill="#FDFDFD"/>
</svg>
